<?xml version="1.0" encoding="UTF-8"?>
<svg id="Camada_1" data-name="Camada 1" xmlns="http://www.w3.org/2000/svg" viewBox="0 0 1920 1080">
  <defs>
    <style>
      .cls-1 {
        fill: #e2001a;
      }

      .cls-2 {
        fill: #fff;
      }
    </style>
  </defs>
  <circle class="cls-2" cx="593.92" cy="369.26" r="5.69"/>
  <path d="M489.07,519.12l-22.26,19.76,1.88,61.16,43.54,33.08,167.84,17.55,141.09,26.6,163.81,18.9,235.68-40.85s39.96,6.05,54.08-5.85c21.69-18.29,36.65-47.72,36.65-47.72l61.3-65.9-837.12-139.79"/>
  <g>
    <path d="M355.04,370.51c-1.11-1.4-.24-4.22,2.61-8.45,2.85-4.23,7.26-9.19,13.25-14.9,5.99-5.7,13.27-11.76,21.84-18.19,8.57-6.42,17.98-12.52,28.21-18.29,10.24-5.77,21.08-10.85,32.53-15.23,11.45-4.38,22.87-7.42,34.28-9.11,8.99-1.33,18-1.76,27.03-1.31,9.03.46,17.78,2.02,26.24,4.69,8.46,2.67,16.41,6.43,23.85,11.26,7.44,4.84,13.95,10.99,19.53,18.45,3.63,4.84,6.8,10.03,9.53,15.56,2.72,5.54,4.52,11.26,5.4,17.18,1.36,9.21.7,17.6-1.99,25.16-2.69,7.57-6.78,14.34-12.29,20.3-5.5,5.97-12.01,11.24-19.5,15.82-7.5,4.59-15.44,8.5-23.8,11.76-8.37,3.26-16.77,5.9-25.21,7.93-8.44,2.04-16.27,3.58-23.51,4.66l7.17,89.34c.23,1.53-.69,2.9-2.75,4.1-2.07,1.2-4.66,2.25-7.77,3.17-3.12.91-6.5,1.52-10.15,1.84-3.65.31-7.13.32-10.41.03-3.29-.3-6.09-1.01-8.38-2.12-2.3-1.12-3.6-2.78-3.93-4.96-.81-5.48-1.63-13.31-2.47-23.5-.83-10.18-1.67-21.54-2.52-34.07-.85-12.53-1.66-25.58-2.43-39.13-.78-13.55-1.49-26.33-2.14-38.33-.66-12-1.16-22.62-1.52-31.87-.36-9.24-.62-15.87-.76-19.88-5.19,2.78-10.75,6.08-16.69,9.86-5.94,3.79-11.16,7.48-15.67,11.06-4.51,3.58-7.95,6.84-10.32,9.76-2.37,2.93-2.8,4.95-1.29,6.07,7.27,5.2,13.13,10.38,17.59,15.55,4.46,5.17,7.94,10.92,10.45,17.27,2.5,6.35,4.1,13.73,4.79,22.14.68,8.42.99,18.45.93,30.11-.03,1.35-2.2,2.57-6.52,3.65-4.32,1.09-9.11,1.68-14.35,1.79-5.25.11-10.16-.51-14.73-1.85-4.57-1.34-6.99-3.67-7.25-6.99-1-11.28-2.2-20.56-3.62-27.86-1.42-7.3-3.42-14-6-20.12-2.58-6.11-6.03-12.38-10.34-18.8-4.31-6.42-9.96-14.26-16.93-23.54ZM466.61,331.82c4.11.52,7.84,1.53,11.21,3.05,3.36,1.52,5.88,4.17,7.56,7.96.63,1.25,1.21,4.75,1.72,10.5.51,5.75.99,12.01,1.43,18.78.44,6.77.89,13.2,1.34,19.29.45,6.1.81,10.02,1.07,11.77,15.57-2.3,29.77-8.1,42.63-17.4,12.85-9.29,22.96-20.87,30.32-34.73.84-1.91,1.86-4.08,3.07-6.5,1.21-2.42,1.76-4.74,1.66-6.97-5.13-4.39-12.1-7.56-20.9-9.51-8.8-1.94-18.08-2.92-27.83-2.94-9.75-.01-19.4.63-28.95,1.93-9.55,1.3-17.67,2.9-24.33,4.78Z"/>
    <path d="M474.03,571.8c-2.74,0-3.29,7.15-5.91,6.91-7.6-.69-16.66-9.82-22.79-12.8-12.85-6.27-21.37-17.76-23.41-31.54-.93-6.3-1.83-14.73-2.73-25.78-.1-1.24-.2-2.5-.31-3.78-1.41.08-2.83.14-4.27.16-8.82.17-17.36-.92-25.37-3.28-18.53-5.44-30.96-19.93-32.47-37.84-.88-9.97-1.93-18.1-3.1-24.16-.94-4.85-2.24-9.26-3.86-13.09-1.7-4.02-4.1-8.35-7.14-12.87-3.9-5.81-9.23-13.21-15.84-22.01h0c-4.51-6.05-15.09-24.64,1.55-49.37,4.32-6.41,10.27-13.2,18.19-20.75,6.96-6.63,15.38-13.65,25.02-20.87,9.76-7.31,20.53-14.3,32.04-20.79,11.72-6.61,24.25-12.48,37.25-17.45,13.8-5.28,27.84-9,41.73-11.06,11.23-1.66,22.65-2.21,33.97-1.65,12.01.61,23.8,2.72,35.07,6.27,11.47,3.62,22.39,8.78,32.47,15.33,10.89,7.09,20.49,16.13,28.55,26.88,4.92,6.57,9.27,13.68,12.94,21.13,4.34,8.84,7.25,18.12,8.65,27.61,2.21,14.94.98,29.12-3.65,42.15-4.29,12.06-10.88,22.96-19.6,32.42-7.68,8.34-16.79,15.75-27.05,22.02-9.22,5.64-19.12,10.53-29.41,14.53-7.87,3.06-15.87,5.69-23.84,7.84l4.64,57.77c1.58,15.34-6,29.78-20.09,38.01-4.67,2.71-9.75,4.83-15.64,6.56-5.36,1.56-11.06,2.61-16.99,3.13-2.91.25-5.78.38-8.6.38Z"/>
  </g>
  <g>
    <path d="M682.93,301.16c5.99,0,10.68,2.35,14.08,7.04,3.39,4.69,5.94,10.34,7.64,16.93,1.69,6.59,2.79,13.33,3.3,20.22.5,6.89.75,12.54.75,16.93,0,8.79-.7,18.78-2.1,29.96-1.4,11.19-3.55,22.67-6.44,34.45-2.9,11.79-6.64,23.32-11.23,34.6-4.6,11.29-10.14,21.32-16.63,30.11-6.49,8.79-13.98,15.88-22.47,21.27-8.49,5.39-18.13,8.09-28.91,8.09-13.58,0-23.77-3.49-30.56-10.49-1.2,2.4-2.1,4.85-2.7,7.34-.6,2.5-1.3,5.04-2.1,7.64-.6,1.8-2,2.7-4.19,2.7s-4.84-.8-7.94-2.4c-3.1-1.6-6.04-3.55-8.84-5.84-2.8-2.29-5.09-4.79-6.89-7.49-1.8-2.7-2.4-5.14-1.8-7.34,3.79-11.38,9.03-22.27,15.73-32.65,6.69-10.38,14.73-19.37,24.12-26.96,1-.6,1.99-.9,3-.9,2.2,0,4.64,1.05,7.34,3.15,2.7,2.1,5.24,4.6,7.64,7.49,2.4,2.9,4.39,5.8,5.99,8.69,1.6,2.9,2.4,5.14,2.4,6.74,0,1-.9,2.55-2.7,4.64-1.8,2.1-3.9,4.34-6.29,6.74-2.4,2.4-4.75,4.75-7.04,7.04-2.3,2.3-3.85,4.25-4.64,5.84,5.99,0,11.73-1.9,17.23-5.69,5.49-3.79,10.64-8.73,15.43-14.83,4.79-6.09,9.18-12.93,13.18-20.52,3.99-7.59,7.59-15.23,10.78-22.92,3.19-7.69,5.89-15.03,8.09-22.02,2.19-6.99,3.79-12.88,4.79-17.68.2-1,.6-2.7,1.2-5.09.6-2.4,1.15-4.89,1.65-7.49.5-2.59.95-5.04,1.35-7.34.4-2.29.6-3.75.6-4.34-1.6,3.4-3.8,7.54-6.59,12.43-2.8,4.9-5.95,9.99-9.44,15.28-3.5,5.29-7.29,10.64-11.38,16.03-4.1,5.39-8.29,10.19-12.58,14.38-4.3,4.19-8.64,7.59-13.03,10.19-4.4,2.6-8.69,3.89-12.88,3.89-5.99,0-11.68-1.39-17.08-4.19-5.39-2.8-10.19-6.49-14.38-11.09-4.19-4.59-7.54-9.74-10.04-15.43-2.5-5.69-3.74-11.43-3.74-17.23,0-6.79.65-13.38,1.95-19.77,1.3-6.39,2.94-12.73,4.94-19.02,1.99-6.29,4.19-12.48,6.59-18.57,2.4-6.09,4.69-12.23,6.89-18.43.4-1,.65-1.69.75-2.1.1-.4.65-.8,1.65-1.2,3.39,0,6.44.7,9.14,2.1,2.7,1.4,5.04,3.29,7.04,5.69,1.99,2.4,3.54,5.09,4.64,8.09,1.1,3,1.65,6.1,1.65,9.29,0,5.39-.6,10.84-1.8,16.33-1.2,5.5-2.55,11.08-4.04,16.78-1.5,5.69-2.85,11.38-4.04,17.08-1.2,5.69-1.8,11.44-1.8,17.23,3.79-1.4,7.84-3.99,12.13-7.79,4.29-3.79,8.69-8.39,13.18-13.78,4.49-5.39,8.94-11.28,13.33-17.68,4.39-6.39,8.54-12.78,12.43-19.17,3.89-6.39,7.44-12.43,10.64-18.13,3.19-5.69,5.89-10.53,8.09-14.53,1.6-3.19,3.49-6.04,5.69-8.54,2.2-2.5,5.29-3.75,9.29-3.75Z"/>
    <path d="M581.36,563.25c-7.87,0-15.99-2.13-24.12-6.32-5.29-2.73-10.35-6.07-15.05-9.93-5.45-4.47-10.13-9.59-13.86-15.19-7.48-11.22-9.79-24.08-6.49-36.19.17-.63.36-1.26.57-1.88,4.71-14.13,11.28-27.8,19.55-40.62,2.15-3.34,4.42-6.58,6.81-9.72-5.17-6.37-9.45-13.4-12.76-20.96-4.45-10.14-6.71-20.71-6.71-31.39,0-9.13.89-18.15,2.66-26.81,1.54-7.58,3.52-15.21,5.89-22.67,2.21-6.96,4.69-13.96,7.38-20.81,2.21-5.61,4.39-11.43,6.48-17.32.13-.36.26-.72.4-1.07,3.34-10.45,11.27-18.8,22.09-23.15,4.19-1.68,8.66-2.55,13.17-2.55,9.07,0,17.6,2.03,25.36,6.04,6.9,3.58,12.92,8.43,17.93,14.44,1.23,1.47,2.38,3,3.46,4.57.95-1.7,1.82-3.29,2.64-4.76,2.88-5.62,6.38-10.78,10.4-15.35,8.92-10.14,21.63-15.72,35.78-15.72,17.41,0,32.56,7.68,42.66,21.63,5.99,8.29,10.44,17.98,13.24,28.82,2.22,8.63,3.67,17.53,4.32,26.48.57,7.87.84,14.24.84,19.49,0,10.18-.8,21.73-2.37,34.33-1.56,12.48-3.98,25.43-7.19,38.5-3.29,13.4-7.61,26.68-12.82,39.49-5.69,13.96-12.73,26.66-20.93,37.77-9.05,12.25-19.79,22.38-31.93,30.09-14.21,9.02-30.3,13.6-47.84,13.6-5.36,0-10.31-.39-14.9-1.08-6.78,5.27-15.34,8.27-24.65,8.27ZM619.98,321.58c-.03.12-.06.24-.09.35-.03.11-.06.22-.09.33.06-.22.12-.45.17-.68ZM667.95,313.44h.02-.02Z"/>
  </g>
  <g>
    <path d="M688,355.12c0-4.39,2.94-8.73,8.84-13.03,5.89-4.29,13.38-8.39,22.47-12.28,9.09-3.9,19.12-7.49,30.11-10.79,10.98-3.3,21.62-6.14,31.91-8.54,10.28-2.4,19.57-4.24,27.86-5.54,8.29-1.3,14.23-1.95,17.83-1.95,8.58,0,15.88,1.85,21.87,5.54,5.99,3.7,10.93,8.54,14.83,14.53,3.9,5.99,6.74,12.73,8.54,20.22,1.8,7.49,2.7,15.03,2.7,22.62,0,1.6-.55,2.55-1.65,2.85-1.1.3-2.35.45-3.74.45-3.6,0-6.84-.7-9.74-2.1-2.9-1.4-5.44-3.29-7.64-5.69-2.2-2.4-4.1-5.09-5.69-8.09-1.6-3-3-5.99-4.19-8.99-7.99,0-15.98.8-23.97,2.4-7.99,1.6-15.78,3.3-23.37,5.09,0,24.17.1,47.44.3,69.81.2,22.37.9,45.74,2.1,70.1.2,2.6.7,5.59,1.5,8.99.8,3.4,1.65,6.69,2.55,9.89.9,3.2,1.69,6.04,2.4,8.54.7,2.5,1.05,4.14,1.05,4.94,0,1.6-.5,2.5-1.5,2.7-1,.2-2.2.3-3.59.3-4.79,0-9.49-.2-14.08-.6-4.6-.4-8.69-1.45-12.28-3.15-3.6-1.7-6.59-4.24-8.99-7.64-2.4-3.39-3.89-8.09-4.49-14.08-1.2-12.58-1.95-24.82-2.25-36.7-.3-11.88-.45-23.71-.45-35.5s.1-23.62.3-35.5c.2-11.88.3-24.21.3-37-7.59,2.4-15.18,4.9-22.77,7.49-7.59,2.6-14.88,5.89-21.87,9.89v2.4c1.6,3.2,2.85,6.44,3.75,9.74.9,3.29,1.35,6.64,1.35,10.04,0,1-.05,2.5-.15,4.49-.1,2-.95,3-2.55,3-3.8,0-7.34-1.95-10.64-5.84-3.3-3.89-6.19-8.54-8.69-13.93-2.5-5.39-4.49-10.83-5.99-16.33-1.5-5.49-2.25-9.74-2.25-12.73Z"/>
    <path d="M799.75,562.38c-5.77,0-11.54-.25-17.13-.73-8.76-.77-16.92-2.91-24.28-6.38-9.19-4.34-16.85-10.8-22.78-19.22-5.93-8.4-9.56-18.81-10.77-30.92l-.02-.17c-1.27-13.34-2.08-26.52-2.39-39.16-.23-9.01-.37-18.08-.43-27.08-2.07.34-4.2.52-6.38.52-14.23,0-27.58-6.51-37.58-18.34-5.33-6.29-9.96-13.67-13.78-21.91-3.3-7.12-6-14.48-8.01-21.86-2.38-8.72-3.49-15.72-3.49-22.02,0-11.19,4.05-27.49,23.34-41.55,8.12-5.92,17.73-11.22,29.36-16.21,10.26-4.4,21.66-8.49,33.87-12.15,11.62-3.49,23.07-6.55,34.04-9.11,11.01-2.57,21.23-4.6,30.39-6.04,10.5-1.64,17.68-2.37,23.3-2.37,15.18,0,28.77,3.63,40.39,10.79,10.46,6.45,19.17,14.98,25.9,25.34,6.07,9.34,10.54,19.84,13.27,31.22,2.44,10.15,3.67,20.53,3.67,30.86,0,17.54-11.1,32.36-27.61,36.89-4.17,1.14-8.55,1.7-13.08,1.7-8.96,0-17.4-1.89-25.11-5.62-5.12-2.47-9.86-5.65-14.11-9.47.05,10.9.12,21.56.21,31.91.19,21.51.87,44.38,2.02,68,.05.45.21,1.51.63,3.31.67,2.86,1.39,5.67,2.17,8.42l2.4,8.54c1.24,4.44,2.37,9.21,2.37,14.51,0,18.41-12.26,33.75-29.81,37.3l-.2.04c-3.29.64-6.68.96-10.38.96Z"/>
  </g>
  <g>
    <path d="M982.43,284.12c1.6-2.4,3.89-3.69,6.89-3.89,3-.2,6.39.2,10.19,1.2,3.79,1,7.64,2.4,11.53,4.19,3.89,1.8,7.34,3.5,10.34,5.09-4.6,13.78-7.74,27.71-9.44,41.79-1.7,14.08-3.55,28.31-5.54,42.69v2.4h8.99c7.79,0,12.93,2.15,15.43,6.44,2.49,4.3,3.75,10.04,3.75,17.23v2.4c0,1.2-.1,2.4-.3,3.6-.2,1.2-.4,2.3-.6,3.29-.2,1-.6,1.5-1.2,1.5l-28.16.3c-.2,10.78-.35,20.87-.45,30.26-.1,9.39.05,18.53.45,27.41.4,8.89,1.15,17.78,2.25,26.66,1.1,8.89,2.64,18.13,4.64,27.71.6,2.8.1,4.79-1.5,5.99-1.6,1.2-3.65,1.95-6.14,2.25-2.5.3-5.09.4-7.79.3-2.7-.1-4.84-.15-6.44-.15-4.4.2-8.09-2-11.08-6.59-3-4.6-5.5-10.59-7.49-17.98-2-7.39-3.55-15.63-4.64-24.72-1.1-9.09-1.9-17.98-2.4-26.66-.5-8.69-.8-16.67-.9-23.97-.1-7.29-.05-12.73.15-16.33-6.39.2-11.98.55-16.78,1.05-4.79.5-9.09,1.15-12.88,1.95-3.8.8-7.29,1.65-10.49,2.55-3.2.9-6.59,1.85-10.19,2.85l-4.49,56.32c-.2,1.8-2.4,2.9-6.59,3.3-4.19.4-8.79.2-13.78-.6-4.99-.8-9.59-2.14-13.78-4.04-4.19-1.9-6.39-4.24-6.59-7.04,0-2.2.15-4.74.45-7.64.3-2.89.7-5.89,1.2-8.99.5-3.09,1-6.24,1.5-9.44.5-3.19.95-6.09,1.35-8.69-1.6,0-3.55.5-5.84,1.5-2.3,1-3.95,2-4.94,3-2.4-1.6-4.99-3.99-7.79-7.19-2.8-3.19-5.14-6.44-7.04-9.74-1.9-3.3-3.05-6.44-3.45-9.44-.4-3,.6-5.09,3-6.29,3-1.6,5.64-2.94,7.94-4.04,2.29-1.1,4.49-2.1,6.59-3,2.1-.9,4.24-1.8,6.44-2.7,2.2-.9,4.59-1.95,7.19-3.15l3.3-82.99c0-1.99,2.05-3.24,6.14-3.75,4.09-.5,8.54-.4,13.33.3,4.79.7,9.18,2.05,13.18,4.04,3.99,2,5.99,4.6,5.99,7.79l-1.2,61.42c3.39-.8,7.54-1.6,12.43-2.4,4.89-.8,9.93-1.5,15.13-2.1,5.19-.6,10.23-1.1,15.13-1.5,4.89-.4,8.94-.5,12.13-.3,0-1,.15-3.75.45-8.24.3-4.49.7-9.89,1.2-16.18.5-6.29,1.15-13.13,1.95-20.52.8-7.39,1.65-14.43,2.55-21.12.9-6.69,1.95-12.53,3.15-17.53,1.2-4.99,2.4-8.29,3.6-9.89Z"/>
    <path d="M997.73,568.26c-1.08,0-2.16-.02-3.25-.06-2.38-.09-3.87-.12-4.71-.12-16.47.34-31.47-7.84-41.1-22.61-5.09-7.81-9.01-16.98-12-28.06-.99-3.66-1.89-7.49-2.7-11.47-6.16,6.99-15.6,12.46-29.09,13.75-7.12.68-14.78.39-22.71-.89-8.03-1.28-15.7-3.55-22.75-6.74-22.98-10.39-26.7-29.13-27.24-36.71l-.09-1.24v-1.24c0-2.57.12-5.28.35-8.22-1.91-1.82-3.81-3.82-5.72-6-4.27-4.87-8.01-10.06-11.06-15.37-4.19-7.26-6.83-14.8-7.84-22.39-2.37-17.64,6.1-34.16,21.63-42.21,3.41-1.81,6.38-3.32,9.06-4.61.36-.17.71-.34,1.06-.5l2.42-60.88c.64-16.16,12.32-34.35,37.13-37.38,7.21-.88,14.84-.74,22.7.41,8.51,1.25,16.52,3.73,23.85,7.39,6.78,3.39,12.39,7.99,16.62,13.42.67-3.82,1.41-7.39,2.22-10.75,2.34-9.73,5.07-16.39,9.07-21.99,7.68-11.03,19.79-17.85,33.37-18.77,6.84-.45,14.06.32,21.52,2.27,5.84,1.54,11.66,3.65,17.37,6.29,4.46,2.06,8.55,4.07,12.14,5.99l26.32,14.03-9.44,28.29c-3.82,11.46-6.47,23.18-7.88,34.84-.53,4.38-1.08,8.81-1.64,13.26,8.24,5.03,13.2,11.52,15.97,16.29,5.67,9.77,8.54,21.53,8.54,34.98v2.4c0,3.07-.26,6.2-.76,9.29-.28,1.71-.55,3.15-.81,4.46-3.08,15.37-14.64,26.66-29.16,29.33-.02,7.4.13,14.67.44,21.68.36,7.95,1.03,15.99,2.01,23.92.97,7.87,2.37,16.2,4.15,24.77,3.42,16.16-2.26,32.06-14.85,41.5-6.64,4.97-14.41,8.01-23.11,9.06-3.27.39-6.63.59-10.04.59ZM976.66,531.75v.04s0-.04,0-.04Z"/>
  </g>
  <g>
    <path d="M1215.77,342.33c3.01,4.78,5.42,9.27,7.23,13.46,1.81,4.19,3.07,8.38,3.78,12.57.71,4.19.92,8.54.64,13.03-.29,4.49-1.02,9.54-2.2,15.14-1.77,8.39-4.85,17.19-9.21,26.39-4.37,9.2-9.79,18.3-16.25,27.31-6.47,9.01-13.69,17.57-21.65,25.68-7.97,8.11-16.34,15.28-25.11,21.49-8.77,6.22-17.85,11.19-27.22,14.91-9.38,3.72-18.56,5.59-27.55,5.62-9.99.03-19.58-1.84-28.78-5.61-9.2-3.77-17.36-8.94-24.46-15.51-7.11-6.57-12.82-14.29-17.14-23.17-4.32-8.87-6.6-18.41-6.82-28.59-.24-12.38,2.03-24.87,6.79-37.47,4.76-12.6,10.87-24.6,18.32-36,7.46-11.4,15.71-21.96,24.78-31.68,9.06-9.71,17.78-17.88,26.15-24.49,1.2-1,2.89-1.06,5.09-.16,2.2.89,4.6,2.14,7.2,3.72,2.6,1.59,5.15,3.38,7.65,5.37,2.5,1.99,4.75,3.68,6.76,5.07h.3s-7.21-8.67-7.21-8.67c.59-3.39,3.92-6.25,10.01-8.57,6.08-2.31,13.62-3.48,22.61-3.51,5.59-.02,11.43.57,17.53,1.75,6.09,1.18,12.09,3.07,17.99,5.64,5.9,2.58,11.5,6.01,16.81,10.29,5.3,4.28,9.96,9.61,13.98,15.99ZM1064.29,487.76c2.4,1.19,5.2,1.78,8.39,1.77,6.19-.02,13.27-2.08,21.25-6.2,7.97-4.11,16.25-9.68,24.82-16.7,8.57-7.01,17.03-15.13,25.4-24.34,8.36-9.21,15.98-18.87,22.84-28.97,6.86-10.1,12.57-20.41,17.14-30.91,4.56-10.5,7.23-20.44,8.01-29.83.39-4.39-.52-7.44-2.72-9.13-2.2-1.69-5-2.53-8.4-2.52-3,0-6.24.47-9.73,1.38-3.49.91-6.94,2.02-10.33,3.32-3.39,1.31-6.48,2.67-9.28,4.07-2.8,1.41-4.99,2.51-6.58,3.31-1.2.6-2.5.46-3.9-.44-1.4-.89-2.7-2.19-3.91-3.88-1.2-1.69-2.41-3.49-3.61-5.38-1.2-1.89-2.31-3.54-3.31-4.93-4.19,2.81-8.12,6.07-11.81,9.77-3.69,3.71-7.22,7.36-10.6,10.97-2.39,2.6-5.77,7.21-10.15,13.81-4.38,6.6-9.05,14.26-14.02,22.96-4.97,8.7-9.69,17.9-14.15,27.6-4.47,9.7-7.94,18.85-10.41,27.44-2.48,8.6-3.5,16.24-3.08,22.93.42,6.69,3.13,11.33,8.13,13.91Z"/>
    <path d="M1098.33,553.21c-14.6.04-28.82-2.73-42.27-8.25-13.06-5.34-24.85-12.83-35.03-22.25-10.31-9.52-18.69-20.85-24.92-33.65-6.54-13.42-10.03-27.98-10.37-43.25-.32-16.93,2.72-33.95,9.05-50.72,5.65-14.94,12.98-29.36,21.81-42.85,8.52-13.04,18.12-25.3,28.51-36.44,10.16-10.89,20.21-20.29,29.87-27.94,9.92-7.99,22.8-10.5,35.4-7.05,1.26-.57,2.57-1.11,3.94-1.64,10.21-3.88,21.67-5.78,35.06-5.81,7.84-.02,16.03.78,24.34,2.39,8.6,1.67,17.15,4.34,25.41,7.95,8.77,3.84,17.11,8.93,24.83,15.15,8.34,6.74,15.63,15.03,21.69,24.67h0c3.96,6.3,7.24,12.45,9.76,18.27,2.91,6.74,4.99,13.68,6.17,20.64,1.17,6.91,1.52,14.03,1.06,21.21-.39,6.16-1.37,12.95-2.9,20.18-2.34,11.05-6.33,22.56-11.86,34.22-5.25,11.06-11.8,22.08-19.46,32.76-7.48,10.42-15.94,20.46-25.14,29.82-9.41,9.58-19.47,18.18-29.89,25.57-11.02,7.81-22.67,14.17-34.61,18.91-13.45,5.34-27.07,8.07-40.47,8.11ZM1181.37,376.21h0,0Z"/>
  </g>
  <g>
    <path d="M1340.59,335.21c1.22-3.22,3.96-4.53,8.22-3.92,4.25.61,8.73,1.93,13.43,3.94,4.69,2.02,8.89,4.29,12.57,6.82,3.68,2.53,5.35,4.18,5.01,4.92-10.63,30.1-19.11,59.59-25.44,88.47-6.33,28.89-11.25,58.35-14.75,88.38-.29,2.59-2.57,4.69-6.85,6.32-4.28,1.62-9.03,2.55-14.25,2.77s-10.18-.21-14.85-1.31c-4.67-1.09-7.66-2.99-8.98-5.68l-39.83-80.51c-2.06,6.52-3.72,12.81-4.98,18.87-1.26,6.06-2.34,11.96-3.23,17.68-.89,5.73-1.76,11.36-2.62,16.89-.86,5.53-2.1,10.99-3.74,16.37-.53,1.73-1.95,3.03-4.26,3.91-2.3.89-5.1,1.42-8.39,1.6-3.29.19-6.73.09-10.31-.29-3.59-.38-6.88-.96-9.89-1.74-3.01-.78-5.35-1.79-7.05-3.02-1.7-1.24-2.31-2.52-1.85-3.86,4.04-12.65,7.86-26.25,11.46-40.82,3.59-14.56,6.77-29.31,9.52-44.24,2.75-14.93,5.16-29.67,7.23-44.22,2.06-14.55,3.61-28.23,4.64-41.05.14-1.8,2.13-3.15,5.96-4.05,3.83-.89,8.1-1.15,12.8-.76,4.7.39,9.17,1.5,13.4,3.32,4.23,1.83,6.82,4.46,7.79,7.89l34.52,119.45c2.11-13.22,4.27-25.31,6.47-36.28,2.19-10.97,4.67-21.53,7.42-31.67,2.75-10.15,5.83-20.39,9.22-30.72,3.39-10.33,7.26-21.49,11.58-33.47Z"/>
    <path d="M1316.21,568.26c-7.09.02-14-.75-20.6-2.3-19.15-4.48-28.13-16.06-32-23.34-4.16,4.06-9.22,7.3-14.95,9.49-5.66,2.17-12.08,3.48-19.02,3.87-5.13.29-10.52.15-15.99-.43-5.28-.56-10.31-1.45-14.98-2.66-7.48-1.94-13.7-4.78-19.06-8.7-14.14-10.32-19.84-27.26-14.6-43.28,3.76-11.79,7.38-24.69,10.76-38.36,3.41-13.83,6.46-28.03,9.07-42.17,2.65-14.42,5.01-28.82,6.99-42.79,1.95-13.75,3.43-26.84,4.4-38.9,1.06-13.66,10.32-30.25,33.09-35.59,7.44-1.73,15.42-2.26,23.77-1.57,8.52.71,16.75,2.76,24.46,6.09,12.38,5.35,21.5,14.46,26.15,25.95,1.19-3.38,2.42-6.83,3.68-10.33.07-.19.14-.37.21-.56,7.1-18.69,25.69-29.26,46.22-26.32,7.31,1.05,14.81,3.21,22.32,6.43,6.85,2.94,13.12,6.36,18.68,10.19,24.56,16.89,21.43,36.79,18.28,45.76h0c-10.11,28.62-18.26,56.97-24.24,84.28-6.06,27.64-10.83,56.2-14.17,84.91-.85,7.5-5.45,26.14-29.38,35.23-7.8,2.96-16.31,4.65-25.29,5.03-1.28.05-2.55.08-3.81.09ZM1231.97,523.24s0,.03-.01.04c0-.01,0-.03.01-.04ZM1304.58,519.67c0,.06-.01.11-.02.17,0-.06.01-.11.02-.17ZM1326.39,510.39s0,.02.01.03c0,0,0-.02-.01-.03ZM1266.6,344.24c0,.05,0,.11-.01.16,0-.06,0-.11.01-.16ZM1347.69,332.36c-.52,1.15-.97,2.3-1.36,3.44.07-.19.14-.38.2-.58.34-.97.73-1.93,1.15-2.86ZM1347.71,332.31s-.01.02-.02.03c0-.01.01-.02.02-.03Z"/>
  </g>
  <path class="cls-1" d="M347.98,364.72c-1.09-1.38-.23-4.15,2.57-8.31,2.8-4.15,7.14-9.03,13.02-14.64,5.88-5.6,13.04-11.56,21.46-17.87,8.42-6.31,17.66-12.3,27.72-17.97,10.06-5.67,20.71-10.66,31.96-14.97,11.25-4.31,22.48-7.29,33.68-8.95,8.83-1.31,17.68-1.73,26.56-1.29,8.87.45,17.47,1.99,25.78,4.61,8.31,2.62,16.12,6.31,23.43,11.06,7.31,4.75,13.7,10.8,19.19,18.13,3.56,4.76,6.68,9.86,9.36,15.29,2.67,5.44,4.44,11.07,5.3,16.88,1.34,9.05.69,17.29-1.96,24.73-2.65,7.44-6.67,14.09-12.07,19.95-5.41,5.87-11.8,11.05-19.16,15.55-7.37,4.51-15.17,8.35-23.39,11.55-8.23,3.2-16.48,5.8-24.77,7.79-8.29,2-15.99,3.52-23.1,4.57l7.04,87.78c.22,1.5-.68,2.85-2.71,4.03-2.03,1.18-4.57,2.21-7.63,3.11-3.06.89-6.38,1.49-9.97,1.81-3.59.31-7,.32-10.23.03-3.24-.29-5.98-.99-8.23-2.08-2.26-1.1-3.54-2.73-3.86-4.88-.8-5.38-1.61-13.08-2.43-23.09-.82-10-1.65-21.16-2.48-33.48-.83-12.31-1.63-25.13-2.39-38.45-.76-13.31-1.46-25.87-2.11-37.66-.65-11.79-1.14-22.23-1.5-31.31-.35-9.08-.61-15.6-.74-19.54-5.1,2.74-10.57,5.97-16.4,9.69-5.84,3.73-10.97,7.35-15.4,10.86-4.43,3.52-7.81,6.72-10.14,9.59-2.33,2.88-2.75,4.86-1.26,5.97,7.14,5.11,12.9,10.2,17.28,15.27,4.38,5.08,7.81,10.73,10.27,16.97,2.46,6.24,4.03,13.49,4.71,21.76.67,8.27.98,18.13.91,29.58-.03,1.32-2.16,2.52-6.4,3.59-4.25,1.07-8.95,1.65-14.1,1.76-5.16.1-9.98-.5-14.47-1.82-4.49-1.32-6.86-3.61-7.13-6.87-.98-11.08-2.16-20.21-3.56-27.38-1.39-7.17-3.36-13.75-5.9-19.77-2.54-6.01-5.93-12.17-10.16-18.47-4.24-6.31-9.78-14.02-16.63-23.13ZM457.61,326.7c4.04.51,7.7,1.5,11.01,2.99,3.3,1.49,5.78,4.1,7.43,7.82.62,1.23,1.19,4.67,1.69,10.32.51,5.65.97,11.8,1.41,18.45.43,6.65.87,12.97,1.32,18.96.44,5.99.8,9.85,1.05,11.57,15.29-2.26,29.25-7.96,41.88-17.09,12.63-9.13,22.56-20.51,29.79-34.13.82-1.88,1.83-4.01,3.02-6.39,1.19-2.37,1.73-4.66,1.63-6.85-5.04-4.32-11.89-7.43-20.54-9.34-8.65-1.91-17.76-2.87-27.34-2.89-9.58-.01-19.06.62-28.45,1.9-9.39,1.28-17.36,2.85-23.91,4.69Z"/>
  <path class="cls-1" d="M709.11,350.71c0-4.19,2.81-8.34,8.44-12.44,5.62-4.1,12.77-8.01,21.45-11.73,8.67-3.72,18.25-7.15,28.74-10.3,10.48-3.15,20.64-5.86,30.46-8.15,9.82-2.29,18.68-4.05,26.6-5.29,7.91-1.24,13.58-1.86,17.02-1.86,8.2,0,15.16,1.76,20.88,5.29,5.72,3.53,10.44,8.15,14.16,13.87,3.72,5.72,6.44,12.15,8.15,19.3,1.72,7.15,2.57,14.35,2.57,21.59,0,1.53-.53,2.43-1.57,2.72-1.05.29-2.24.43-3.57.43-3.43,0-6.53-.67-9.3-2-2.77-1.33-5.2-3.15-7.29-5.43-2.1-2.29-3.91-4.86-5.43-7.72-1.53-2.86-2.86-5.72-4-8.58-7.63,0-15.26.76-22.88,2.29-7.63,1.53-15.06,3.15-22.31,4.86,0,23.07.09,45.29.29,66.64.19,21.36.86,43.66,2,66.92.19,2.48.67,5.34,1.43,8.58.76,3.24,1.57,6.39,2.43,9.44.86,3.05,1.62,5.77,2.29,8.15.67,2.38,1,3.95,1,4.72,0,1.52-.48,2.38-1.43,2.57-.96.19-2.1.29-3.43.29-4.58,0-9.06-.19-13.44-.57-4.39-.38-8.29-1.39-11.73-3-3.43-1.62-6.29-4.05-8.58-7.29-2.29-3.24-3.72-7.72-4.29-13.44-1.14-12.01-1.86-23.69-2.14-35.04-.29-11.34-.43-22.64-.43-33.89s.09-22.55.29-33.89c.19-11.34.29-23.12.29-35.32-7.25,2.29-14.49,4.67-21.74,7.15-7.25,2.48-14.21,5.63-20.88,9.44v2.29c1.52,3.05,2.72,6.15,3.58,9.3.86,3.15,1.29,6.34,1.29,9.58,0,.96-.05,2.39-.14,4.29-.1,1.91-.91,2.86-2.43,2.86-3.62,0-7.01-1.86-10.15-5.58-3.15-3.72-5.91-8.15-8.29-13.3-2.39-5.15-4.29-10.34-5.72-15.59-1.43-5.24-2.15-9.3-2.15-12.15Z"/>
  <path class="cls-1" d="M992.79,279.17c1.52-2.29,3.72-3.53,6.58-3.72,2.86-.19,6.1.19,9.72,1.14,3.62.96,7.29,2.29,11.01,4,3.72,1.72,7.01,3.34,9.87,4.86-4.39,13.16-7.39,26.45-9.01,39.9-1.62,13.44-3.39,27.03-5.29,40.75v2.29h8.58c7.44,0,12.34,2.05,14.73,6.15,2.38,4.1,3.58,9.58,3.58,16.45v2.29c0,1.14-.1,2.29-.29,3.43-.19,1.14-.38,2.19-.57,3.15-.19.96-.57,1.43-1.14,1.43l-26.88.29c-.19,10.3-.34,19.93-.43,28.89-.1,8.96.04,17.69.43,26.17.38,8.49,1.09,16.97,2.15,25.45,1.05,8.48,2.52,17.3,4.43,26.45.57,2.67.09,4.58-1.43,5.72-1.53,1.14-3.48,1.86-5.86,2.15-2.39.29-4.86.38-7.44.29-2.57-.1-4.63-.14-6.15-.14-4.2.19-7.72-1.91-10.58-6.29-2.86-4.39-5.25-10.11-7.15-17.16-1.91-7.05-3.39-14.92-4.43-23.59-1.05-8.67-1.81-17.16-2.29-25.45-.48-8.29-.76-15.92-.86-22.88-.1-6.96-.05-12.15.14-15.59-6.1.19-11.44.53-16.02,1-4.58.48-8.68,1.1-12.3,1.86-3.62.76-6.96,1.57-10.01,2.43-3.05.86-6.29,1.76-9.72,2.72l-4.29,53.77c-.19,1.72-2.29,2.77-6.29,3.15-4,.38-8.39.19-13.16-.57-4.77-.76-9.15-2.05-13.16-3.86-4-1.81-6.1-4.05-6.29-6.72,0-2.1.14-4.53.43-7.29.29-2.76.67-5.62,1.14-8.58.47-2.95.95-5.96,1.43-9.01.47-3.05.9-5.81,1.29-8.29-1.53,0-3.39.48-5.58,1.43-2.19.96-3.77,1.91-4.72,2.86-2.29-1.52-4.77-3.81-7.44-6.86-2.67-3.05-4.91-6.15-6.72-9.3-1.81-3.15-2.91-6.15-3.29-9.01-.38-2.86.57-4.86,2.86-6.01,2.86-1.52,5.38-2.81,7.58-3.86,2.19-1.05,4.29-2,6.29-2.86,2-.86,4.05-1.72,6.15-2.57,2.1-.86,4.38-1.86,6.86-3l3.15-79.22c0-1.9,1.95-3.1,5.86-3.58,3.91-.47,8.15-.38,12.73.29,4.58.67,8.77,1.96,12.58,3.86,3.81,1.91,5.72,4.39,5.72,7.44l-1.14,58.63c3.24-.76,7.19-1.52,11.87-2.29,4.67-.76,9.48-1.43,14.44-2,4.96-.57,9.77-1.05,14.44-1.43,4.67-.38,8.53-.47,11.58-.29,0-.95.14-3.58.43-7.86.29-4.29.67-9.44,1.14-15.44.47-6.01,1.09-12.54,1.86-19.59.76-7.05,1.57-13.77,2.43-20.16.86-6.39,1.86-11.96,3-16.73,1.14-4.76,2.29-7.91,3.43-9.44Z"/>
  <path class="cls-1" d="M1224.72,338.35c2.87,4.57,5.17,8.85,6.9,12.85,1.73,4,2.93,8,3.61,12,.68,4,.88,8.15.61,12.44-.27,4.29-.97,9.11-2.1,14.45-1.69,8.01-4.63,16.41-8.8,25.19-4.17,8.78-9.34,17.47-15.51,26.07-6.17,8.6-13.06,16.77-20.67,24.51-7.61,7.74-15.6,14.58-23.97,20.52-8.38,5.94-17.04,10.68-25.99,14.23-8.95,3.56-17.72,5.34-26.3,5.36-9.54.03-18.69-1.76-27.47-5.36-8.78-3.6-16.57-8.53-23.35-14.81-6.79-6.27-12.24-13.64-16.36-22.12-4.13-8.47-6.3-17.57-6.51-27.29-.23-11.82,1.94-23.74,6.48-35.77,4.54-12.03,10.37-23.48,17.49-34.37,7.12-10.89,15-20.96,23.65-30.24,8.65-9.27,16.97-17.06,24.96-23.38,1.14-.95,2.76-1.01,4.86-.16,2.1.85,4.39,2.04,6.87,3.56,2.48,1.52,4.92,3.23,7.31,5.13,2.39,1.9,4.54,3.52,6.45,4.84h.29s-6.89-8.28-6.89-8.28c.56-3.24,3.75-5.97,9.56-8.18,5.81-2.21,13-3.33,21.58-3.35,5.34-.02,10.91.54,16.74,1.67,5.82,1.13,11.54,2.93,17.17,5.39,5.63,2.46,10.98,5.74,16.04,9.82,5.06,4.09,9.51,9.17,13.34,15.26ZM1080.11,477.18c2.29,1.14,4.96,1.7,8.01,1.69,5.91-.02,12.67-1.99,20.29-5.92,7.61-3.93,15.51-9.24,23.69-15.94,8.18-6.7,16.26-14.44,24.24-23.23,7.98-8.79,15.25-18.01,21.8-27.66,6.55-9.64,12-19.48,16.36-29.5,4.36-10.02,6.9-19.51,7.64-28.48.37-4.19-.5-7.1-2.6-8.72-2.1-1.61-4.77-2.42-8.01-2.41-2.86,0-5.96.45-9.29,1.31-3.34.87-6.62,1.93-9.86,3.17-3.24,1.25-6.19,2.55-8.86,3.89-2.67,1.34-4.76,2.4-6.28,3.16-1.14.57-2.38.44-3.72-.42-1.34-.85-2.58-2.09-3.73-3.71-1.15-1.61-2.3-3.33-3.45-5.14-1.15-1.81-2.2-3.38-3.16-4.71-4,2.68-7.75,5.79-11.27,9.33-3.52,3.54-6.89,7.03-10.12,10.47-2.28,2.49-5.51,6.88-9.69,13.18-4.18,6.3-8.64,13.61-13.38,21.92-4.74,8.31-9.25,17.09-13.51,26.35-4.26,9.26-7.58,17.99-9.94,26.2-2.36,8.21-3.34,15.5-2.94,21.89.4,6.39,2.98,10.81,7.76,13.28Z"/>
  <path class="cls-1" d="M1354.51,335.59c1.17-3.08,3.78-4.32,7.85-3.74,4.06.58,8.33,1.84,12.82,3.76,4.48,1.93,8.48,4.1,12,6.51,3.51,2.42,5.11,3.99,4.78,4.7-10.15,28.73-18.25,56.89-24.29,84.46-6.05,27.58-10.74,55.7-14.08,84.37-.28,2.47-2.46,4.48-6.54,6.03-4.08,1.55-8.62,2.43-13.61,2.64s-9.72-.2-14.17-1.25c-4.46-1.04-7.32-2.85-8.57-5.42l-38.02-76.85c-1.97,6.23-3.55,12.23-4.75,18.02-1.21,5.79-2.23,11.42-3.08,16.88-.85,5.47-1.68,10.84-2.5,16.12-.82,5.28-2,10.49-3.57,15.62-.51,1.65-1.86,2.9-4.06,3.74-2.2.85-4.87,1.35-8.01,1.53-3.14.18-6.42.08-9.85-.28-3.43-.36-6.57-.92-9.44-1.66-2.87-.74-5.11-1.7-6.73-2.89-1.62-1.18-2.21-2.41-1.77-3.69,3.86-12.07,7.5-25.06,10.94-38.96,3.43-13.9,6.46-27.98,9.09-42.23,2.62-14.25,4.92-28.32,6.9-42.21,1.97-13.89,3.45-26.95,4.43-39.19.13-1.72,2.03-3.01,5.69-3.86,3.66-.85,7.73-1.09,12.22-.72,4.49.37,8.75,1.43,12.79,3.17,4.03,1.74,6.51,4.26,7.44,7.54l32.96,114.03c2.02-12.62,4.08-24.16,6.18-34.63,2.1-10.47,4.46-20.55,7.09-30.24,2.62-9.69,5.56-19.47,8.81-29.33,3.24-9.86,6.93-20.51,11.05-31.95Z"/>
  <g>
    <g>
      <path d="M421.55,567c1.82,1.43,3.15,3.06,4,4.88.84,1.82,2.05,3.45,3.61,4.88.91.78,1.79,1.63,2.63,2.54.84.91,1.72,1.82,2.63,2.73,4.16,4.56,9.24,8.49,15.22,11.81,5.98,3.32,12.29,6.21,18.93,8.68,6.63,2.47,13.33,4.62,20.1,6.44,6.76,1.82,13.01,3.51,18.73,5.07,5.46,1.56,8.78,4.2,9.95,7.9,1.17,3.71,1.43,7.97.78,12.78-.13,1.17-.78,2.24-1.95,3.22-1.17.98-2.54,1.82-4.1,2.54-1.56.72-3.12,1.3-4.68,1.76-1.56.46-2.86.81-3.9,1.07,3.64,1.17,7.41,2.93,11.32,5.27,3.9,2.34,7.41,5.11,10.54,8.29,3.12,3.19,5.59,6.77,7.41,10.73,1.82,3.97,2.41,8.1,1.76,12.39-.78,5.85-2.8,11.35-6.05,16.49-3.25,5.14-7.29,9.89-12.1,14.25-4.81,4.36-10.24,8.2-16.29,11.51-6.05,3.32-12.26,6.05-18.63,8.2-6.38,2.15-12.68,3.64-18.93,4.49-6.24.84-12.03.88-17.37.1-4.95-.65-8.85-1.63-11.71-2.93-2.86-1.3-5.04-3.06-6.54-5.27-1.5-2.21-2.57-4.98-3.22-8.29-.65-3.32-1.17-7.25-1.56-11.81l13.27,1.76c-.39-.78-.75-2.7-1.07-5.76-.33-3.06-.62-6.41-.88-10.05-.26-3.64-.52-7.12-.78-10.44-.26-3.32-.39-5.56-.39-6.73-1.82.65-3.29.91-4.39.78-1.11-.13-2.57-.32-4.39-.59-1.04-.13-2.15-.94-3.32-2.44-1.17-1.49-2.24-3.22-3.22-5.17-.98-1.95-1.76-3.9-2.34-5.85s-.81-3.38-.68-4.29l18.93-9.17,5.66-42.54c-2.47-2.34-4.85-5.04-7.12-8.1-2.28-3.06-4.2-6.31-5.76-9.76-1.56-3.45-2.73-6.99-3.51-10.63-.78-3.64-.98-7.22-.59-10.73ZM459.4,707.3c4.94-.78,10.37-2.24,16.29-4.39,5.92-2.15,11.71-4.78,17.37-7.9,5.66-3.12,10.93-6.6,15.81-10.44,4.88-3.84,8.75-7.9,11.61-12.2-7.94-4.03-16-6.63-24.2-7.81-6.24-.91-12.46-1.14-18.64-.68-6.18.46-12.39,1.01-18.63,1.66-.91,7.29-1.07,14.28-.49,20.98.59,6.7.88,13.63.88,20.78ZM459.99,636.07l16.2-9.95-14.24-4.88-1.95,14.83Z"/>
      <path d="M453.15,762.22c-4,0-7.9-.27-11.66-.81-7.55-1.01-13.78-2.66-19.05-5.06-7.41-3.37-13.33-8.28-17.61-14.62-3.5-5.16-5.96-11.26-7.29-18.1-.84-4.27-1.48-9.07-1.96-14.65-.54-6.37,1.22-12.66,4.88-17.78-.43-.49-.85-1.01-1.27-1.54-2.24-2.86-4.28-6.12-6.06-9.66-1.66-3.32-3.02-6.72-4.04-10.13-1.1-3.67-2.46-9.3-1.54-15.74,1.26-8.77,6.79-16.34,14.76-20.2l6.02-2.92,2.17-16.34c-.16-.22-.33-.44-.49-.65-3.4-4.56-6.31-9.5-8.66-14.68-2.33-5.15-4.11-10.55-5.29-16.04-1.38-6.43-1.72-12.91-1.01-19.27,1.07-9.62,7.27-17.9,16.2-21.64,8.93-3.74,19.18-2.34,26.79,3.64,4.43,3.49,7.97,7.63,10.54,12.33.92.87,1.82,1.77,2.69,2.71.68.74,1.32,1.39,1.97,2.05.29.29.58.59.86.9,2.19,2.39,5.03,4.57,8.46,6.47,4.8,2.66,9.95,5.02,15.31,7.02,5.85,2.18,11.8,4.09,17.72,5.68,6.8,1.83,13.07,3.53,18.82,5.1.1.03.21.06.31.09,19.12,5.46,25.78,18.32,28.05,25.5,2.34,7.41,2.95,15.56,1.8,24.21-.01.08-.02.17-.03.25,5.19,5.34,9.38,11.43,12.45,18.11,3.99,8.69,5.31,17.86,3.93,27.26-1.31,9.59-4.65,18.67-9.92,27-4.53,7.15-10.16,13.8-16.73,19.75-6.33,5.73-13.52,10.82-21.37,15.13-7.39,4.05-15.11,7.44-22.94,10.08-7.93,2.67-15.96,4.57-23.85,5.64-4.42.6-8.76.9-12.96.9ZM426.88,649.24h0,0ZM426.83,649.24h.02s-.01,0-.02,0ZM426.76,649.23s.04,0,.06,0c-.02,0-.04,0-.06,0ZM449.69,560.57s.02.04.03.05c0-.02-.02-.04-.03-.05Z"/>
    </g>
    <g>
      <path d="M569.26,581.44c4.03,4.68,8.52,9.6,13.46,14.73,4.94,5.14,10.15,10.15,15.61,15.03,5.46,4.88,11.02,9.37,16.68,13.46,5.66,4.1,11.15,7.51,16.49,10.24,1.3.65,2.27,1.46,2.93,2.44.65.98,1.07,1.95,1.27,2.93.2.98.16,1.92-.1,2.83-.26.91-.59,1.56-.98,1.95-3.64,3.51-7.51,6.41-11.61,8.68-4.1,2.28-8.42,4.65-12.98,7.12,1.69.91,3.41,1.73,5.17,2.44,1.76.72,3.41,1.59,4.98,2.63,6.89,4.29,12.07,9.79,15.51,16.49,3.45,6.7,5.17,14.08,5.17,22.15,0,4.03-.36,8.36-1.07,12.98-.72,4.62-1.73,9.21-3.02,13.76-1.3,4.55-2.9,8.94-4.78,13.17-1.89,4.23-4,7.97-6.34,11.22-1.04,1.43-2.93,2.05-5.66,1.85-2.73-.2-5.46-.81-8.2-1.85-2.73-1.04-5.04-2.31-6.93-3.81-1.89-1.5-2.57-2.77-2.05-3.8,4.55-9.24,8.62-18.73,12.2-28.49,3.58-9.76,5.37-19.77,5.37-30.05v-3.61c0-1.63-.13-2.76-.39-3.41-.65-1.69-2.73-2.86-6.24-3.51-3.51-.65-7.55-.91-12.1-.78-4.56.13-9.21.59-13.95,1.37-4.75.78-8.68,1.76-11.81,2.93-.52,1.69-.91,4.81-1.17,9.37-.26,4.55-.52,9.37-.78,14.44-.26,5.07-.52,9.85-.78,14.34-.26,4.49-.59,7.58-.98,9.27-.26,1.04-1.89,1.85-4.88,2.44-2.99.59-6.24.84-9.76.78-3.51-.07-6.67-.49-9.46-1.27-2.8-.78-4.07-2.08-3.81-3.9.52-3.51.91-6.6,1.17-9.27.26-2.67.49-5.33.68-8,.2-2.67.39-5.49.59-8.49.2-2.99.36-6.63.49-10.93-.91.52-2.24.98-4,1.37-1.76.39-3.02.91-3.81,1.56-1.69,1.43-3.51,1.24-5.46-.59-1.95-1.82-3.55-4.23-4.78-7.22-1.24-2.99-1.89-6.02-1.95-9.07-.07-3.05.88-5.04,2.83-5.95,1.69-.78,3.19-1.43,4.49-1.95,1.3-.52,2.63-1.04,4-1.56,1.37-.52,2.86-1.07,4.49-1.66,1.63-.59,3.54-1.33,5.76-2.24.52-9.76.36-19.54-.49-29.37-.85-9.82-1.79-19.61-2.83-29.37,0-1.3,1.49-2.24,4.49-2.83,2.99-.59,6.57.16,10.73,2.24-1.69-1.82-3.16-3.67-4.39-5.56-1.24-1.88-2.7-4.13-4.39-6.73-.65-1.04-.26-2.34,1.17-3.9,1.43-1.56,3.22-3.02,5.37-4.39,2.15-1.37,4.29-2.37,6.44-3.02,2.15-.65,3.61-.52,4.39.39ZM577.07,652.27c4.16-2.21,8.55-4.49,13.17-6.83,4.62-2.34,8.81-5.01,12.59-8-5.07-2.6-9.82-5.56-14.25-8.88-4.42-3.32-8.85-6.73-13.27-10.24.52,5.73.94,11.39,1.27,16.98.32,5.6.49,11.25.49,16.98Z"/>
      <path d="M620.89,784.23c-.92,0-1.85-.03-2.79-.1-5.3-.38-10.61-1.56-15.77-3.53-5.29-2.02-10-4.65-14.01-7.83-5.79-4.59-9.29-9.99-10.99-15.48-1.52.48-3.15.9-4.89,1.24-4.82.94-10,1.36-15.35,1.27-5.8-.11-11.22-.87-16.16-2.25-15.75-4.4-25.22-18.12-23.02-33.38.47-3.17.81-5.86,1.03-8.08.01-.11.02-.22.03-.34-1.11-.8-2.18-1.69-3.21-2.65-4.75-4.43-8.53-10-11.23-16.54-2.49-6.01-3.83-12.31-3.96-18.68-.3-13.72,6.5-25.2,18.2-30.66,1.24-.57,2.4-1.09,3.51-1.57-.11-2.93-.29-5.86-.55-8.78-.83-9.67-1.77-19.37-2.78-28.83-.1-.94-.15-1.88-.15-2.82,0-5.76,1.86-12.39,6.38-17.94.86-5.99,3.64-11.84,8.25-16.86,2.97-3.25,6.58-6.24,10.69-8.85,4.17-2.65,8.54-4.69,13-6.04,12.45-3.77,24.53-.59,32.35,8.51h0c3.7,4.3,7.9,8.89,12.46,13.63,4.44,4.62,9.2,9.2,14.16,13.63,4.77,4.26,9.67,8.21,14.56,11.76,4.51,3.27,8.87,5.98,12.94,8.08,5.41,2.74,9.78,6.57,13,11.38,2.62,3.94,4.37,8.13,5.25,12.52,1.02,5.11.81,10.42-.61,15.37-1.35,4.69-3.52,8.74-6.47,12.1,1.71,2.45,3.25,5.01,4.63,7.69,5.39,10.49,8.13,22.04,8.13,34.35,0,5.36-.47,11.09-1.39,17.04-.88,5.7-2.14,11.42-3.74,17.01-1.64,5.73-3.68,11.35-6.06,16.7-2.63,5.9-5.68,11.25-9.06,15.95-6.1,8.37-15.59,12.97-26.4,12.97ZM626.74,759.86c-.03.06-.06.11-.08.17.03-.06.06-.11.08-.17ZM546.1,724.49h0ZM601.73,688.99h0Z"/>
    </g>
    <g>
      <path d="M657.27,626.51c1.43-1.17,4.06-2.8,7.9-4.88,3.84-2.08,8.26-4.42,13.27-7.02,5.01-2.6,10.31-5.24,15.9-7.9,5.59-2.66,10.99-5.1,16.2-7.32,5.2-2.21,9.89-4.1,14.05-5.66,4.16-1.56,7.22-2.47,9.17-2.73,1.82-.26,3.48.95,4.98,3.61,1.49,2.67,2.7,5.73,3.61,9.17.91,3.45,1.43,6.77,1.56,9.95.13,3.19-.39,5.17-1.56,5.95-.13.13-1.01.65-2.63,1.56-1.63.91-3.35,1.89-5.17,2.93-1.82,1.04-3.51,2.05-5.07,3.02-1.56.98-2.34,1.53-2.34,1.66l44.49,103.42c.52,1.17-.2,2.6-2.15,4.29-1.95,1.69-4.33,3.25-7.12,4.68-2.8,1.43-5.53,2.57-8.2,3.41-2.67.84-4.46.94-5.37.29-.52-.39-1.4-1.76-2.63-4.1-1.24-2.34-2.67-5.24-4.29-8.68-1.63-3.45-3.32-7.12-5.07-11.03s-3.45-7.64-5.07-11.22c-1.63-3.58-3.02-6.73-4.2-9.46-1.17-2.73-2.02-4.55-2.54-5.46-3.38.78-7.48,2.08-12.29,3.9-4.81,1.82-9.63,3.71-14.44,5.66-4.81,1.95-9.21,3.68-13.17,5.17-3.97,1.5-6.8,2.24-8.49,2.24-.91,0-1.37-.26-1.37-.78l-.98-5.85-16.39,20.88c-.52.78-1.43,1.17-2.73,1.17-1.56,0-3.41-.75-5.56-2.24-2.15-1.49-4.07-3.28-5.76-5.37-1.69-2.08-2.96-4.26-3.8-6.54-.85-2.27-.75-4.13.29-5.56l41.56-58.93c-1.82,1.04-3.45,1.89-4.88,2.54-1.3.65-2.44,1.27-3.41,1.85-.98.59-1.53.88-1.66.88-1.3.65-3.09-.16-5.37-2.44-2.28-2.27-4.36-5.07-6.24-8.39-1.89-3.32-3.25-6.63-4.1-9.95-.85-3.32-.49-5.56,1.07-6.73ZM706.83,653.44l-14.83,22.64c1.56-.52,3.32-1.2,5.27-2.05,1.95-.84,3.97-1.72,6.05-2.63,2.08-.91,4.13-1.76,6.15-2.54,2.02-.78,3.81-1.37,5.37-1.76l-8-13.66Z"/>
      <path d="M750.39,772.02c-7.64,0-13.31-2.65-17.11-5.38-.15-.11-.3-.21-.44-.32-5.17-3.87-8.01-8.75-10.27-13.03-1.4-2.65-2.98-5.85-4.82-9.73-1.69-3.58-3.45-7.4-5.28-11.46-.58-1.29-1.16-2.57-1.72-3.82-.83.33-1.66.67-2.48,1-5.07,2.05-9.71,3.87-13.8,5.41-4.68,1.77-8.55,2.89-12.09,3.47l-3.24,4.13c-5.58,7.5-14.25,11.77-24.02,11.77-7.11,0-14.11-2.37-20.81-7.03-4.18-2.9-7.95-6.42-11.21-10.44-3.51-4.31-6.24-9.06-8.1-14.07-3.94-10.55-2.64-21.59,3.57-30.28l21.71-30.78c-1.11-1.62-2.17-3.32-3.17-5.09-3.05-5.35-5.32-10.93-6.75-16.54-3.49-13.65.39-26.4,10.39-34.23,2.78-2.22,6.42-4.52,11.71-7.38,3.98-2.16,8.58-4.59,13.69-7.25,5.26-2.73,10.88-5.53,16.72-8.31,5.9-2.81,11.7-5.43,17.24-7.79,5.57-2.37,10.65-4.41,15.13-6.09,6.22-2.33,10.82-3.62,14.91-4.18,10.04-1.37,23.63,2.36,31.83,16.96,2.6,4.64,4.66,9.81,6.14,15.41,1.4,5.33,2.22,10.59,2.43,15.68.55,13.8-5.01,22-9.96,26.53l35.51,82.55c4.12,9.55,3.87,23.69-9.15,34.99-3.59,3.11-7.76,5.88-12.44,8.27-4.09,2.09-8.22,3.8-12.27,5.1-4.37,1.38-8.32,1.95-11.84,1.95ZM635.71,711.39s0,.01-.02.02c0,0,.01-.02.02-.02ZM635.72,711.37s0,0,0,0c0,0,0,0,0,0ZM701.88,711.15h0s0,0,0,0ZM701.58,707.77h0ZM657.27,626.51h.02-.02ZM737.48,617.39h0,0Z"/>
    </g>
    <g>
      <path d="M817.67,587.68c1.3,0,3.05.75,5.27,2.24,2.21,1.5,4.42,3.25,6.63,5.27,2.21,2.02,4.13,4.07,5.76,6.15,1.63,2.08,2.44,3.77,2.44,5.07,0,4.29-.1,8.62-.29,12.98-.19,4.36-.62,8.62-1.27,12.78-.26,1.3-.59,2.83-.98,4.59-.39,1.76-1.5,2.63-3.32,2.63-1.3,0-2.86-.13-4.68-.39-1.82-.26-3.55-.71-5.17-1.37-1.63-.65-3.02-1.53-4.2-2.63-1.17-1.1-1.76-2.5-1.76-4.2,0-2.47.2-4.78.59-6.93.39-2.15.71-4.65.98-7.51l-41.76,46.05c7.42-2.99,14.96-5.43,22.64-7.32,7.67-1.88,15.48-2.83,23.42-2.83,2.34,0,5.14.52,8.39,1.56,3.25,1.04,6.41,2.51,9.46,4.39,3.05,1.89,5.63,4.07,7.71,6.54,2.08,2.47,3.12,5.07,3.12,7.81,0,7.42-1.95,15.06-5.85,22.93-3.9,7.87-8.95,15.09-15.12,21.66-6.18,6.57-13.11,12.03-20.78,16.39-7.68,4.36-15.35,6.67-23.03,6.93-2.99.13-5.46-.85-7.42-2.93-1.95-2.08-3.35-4.39-4.2-6.93-.85-2.54-1.27-4.91-1.27-7.12s.45-3.38,1.37-3.51c4.42-.65,9.2-2.41,14.34-5.27,5.14-2.86,10.21-6.34,15.22-10.44,5.01-4.1,9.72-8.68,14.15-13.76,4.42-5.07,8.06-10.15,10.93-15.22,1.69-2.99,2.7-5.01,3.02-6.05.32-1.04-.03-1.56-1.07-1.56-.65,0-1.59.16-2.83.49-1.24.33-2.83.81-4.78,1.46-1.43.39-4.16,1.2-8.2,2.44-4.03,1.24-8.56,2.54-13.56,3.9-5.01,1.37-10.08,2.57-15.22,3.61-5.14,1.04-9.6,1.56-13.37,1.56-1.82,0-4.07-.59-6.73-1.76-2.67-1.17-5.2-2.7-7.61-4.59-2.41-1.88-4.46-3.93-6.15-6.15-1.69-2.21-2.54-4.29-2.54-6.24,0-2.73,1.37-6.44,4.1-11.12,2.73-4.68,6.24-9.79,10.54-15.32,4.29-5.53,9.07-11.15,14.34-16.88,5.27-5.72,10.41-10.93,15.42-15.61,5.01-4.68,9.59-8.49,13.76-11.42,4.16-2.93,7.35-4.39,9.56-4.39Z"/>
      <path d="M785.33,767.14c-10.12,0-19.42-3.99-26.33-11.35-4.61-4.92-7.99-10.55-10.05-16.75-1.75-5.23-2.63-10.47-2.63-15.55,0-8.75,2.92-15.63,7.26-20.59-4-1.93-7.83-4.32-11.4-7.12-4.15-3.25-7.83-6.94-10.88-10.95-6.61-8.63-8-16.96-8-22.42,0-7.71,2.46-15.51,7.73-24.55,3.31-5.67,7.51-11.8,12.5-18.23,4.73-6.09,10.04-12.34,15.78-18.58,5.72-6.21,11.38-11.94,16.83-17.04,5.96-5.57,11.4-10.07,16.63-13.75,5.64-3.97,14.36-9.24,24.89-9.24,6.79,0,13.39,2.23,20.18,6.81,3.28,2.22,6.53,4.79,9.67,7.66,3.31,3.02,6.26,6.18,8.79,9.42,5.39,6.91,8.11,14.13,8.11,21.51,0,4.68-.11,9.45-.32,14.17-.24,5.29-.76,10.58-1.56,15.69-.06.39-.13.78-.21,1.17-.22,1.1-.48,2.34-.78,3.73,2.31,1.98,4.43,4.12,6.35,6.39,6.16,7.32,9.4,15.96,9.4,24.99,0,11.53-2.9,23.22-8.63,34.77-5.05,10.18-11.64,19.63-19.59,28.08-7.97,8.47-17.06,15.64-27.03,21.3-11.4,6.47-23.23,9.96-35.18,10.39-.51.02-1.03.03-1.54.03ZM778.41,746.33c-.06.01-.13.02-.2.03.07-.01.13-.02.2-.03ZM784.73,713.84s-.02,0-.02,0c0,0,.02,0,.02,0Z"/>
    </g>
    <g>
      <path d="M862.94,626.9c.26-.78.65-1.23,1.17-1.37.52-.13,1.17-.2,1.95-.2,1.17,0,2.96.2,5.37.59,2.41.39,4.78.91,7.12,1.56,2.34.65,4.42,1.43,6.24,2.34,1.82.91,2.73,1.95,2.73,3.12l-5.66,66.15c3.77-.78,7.09-1.49,9.95-2.15,2.86-.65,6.18-.98,9.95-.98.39,0,.78.75,1.17,2.24.39,1.5.71,3.19.98,5.07.26,1.89.49,3.74.68,5.56.2,1.82.29,3.12.29,3.9,0,2.34-.68,4.1-2.05,5.27s-3.22,2.02-5.56,2.54c-8.2,1.56-16.29,3.51-24.29,5.85-8,2.34-16.29,5.53-24.88,9.56-.39.13-1.3-.65-2.73-2.34-1.43-1.69-2.8-3.64-4.1-5.85-1.3-2.21-2.27-4.45-2.93-6.73-.65-2.27-.39-3.93.78-4.98,1.43-1.17,3.12-2.34,5.07-3.51,1.95-1.17,3.97-2.24,6.05-3.22,2.08-.98,4.13-1.82,6.15-2.54,2.02-.71,3.81-1.27,5.37-1.66l-4.49-4.68c.13-9.24.39-18.28.78-27.12.26-3.77.52-7.74.78-11.9.26-4.16.59-8.26.98-12.29.39-4.03.84-7.97,1.37-11.81.52-3.84,1.1-7.32,1.76-10.44ZM864.5,615.98c-.52-1.04-.65-3.12-.39-6.24.26-3.12.81-6.37,1.66-9.76.84-3.38,1.82-6.41,2.93-9.07,1.1-2.66,2.24-4,3.42-4,.65,0,1.92.29,3.81.88,1.88.59,3.8,1.27,5.76,2.05,1.95.78,3.67,1.59,5.17,2.44,1.49.85,2.24,1.59,2.24,2.24l-4.49,24.59c-.13.78-.16,1.63-.1,2.54.06.91-.42,1.63-1.46,2.15-.65.39-1.4.29-2.24-.29-.85-.59-1.66-1.01-2.44-1.27-2.47-.65-5.04-1.23-7.71-1.76-2.67-.52-4.72-2.02-6.15-4.49Z"/>
      <path d="M847.84,762.7c-6.61,0-14.91-2.5-22.81-11.84-2.39-2.82-4.65-6.03-6.72-9.55-2.44-4.16-4.32-8.5-5.58-12.92-3.49-12.24-.25-24.28,8.68-32.23.28-.25.57-.5.86-.73,2.42-1.98,5.19-3.91,8.22-5.73.11-.07.23-.14.35-.21.15-5.84.35-11.64.6-17.33,0-.22.02-.44.04-.65.26-3.72.51-7.64.77-11.75.27-4.41.63-8.85,1.05-13.19.42-4.38.92-8.69,1.48-12.82.6-4.45,1.3-8.59,2.08-12.31.21-.99.47-1.96.79-2.92.03-.07.05-.15.07-.22-.57-3.94-.43-7.65-.16-10.8.38-4.53,1.17-9.25,2.37-14.01,1.16-4.63,2.56-8.94,4.16-12.81,7.86-18.97,23.45-20.44,28.04-20.44s8.39,1.05,11.7,2.07c2.59.81,5.19,1.73,7.77,2.76,3.02,1.21,5.84,2.54,8.36,3.97,14.27,8.09,15.8,20.5,15.8,25.46,0,1.61-.15,3.21-.43,4.79l-3.89,21.3c1.8,3.8,2.76,7.98,2.76,12.35,0,.76-.03,1.52-.1,2.27l-3.06,35.77c7.45,2.72,14.71,9.01,17.71,20.51.65,2.48,1.17,5.14,1.58,8.11.3,2.22.56,4.33.79,6.4.31,2.87.45,4.95.45,6.75,0,10.17-4.04,19.24-11.36,25.51-4.73,4.05-10.5,6.85-17.15,8.32-.25.06-.51.11-.77.16-7.33,1.4-14.66,3.16-21.8,5.25-6.65,1.95-13.73,4.67-21.03,8.1-1,.47-2.02.87-3.06,1.22-2.22.73-5.16,1.38-8.54,1.38ZM911.09,619.66c0,.08,0,.15.02.23,0-.08,0-.15-.02-.23ZM872.82,599.19c.9.12,1.85.26,2.87.43,3.34.54,6.71,1.28,9.99,2.19.57.16,1.14.32,1.7.5-1.16-1.89-2.75-3.57-4.6-4.91-3.38-.09-6.78.52-9.96,1.8ZM895.87,601.5s.06.04.08.06c-.03-.02-.05-.04-.08-.06Z"/>
    </g>
    <g>
      <path d="M907.82,582.41c.91-1.82,2.83-2.8,5.76-2.93,2.93-.13,5.95.36,9.07,1.46,3.12,1.11,5.88,2.6,8.29,4.49,2.41,1.89,3.54,3.87,3.42,5.95-.52,11.06-1.07,21.43-1.66,31.12-.59,9.69-.98,19.22-1.17,28.59-.19,9.37,0,18.8.59,28.29.59,9.5,1.79,19.64,3.61,30.44,0,.26-.33.78-.98,1.56-.65.78-.98,1.3-.98,1.56,1.56-1.04,3.25-2.18,5.07-3.42,1.82-1.23,3.71-2.44,5.66-3.61,1.95-1.17,3.97-2.18,6.05-3.02,2.08-.84,4.16-1.46,6.24-1.85,2.08-.39,4.1.26,6.05,1.95,1.95,1.69,3.64,3.74,5.07,6.15,1.43,2.41,2.6,4.85,3.51,7.32.91,2.47,1.37,4.36,1.37,5.66-9.37,2.6-18.86,6.08-28.49,10.44-9.63,4.36-18.54,9.27-26.73,14.73-1.17.65-2.8.19-4.88-1.37-2.08-1.56-4.03-3.55-5.85-5.95-1.82-2.41-3.16-4.95-4-7.61-.85-2.67-.62-4.78.68-6.34,1.04-1.04,2.21-1.92,3.51-2.63,1.3-.71,2.47-1.59,3.51-2.63-1.95-8.59-3.38-17.92-4.29-28-.91-10.08-1.5-20.23-1.76-30.44-.26-10.21-.23-20.06.1-29.56.32-9.49.68-17.95,1.07-25.37.39-7.42.81-13.37,1.27-17.85.45-4.49.75-6.86.88-7.12Z"/>
      <path d="M916.51,774.26c-6.75,0-13.63-2.36-19.81-7-4.07-3.05-7.81-6.82-11.12-11.2-3.64-4.81-6.39-10.07-8.15-15.63-3.36-10.56-1.83-21.21,4.16-29.58-.77-5.07-1.4-10.32-1.88-15.7-.96-10.6-1.58-21.42-1.85-32.16-.27-10.68-.24-21.16.11-31.16.32-9.48.69-18.18,1.09-25.85.42-7.96.87-14.23,1.37-19.16.8-7.93,1.17-11.56,3.54-16.31,0,0,0-.02.01-.03,5.24-10.48,15.86-17.08,28.41-17.64,6.37-.28,12.8.72,19.15,2.96,5.84,2.07,11.16,4.97,15.84,8.63,9.24,7.25,14.18,17.54,13.61,28.3-.52,11.13-1.09,21.69-1.67,31.37-.56,9.32-.94,18.58-1.13,27.53-.16,7.46-.04,15.06.34,22.62,7.85.11,15.4,3.06,21.78,8.58,4.09,3.54,7.62,7.79,10.51,12.64,2.27,3.82,4.15,7.76,5.62,11.74,2.06,5.64,3.02,10.35,3.02,14.9,0,11.97-7.98,22.48-19.52,25.68-8.03,2.23-16.32,5.27-24.63,9.04-8.26,3.74-15.98,7.99-22.95,12.63-.6.4-1.22.77-1.85,1.12-4.4,2.45-9.17,3.66-14,3.66Z"/>
    </g>
  </g>
  <g>
    <g>
      <path d="M997.34,622.57c3.02-4.3,6.33-8.31,9.93-12.01,3.6-3.7,7.52-6.86,11.77-9.47,4.25-2.61,8.79-4.65,13.63-6.11,4.84-1.46,10-2.1,15.5-1.93,2.12.1,4.57,1.25,7.36,3.46,2.79,2.21,5.38,5.08,7.77,8.6,2.39,3.52,4.4,7.53,6.03,12.02,1.63,4.49,2.35,9,2.15,13.53-.29,7.41-1.78,14.74-4.46,21.98-2.69,7.25-5.87,14.44-9.54,21.56-3.68,7.13-7.46,14.09-11.35,20.88-3.89,6.79-7.19,13.36-9.89,19.72,5.87-2.85,11.61-4.87,17.22-6.08,5.61-1.2,10.81-1.98,15.6-2.35,2.25-.18,4.02.47,5.32,1.96,1.29,1.49,2.28,3.35,2.96,5.6.67,2.25,1.07,4.75,1.19,7.48.12,2.74.02,5.24-.29,7.51-.31,2.27-.74,4.2-1.27,5.78-.54,1.59-1.09,2.38-1.65,2.39-6.34.12-12.04.19-17.12.22-5.07.03-10.04.22-14.89.58-4.85.37-9.85.97-14.98,1.82-5.13.85-10.99,2.09-17.58,3.72-2.81.74-5.84.35-9.11-1.17-3.27-1.51-6.16-3.38-8.66-5.6-2.51-2.22-4.38-4.41-5.62-6.58-1.24-2.17-1.37-3.68-.4-4.52.28-.14,1.11-1.08,2.49-2.82,1.38-1.74,2.89-3.65,4.55-5.74,1.65-2.09,3.17-4.07,4.54-5.95,1.37-1.88,2.2-3.02,2.47-3.44,2.33-3.33,5.29-7.36,8.87-12.09,3.58-4.73,7.36-9.8,11.35-15.22,3.99-5.42,7.87-11.01,11.64-16.77,3.77-5.76,7.05-11.41,9.84-16.94,2.79-5.53,4.77-10.78,5.95-15.74,1.18-4.96,1.17-9.34-.03-13.16-.3-1.09-1.19-1.42-2.66-.98-1.47.44-3.22,1.36-5.23,2.77-2.02,1.41-4.21,3.16-6.56,5.26-2.36,2.1-4.61,4.2-6.76,6.29-2.15,2.1-4.08,4.05-5.81,5.87-1.73,1.81-2.94,3.21-3.62,4.18-.28.28-.49.56-.62.83-.14.28-.41.42-.84.43-1.27.02-2.94-.77-5.01-2.37-2.07-1.61-4.15-3.52-6.23-5.75-2.08-2.22-3.92-4.41-5.51-6.58-1.59-2.16-2.4-3.86-2.42-5.1Z"/>
      <path d="M1007.92,768.44c-5.48,0-11.04-1.26-16.43-3.76-5.39-2.5-10.29-5.68-14.55-9.45-4.57-4.04-8.07-8.24-10.68-12.82-7.9-13.83-3.92-27.05,3.77-34.54.13-.16.26-.33.41-.52l4.55-5.74c1.45-1.83,2.79-3.59,3.99-5.22.95-1.3,1.6-2.19,1.91-2.64.08-.12.16-.24.24-.35,2.53-3.61,5.6-7.8,9.41-12.83,3.4-4.5,7.16-9.53,11.15-14.96.47-.64.94-1.29,1.41-1.94-2.17-1.1-4.31-2.47-6.42-4.11-3.07-2.38-6.14-5.19-9.09-8.35-2.74-2.93-5.23-5.91-7.39-8.85-4.73-6.42-7.09-12.76-7.21-19.35-.09-5.26,1.48-10.41,4.49-14.7,3.76-5.35,7.94-10.41,12.42-15.02,4.99-5.13,10.53-9.58,16.47-13.24,6.02-3.7,12.51-6.61,19.31-8.67,7.33-2.21,15.12-3.21,23.21-2.95.13,0,.25,0,.38.01,7.26.34,14.4,3.26,21.22,8.67,4.72,3.74,9.03,8.47,12.82,14.04,3.53,5.21,6.49,11.08,8.81,17.47,2.75,7.57,3.96,15.35,3.62,23.14-.38,9.87-2.4,19.85-5.99,29.54-2.76,7.45-6.02,14.91-9.68,22.2,4.76,1.7,9.04,4.59,12.47,8.51,3.63,4.17,6.32,9.13,8.01,14.76,1.26,4.19,2,8.74,2.22,13.53.18,4.24.02,8.26-.49,11.99-.54,3.9-1.3,7.27-2.34,10.36-4.67,13.85-15.59,18.94-24.25,19.09-6.47.12-12.35.2-17.43.22-4.47.02-8.92.2-13.21.52-4.11.31-8.44.83-12.85,1.56-4.49.74-9.74,1.86-15.62,3.31-2.85.73-5.76,1.09-8.69,1.09ZM1070.91,730.94s-.03,0-.04,0c.01,0,.03,0,.04,0ZM1004.65,719.59s-.02,0-.03,0c0,0,.02,0,.03,0ZM1074.84,712.47s-.03,0-.05,0c.02,0,.03,0,.05,0ZM976.02,703.57h-.02s.02,0,.02,0ZM976.07,703.55h-.03s.02,0,.03,0ZM976.11,703.52l-.04.02.04-.02Z"/>
    </g>
    <g>
      <path d="M1077.64,679.48c.65-3.16,1.42-7.09,2.32-11.76.9-4.68,2.01-9.7,3.32-15.07,1.31-5.37,2.76-10.85,4.35-16.43,1.59-5.58,3.36-10.93,5.31-16.04,1.95-5.11,4.01-9.74,6.2-13.89,2.18-4.15,4.52-7.42,7.01-9.8.83-.7,1.84-1.2,3.04-1.5,1.19-.29,2.28-.45,3.27-.47,1.97-.04,3.84.31,5.62,1.03,1.77.72,3.48,1.62,5.12,2.68,1.64,1.07,3.21,2.24,4.71,3.51,1.5,1.28,2.9,2.45,4.19,3.52,5.15,4.16,9.8,8.18,13.96,12.08,4.16,3.9,7.72,8.05,10.69,12.45,2.97,4.4,5.31,9.26,7.03,14.57,1.71,5.31,2.64,11.4,2.76,18.25.07,4.11-.47,8.82-1.65,14.12-1.17,5.3-2.87,10.78-5.09,16.44-2.22,5.66-4.94,11.23-8.15,16.7-3.21,5.48-6.82,10.38-10.83,14.7-4.01,4.33-8.31,7.83-12.92,10.52-4.6,2.69-9.51,4.08-14.72,4.18-4.82-1.56-9.44-3.76-13.86-6.63-4.42-2.86-8.29-6.22-11.6-10.07-3.31-3.85-5.96-8.12-7.95-12.81-1.99-4.69-3.03-9.71-3.13-15.06-.04-2.33-.02-4.83.08-7.51.09-2.68.4-5.25.92-7.73ZM1112.4,661.15c-2.39,8.27-3.89,16.63-4.51,25.07-.62,8.44-.86,16.98-.7,25.62l.04,2.47c.14,0,.35-.14.63-.42.14,0,.28-.07.42-.21,3.44-4.31,6.88-8.9,10.32-13.76,3.43-4.86,6.51-9.92,9.24-15.18,2.72-5.26,4.91-10.68,6.57-16.27,1.66-5.58,2.44-11.25,2.33-17.01-.06-3.56-.59-7.15-1.57-10.77-.98-3.61-2.28-7.05-3.89-10.31-.3-.68-.7-1.49-1.21-2.45-.51-.95-1.06-1.97-1.64-3.05-.59-1.22-1.17-2.45-1.76-3.67l-.62.63c-.14.14-.44.83-.91,2.07-.47,1.24-.98,2.62-1.51,4.14-.54,1.52-1.07,3-1.61,4.45-.54,1.45-.94,2.59-1.21,3.42-.27.97-.8,2.62-1.6,4.97-.8,2.35-1.68,4.86-2.61,7.55-.94,2.69-1.81,5.25-2.61,7.66-.8,2.41-1.34,4.11-1.6,5.07Z"/>
      <path d="M1113.18,763.92c-2.51,0-4.99-.39-7.38-1.16-6.83-2.21-13.43-5.36-19.61-9.37-6.33-4.1-11.99-9.03-16.81-14.63-4.95-5.75-8.98-12.24-11.96-19.28-3.22-7.61-4.94-15.79-5.09-24.31-.05-2.76-.02-5.74.09-8.83.14-4.03.61-8.05,1.42-11.9.63-3.08,1.38-6.9,2.26-11.45.97-5.04,2.18-10.52,3.58-16.27,1.36-5.57,2.9-11.41,4.59-17.33,1.79-6.26,3.8-12.35,6-18.1,2.28-5.99,4.78-11.57,7.4-16.57,3.46-6.59,7.32-11.88,11.81-16.16.37-.35.75-.7,1.15-1.03,3.67-3.08,7.96-5.26,12.73-6.45,3-.74,5.89-1.14,8.66-1.19,5.21-.09,10.3.84,15.1,2.78,3.22,1.31,6.31,2.93,9.22,4.82,2.54,1.66,4.94,3.45,7.19,5.35,1.41,1.2,2.7,2.28,3.88,3.27,5.53,4.47,10.64,8.9,15.18,13.15,5.47,5.14,10.27,10.73,14.25,16.63,4.26,6.32,7.64,13.32,10.07,20.82,2.46,7.63,3.8,16.19,3.97,25.46.11,6.14-.62,12.67-2.23,19.96-1.45,6.54-3.54,13.32-6.22,20.16-2.68,6.82-5.99,13.61-9.84,20.19-4.1,6.99-8.82,13.38-14.01,18.98-5.63,6.07-11.85,11.12-18.49,15-8.19,4.79-17.09,7.3-26.44,7.48-.15,0-.3,0-.44,0ZM1077.64,679.48h.02-.02Z"/>
    </g>
    <g>
      <path d="M1166.81,619.42c3.02-4.3,6.33-8.31,9.93-12.01,3.6-3.7,7.52-6.86,11.77-9.47,4.25-2.61,8.79-4.65,13.63-6.11,4.84-1.46,10-2.1,15.5-1.93,2.12.1,4.57,1.25,7.36,3.46,2.79,2.21,5.38,5.08,7.76,8.6,2.39,3.52,4.4,7.53,6.03,12.02,1.63,4.49,2.35,9,2.15,13.53-.29,7.41-1.78,14.74-4.46,21.98-2.69,7.25-5.87,14.44-9.54,21.56-3.68,7.13-7.46,14.09-11.35,20.88-3.89,6.79-7.19,13.36-9.9,19.72,5.87-2.85,11.61-4.88,17.22-6.08,5.61-1.2,10.81-1.98,15.6-2.35,2.25-.18,4.02.47,5.32,1.96,1.3,1.49,2.28,3.35,2.96,5.6.67,2.25,1.07,4.75,1.19,7.48.12,2.74.02,5.24-.29,7.51-.31,2.27-.74,4.2-1.27,5.78-.54,1.59-1.09,2.38-1.65,2.39-6.34.12-12.04.19-17.12.22-5.07.03-10.04.22-14.89.58-4.86.37-9.85.97-14.98,1.82-5.13.85-10.99,2.09-17.58,3.72-2.81.74-5.84.35-9.11-1.17-3.27-1.51-6.16-3.38-8.66-5.6-2.51-2.22-4.38-4.41-5.61-6.58-1.24-2.17-1.37-3.68-.4-4.52.28-.14,1.11-1.08,2.49-2.82,1.38-1.74,2.89-3.65,4.55-5.74,1.65-2.09,3.17-4.07,4.54-5.94,1.37-1.88,2.2-3.02,2.47-3.44,2.33-3.33,5.29-7.36,8.87-12.09,3.58-4.73,7.36-9.8,11.35-15.22,3.99-5.42,7.87-11.01,11.64-16.77,3.77-5.76,7.05-11.41,9.84-16.94,2.79-5.53,4.77-10.78,5.95-15.74,1.18-4.96,1.17-9.34-.03-13.16-.3-1.09-1.19-1.42-2.66-.98-1.47.44-3.22,1.36-5.24,2.77-2.02,1.41-4.21,3.16-6.56,5.26-2.36,2.1-4.61,4.2-6.76,6.29-2.15,2.1-4.09,4.05-5.81,5.87-1.73,1.81-2.94,3.21-3.62,4.18-.28.28-.48.56-.62.83-.14.28-.42.42-.84.43-1.27.02-2.94-.77-5.01-2.37-2.07-1.61-4.15-3.52-6.23-5.75-2.09-2.22-3.92-4.41-5.51-6.58-1.59-2.16-2.39-3.86-2.42-5.1Z"/>
      <path d="M1177.39,765.3c-5.48,0-11.04-1.26-16.42-3.76-5.39-2.5-10.29-5.68-14.55-9.45-4.58-4.05-8.08-8.25-10.69-12.84-7.89-13.82-3.91-27.05,3.78-34.53.12-.15.26-.32.41-.51l4.55-5.74c1.44-1.81,2.78-3.57,3.99-5.22.95-1.3,1.6-2.19,1.92-2.65.08-.12.16-.24.25-.36,2.5-3.56,5.66-7.88,9.41-12.83,3.39-4.48,7.04-9.38,11.15-14.96.47-.64.94-1.29,1.41-1.93-2.16-1.1-4.3-2.47-6.42-4.11-3.09-2.39-6.15-5.21-9.1-8.36-2.73-2.91-5.22-5.89-7.38-8.83-4.73-6.43-7.1-12.77-7.21-19.36-.09-5.26,1.48-10.41,4.5-14.7,3.76-5.36-3.04-21.71,1.44-26.32,4.99-5.13,15.89-7.3,21.83-10.95,6.01-3.69,19.84-7.44,26.64-9.5,7.33-2.21,13.39,6.63,21.49,6.89.12,0,.25,0,.37.01,7.26.34,14.4,3.26,21.23,8.68,4.72,3.75,9.03,8.47,12.81,14.04,3.53,5.2,6.49,11.08,8.82,17.47,2.74,7.55,3.96,15.34,3.62,23.13-.38,9.88-2.4,19.86-5.99,29.55-2.76,7.45-6.02,14.91-9.68,22.2,4.76,1.7,9.05,4.6,12.48,8.53,3.62,4.15,6.31,9.11,8,14.75,1.26,4.21,2.01,8.76,2.22,13.54.19,4.22.02,8.25-.49,11.99-.53,3.87-1.29,7.24-2.34,10.34-4.67,13.85-15.59,18.94-24.25,19.09-6.69.12-12.4.2-17.43.22-4.47.02-8.92.2-13.21.52-4.11.31-8.44.83-12.85,1.56-4.49.74-9.75,1.86-15.61,3.31-2.85.73-5.76,1.09-8.69,1.09ZM1240.39,727.79s-.04,0-.06,0c.02,0,.04,0,.06,0ZM1244.32,709.33s-.02,0-.04,0c.01,0,.02,0,.04,0ZM1145.44,700.45s-.02,0-.03.01c0,0,.02,0,.03-.01ZM1145.49,700.43l-.03.02.03-.02ZM1145.53,700.4l-.04.02.04-.02Z"/>
    </g>
    <g>
      <path d="M1337.94,591.57c2.25-.04,3.96,1.03,5.13,3.2,1.17,2.17,1.99,4.59,2.46,7.25.47,2.66.69,5.1.66,7.29-.03,2.2-.12,3.29-.26,3.29-3.95.07-7.5.31-10.66.71-3.16.4-6.29.91-9.38,1.51-3.09.61-6.32,1.32-9.68,2.13-3.37.82-7.23,1.68-11.58,2.58-.98.16-1.88,1.03-2.7,2.62-.82,1.59-1.52,3.39-2.12,5.39-.6,2-1.06,3.96-1.37,5.89-.32,1.93-.47,3.3-.45,4.12,5.32-2.15,10.72-3.28,16.22-3.39,3.66-.07,7.23.45,10.7,1.55,3.47,1.1,6.57,2.73,9.28,4.87,2.71,2.14,4.95,4.74,6.69,7.79,1.75,3.05,2.65,6.5,2.72,10.33.08,4.66-.56,9.81-1.94,15.46-1.38,5.65-3.36,11.31-5.93,16.97-2.58,5.67-5.65,11.18-9.21,16.52-3.57,5.35-7.53,10.11-11.9,14.31-4.36,4.19-9.06,7.57-14.09,10.13-5.03,2.56-10.22,3.89-15.57,3.99-7.05.13-12.67-1.03-16.87-3.49-4.2-2.46-7.32-5.55-9.36-9.29-2.04-3.73-3.28-7.86-3.71-12.37-.43-4.52-.41-8.83.08-12.96.49-4.12,1.23-7.7,2.24-10.73,1-3.03,1.85-4.9,2.54-5.6,1.52-1.67,3.69-2.36,6.52-2.07,2.82.29,5.55,1.13,8.18,2.52,2.63,1.39,4.81,3.13,6.54,5.23,1.73,2.09,2.26,4.04,1.59,5.83-.27.97-.97,2.76-2.12,5.39-1.15,2.63-2.23,5.36-3.23,8.18-1.01,2.83-1.8,5.42-2.4,7.76-.59,2.34-.46,3.64.39,3.9,1.28.53,3.41-.2,6.41-2.17,2.99-1.97,6.32-4.78,9.99-8.41,3.67-3.63,7.47-7.92,11.39-12.86,3.93-4.94,7.5-10.08,10.71-15.42,3.21-5.34,5.83-10.7,7.85-16.08,2.02-5.38,2.98-10.4,2.9-15.07-2.39.18-5.06.71-8,1.59-2.94.88-5.92,1.96-8.92,3.25-3.01,1.29-5.91,2.65-8.7,4.07-2.79,1.42-5.24,2.7-7.33,3.84-1.27.02-2.97-.53-5.1-1.65-2.13-1.12-4.27-2.49-6.42-4.1-2.14-1.61-3.97-3.28-5.48-5.04-1.51-1.75-2.28-3.32-2.3-4.69-.04-2.47.22-5.11.81-7.93.58-2.82,1.28-5.47,2.08-7.96.8-2.48,1.61-4.76,2.41-6.83.81-2.07,1.34-3.59,1.61-4.55-1.02-1.9-1.56-4.29-1.61-7.17-.05-2.74.65-4.95,2.1-6.62,1.45-1.67,3.43-2.94,5.96-3.81.68-1.25,1.47-2.49,2.36-3.75.89-1.25,2.19-1.89,3.88-1.92,1.55-.03,2.89.29,4.03.95,1.14.67,2.27.99,3.4.96,3.24-.06,6.47-.36,9.71-.9,3.23-.54,6.43-1.15,9.58-1.82,3.16-.67,6.32-1.28,9.48-1.82,3.16-.54,6.43-.84,9.81-.9Z"/>
      <path d="M1283.95,760.74c-10.89,0-20.31-2.29-28.03-6.81-8.05-4.71-14.27-10.99-18.47-18.68-3.65-6.66-5.88-14.04-6.64-21.92-.6-6.26-.55-12.42.14-18.28.69-5.83,1.78-10.93,3.32-15.61,1.67-5.06,3.8-10.34,8-14.78,2.49-2.67,5.41-4.83,8.61-6.43-2.17-4.66-2.81-8.91-2.87-12.11-.08-4.33.37-8.85,1.32-13.46.76-3.68,1.69-7.23,2.76-10.54.55-1.69,1.1-3.32,1.65-4.86-.25-1.81-.4-3.68-.43-5.6-.16-8.93,2.65-17,8.14-23.32,2.18-2.52,4.68-4.7,7.48-6.54,5.37-7.04,13.55-11.16,22.57-11.33,3.79-.08,7.53.51,11.03,1.7.86-.09,1.72-.21,2.57-.35,2.87-.48,5.73-1.02,8.53-1.62,3.44-.74,6.96-1.41,10.46-2.01,4.35-.74,8.86-1.16,13.42-1.24,11.27-.19,21.42,5.78,26.94,16.03,2.43,4.52,4.11,9.46,5.04,14.7.74,4.2,1.09,8.23,1.04,11.97-.19,12.5-5.22,19.34-10.65,23.08.72,1.07,1.41,2.17,2.05,3.3,3.84,6.71,5.85,14.19,6,22.24.12,6.77-.77,14.11-2.65,21.82-1.73,7.1-4.23,14.29-7.44,21.35-3.11,6.85-6.87,13.59-11.16,20.03-4.55,6.8-9.69,12.99-15.31,18.38-6.07,5.83-12.76,10.63-19.89,14.27-8.29,4.22-17.06,6.45-26.06,6.62-.49,0-.98.01-1.47.01ZM1284.48,695.54s0,0,0,0c0,0,0,0,0,0ZM1259.95,684.46h0s0,0,0,0ZM1259.97,684.42s0,.02,0,.03c0,0,0-.02,0-.03ZM1337.94,591.57h.02-.02ZM1307.9,574.58c.06.03.12.07.18.1-.06-.03-.12-.07-.18-.1Z"/>
    </g>
  </g>
  <path class="cls-2" d="M413.22,558.03c1.82,1.43,3.15,3.06,4,4.88.84,1.82,2.05,3.45,3.61,4.88.91.78,1.79,1.63,2.63,2.54.84.91,1.72,1.82,2.63,2.73,4.16,4.56,9.24,8.49,15.22,11.81,5.98,3.32,12.29,6.21,18.93,8.68,6.63,2.47,13.33,4.62,20.1,6.44,6.76,1.82,13.01,3.51,18.73,5.07,5.46,1.56,8.78,4.2,9.95,7.9,1.17,3.71,1.43,7.97.78,12.78-.13,1.17-.78,2.24-1.95,3.22-1.17.98-2.54,1.82-4.1,2.54-1.56.72-3.12,1.3-4.68,1.76-1.56.46-2.86.81-3.9,1.07,3.64,1.17,7.41,2.93,11.32,5.27,3.9,2.34,7.41,5.11,10.54,8.29,3.12,3.19,5.59,6.77,7.41,10.73,1.82,3.97,2.41,8.1,1.76,12.39-.78,5.85-2.8,11.35-6.05,16.49-3.25,5.14-7.29,9.89-12.1,14.25-4.81,4.36-10.24,8.2-16.29,11.51-6.05,3.32-12.26,6.05-18.63,8.2-6.38,2.15-12.68,3.64-18.93,4.49-6.24.84-12.03.88-17.37.1-4.95-.65-8.85-1.63-11.71-2.93-2.86-1.3-5.04-3.06-6.54-5.27-1.5-2.21-2.57-4.98-3.22-8.29-.65-3.32-1.17-7.25-1.56-11.81l13.27,1.76c-.39-.78-.75-2.7-1.07-5.76-.33-3.06-.62-6.41-.88-10.05-.26-3.64-.52-7.12-.78-10.44-.26-3.32-.39-5.56-.39-6.73-1.82.65-3.29.91-4.39.78-1.11-.13-2.57-.32-4.39-.59-1.04-.13-2.15-.94-3.32-2.44-1.17-1.49-2.24-3.22-3.22-5.17-.98-1.95-1.76-3.9-2.34-5.85-.59-1.95-.81-3.38-.68-4.29l18.93-9.17,5.66-42.54c-2.47-2.34-4.85-5.04-7.12-8.1-2.28-3.06-4.2-6.31-5.76-9.76-1.56-3.45-2.73-6.99-3.51-10.63-.78-3.64-.98-7.22-.59-10.73ZM451.07,698.33c4.94-.78,10.37-2.24,16.29-4.39,5.92-2.15,11.71-4.78,17.37-7.9,5.66-3.12,10.93-6.6,15.81-10.44,4.88-3.84,8.75-7.9,11.61-12.2-7.94-4.03-16-6.63-24.2-7.81-6.24-.91-12.46-1.14-18.64-.68-6.18.46-12.39,1.01-18.63,1.66-.91,7.29-1.07,14.28-.49,20.98.59,6.7.88,13.63.88,20.78ZM451.66,627.1l16.2-9.95-14.24-4.88-1.95,14.83Z"/>
  <path class="cls-2" d="M560.93,572.47c4.03,4.68,8.52,9.6,13.46,14.73,4.94,5.14,10.15,10.15,15.61,15.03,5.46,4.88,11.02,9.37,16.68,13.46,5.66,4.1,11.15,7.51,16.49,10.24,1.3.65,2.27,1.46,2.93,2.44.65.98,1.07,1.95,1.27,2.93.2.98.16,1.92-.1,2.83-.26.91-.59,1.56-.98,1.95-3.64,3.51-7.51,6.41-11.61,8.68-4.1,2.28-8.42,4.65-12.98,7.12,1.69.91,3.41,1.73,5.17,2.44,1.76.72,3.41,1.59,4.98,2.63,6.89,4.29,12.07,9.79,15.51,16.49,3.45,6.7,5.17,14.08,5.17,22.15,0,4.03-.36,8.36-1.07,12.98-.72,4.62-1.73,9.21-3.02,13.76-1.3,4.55-2.9,8.94-4.78,13.17-1.89,4.23-4,7.97-6.34,11.22-1.04,1.43-2.93,2.05-5.66,1.85-2.73-.2-5.46-.81-8.2-1.85-2.73-1.04-5.04-2.31-6.93-3.81-1.89-1.5-2.57-2.77-2.05-3.8,4.55-9.24,8.62-18.73,12.2-28.49,3.58-9.76,5.37-19.77,5.37-30.05v-3.61c0-1.63-.13-2.76-.39-3.41-.65-1.69-2.73-2.86-6.24-3.51-3.51-.65-7.55-.91-12.1-.78-4.56.13-9.21.59-13.95,1.37-4.75.78-8.68,1.76-11.81,2.93-.52,1.69-.91,4.81-1.17,9.37-.26,4.55-.52,9.37-.78,14.44-.26,5.07-.52,9.85-.78,14.34-.26,4.49-.59,7.58-.98,9.27-.26,1.04-1.89,1.85-4.88,2.44-2.99.59-6.24.84-9.76.78-3.51-.07-6.67-.49-9.46-1.27-2.8-.78-4.07-2.08-3.81-3.9.52-3.51.91-6.6,1.17-9.27.26-2.67.49-5.33.68-8,.2-2.67.39-5.49.59-8.49.2-2.99.36-6.63.49-10.93-.91.52-2.24.98-4,1.37-1.76.39-3.02.91-3.81,1.56-1.69,1.43-3.51,1.24-5.46-.59-1.95-1.82-3.55-4.23-4.78-7.22-1.24-2.99-1.89-6.02-1.95-9.07-.07-3.05.88-5.04,2.83-5.95,1.69-.78,3.19-1.43,4.49-1.95,1.3-.52,2.63-1.04,4-1.56,1.37-.52,2.86-1.07,4.49-1.66,1.63-.59,3.54-1.33,5.76-2.24.52-9.76.36-19.54-.49-29.37-.85-9.82-1.79-19.61-2.83-29.37,0-1.3,1.49-2.24,4.49-2.83,2.99-.59,6.57.16,10.73,2.24-1.69-1.82-3.16-3.67-4.39-5.56-1.24-1.88-2.7-4.13-4.39-6.73-.65-1.04-.26-2.34,1.17-3.9,1.43-1.56,3.22-3.02,5.37-4.39,2.15-1.37,4.29-2.37,6.44-3.02,2.15-.65,3.61-.52,4.39.39ZM568.74,643.3c4.16-2.21,8.55-4.49,13.17-6.83,4.62-2.34,8.81-5.01,12.59-8-5.07-2.6-9.82-5.56-14.25-8.88-4.42-3.32-8.85-6.73-13.27-10.24.52,5.73.94,11.39,1.27,16.98.32,5.6.49,11.25.49,16.98Z"/>
  <path class="cls-2" d="M648.94,617.54c1.43-1.17,4.06-2.8,7.9-4.88,3.84-2.08,8.26-4.42,13.27-7.02,5.01-2.6,10.31-5.24,15.9-7.9,5.59-2.66,10.99-5.1,16.2-7.32,5.2-2.21,9.89-4.1,14.05-5.66,4.16-1.56,7.22-2.47,9.17-2.73,1.82-.26,3.48.95,4.98,3.61,1.49,2.67,2.7,5.73,3.61,9.17.91,3.45,1.43,6.77,1.56,9.95.13,3.19-.39,5.17-1.56,5.95-.13.13-1.01.65-2.63,1.56-1.63.91-3.35,1.89-5.17,2.93-1.82,1.04-3.51,2.05-5.07,3.02-1.56.98-2.34,1.53-2.34,1.66l44.49,103.42c.52,1.17-.2,2.6-2.15,4.29-1.95,1.69-4.33,3.25-7.12,4.68-2.8,1.43-5.53,2.57-8.2,3.41-2.67.84-4.46.94-5.37.29-.52-.39-1.4-1.76-2.63-4.1-1.24-2.34-2.67-5.24-4.29-8.68-1.63-3.45-3.32-7.12-5.07-11.03-1.76-3.9-3.45-7.64-5.07-11.22-1.63-3.58-3.02-6.73-4.2-9.46-1.17-2.73-2.02-4.55-2.54-5.46-3.38.78-7.48,2.08-12.29,3.9-4.81,1.82-9.63,3.71-14.44,5.66-4.81,1.95-9.21,3.68-13.17,5.17-3.97,1.5-6.8,2.24-8.49,2.24-.91,0-1.37-.26-1.37-.78l-.98-5.85-16.39,20.88c-.52.78-1.43,1.17-2.73,1.17-1.56,0-3.41-.75-5.56-2.24-2.15-1.49-4.07-3.28-5.76-5.37-1.69-2.08-2.96-4.26-3.8-6.54-.85-2.27-.75-4.13.29-5.56l41.56-58.93c-1.82,1.04-3.45,1.89-4.88,2.54-1.3.65-2.44,1.27-3.41,1.85-.98.59-1.53.88-1.66.88-1.3.65-3.09-.16-5.37-2.44-2.28-2.27-4.36-5.07-6.24-8.39-1.89-3.32-3.25-6.63-4.1-9.95-.85-3.32-.49-5.56,1.07-6.73ZM698.5,644.47l-14.83,22.64c1.56-.52,3.32-1.2,5.27-2.05,1.95-.84,3.97-1.72,6.05-2.63,2.08-.91,4.13-1.76,6.15-2.54,2.02-.78,3.81-1.37,5.37-1.76l-8-13.66Z"/>
  <path class="cls-2" d="M809.34,578.71c1.3,0,3.05.75,5.27,2.24,2.21,1.5,4.42,3.25,6.63,5.27,2.21,2.02,4.13,4.07,5.76,6.15,1.63,2.08,2.44,3.77,2.44,5.07,0,4.29-.1,8.62-.29,12.98-.19,4.36-.62,8.62-1.27,12.78-.26,1.3-.59,2.83-.98,4.59-.39,1.76-1.5,2.63-3.32,2.63-1.3,0-2.86-.13-4.68-.39-1.82-.26-3.55-.71-5.17-1.37-1.63-.65-3.02-1.53-4.2-2.63-1.17-1.1-1.76-2.5-1.76-4.2,0-2.47.2-4.78.59-6.93.39-2.15.71-4.65.98-7.51l-41.76,46.05c7.42-2.99,14.96-5.43,22.64-7.32,7.67-1.88,15.48-2.83,23.42-2.83,2.34,0,5.14.52,8.39,1.56,3.25,1.04,6.41,2.51,9.46,4.39,3.05,1.89,5.63,4.07,7.71,6.54,2.08,2.47,3.12,5.07,3.12,7.81,0,7.42-1.95,15.06-5.85,22.93-3.9,7.87-8.95,15.09-15.12,21.66-6.18,6.57-13.11,12.03-20.78,16.39-7.68,4.36-15.35,6.67-23.03,6.93-2.99.13-5.46-.85-7.42-2.93-1.95-2.08-3.35-4.39-4.2-6.93-.85-2.54-1.27-4.91-1.27-7.12s.45-3.38,1.37-3.51c4.42-.65,9.2-2.41,14.34-5.27,5.14-2.86,10.21-6.34,15.22-10.44,5.01-4.1,9.72-8.68,14.15-13.76,4.42-5.07,8.06-10.15,10.93-15.22,1.69-2.99,2.7-5.01,3.02-6.05.32-1.04-.03-1.56-1.07-1.56-.65,0-1.59.16-2.83.49-1.24.33-2.83.81-4.78,1.46-1.43.39-4.16,1.2-8.2,2.44-4.03,1.24-8.56,2.54-13.56,3.9-5.01,1.37-10.08,2.57-15.22,3.61-5.14,1.04-9.6,1.56-13.37,1.56-1.82,0-4.07-.59-6.73-1.76-2.67-1.17-5.2-2.7-7.61-4.59-2.41-1.88-4.46-3.93-6.15-6.15-1.69-2.21-2.54-4.29-2.54-6.24,0-2.73,1.37-6.44,4.1-11.12s6.24-9.79,10.54-15.32c4.29-5.53,9.07-11.15,14.34-16.88,5.27-5.72,10.41-10.93,15.42-15.61,5.01-4.68,9.59-8.49,13.76-11.42,4.16-2.93,7.35-4.39,9.56-4.39Z"/>
  <path class="cls-2" d="M854.61,617.93c.26-.78.65-1.23,1.17-1.37.52-.13,1.17-.2,1.95-.2,1.17,0,2.96.2,5.37.59,2.41.39,4.78.91,7.12,1.56,2.34.65,4.42,1.43,6.24,2.34,1.82.91,2.73,1.95,2.73,3.12l-5.66,66.15c3.77-.78,7.09-1.49,9.95-2.15,2.86-.65,6.18-.98,9.95-.98.39,0,.78.75,1.17,2.24.39,1.5.71,3.19.98,5.07.26,1.89.49,3.74.68,5.56.2,1.82.29,3.12.29,3.9,0,2.34-.68,4.1-2.05,5.27s-3.22,2.02-5.56,2.54c-8.2,1.56-16.29,3.51-24.29,5.85-8,2.34-16.29,5.53-24.88,9.56-.39.13-1.3-.65-2.73-2.34-1.43-1.69-2.8-3.64-4.1-5.85-1.3-2.21-2.27-4.45-2.93-6.73-.65-2.27-.39-3.93.78-4.98,1.43-1.17,3.12-2.34,5.07-3.51,1.95-1.17,3.97-2.24,6.05-3.22,2.08-.98,4.13-1.82,6.15-2.54,2.02-.71,3.81-1.27,5.37-1.66l-4.49-4.68c.13-9.24.39-18.28.78-27.12.26-3.77.52-7.74.78-11.9.26-4.16.59-8.26.98-12.29.39-4.03.84-7.97,1.37-11.81.52-3.84,1.1-7.32,1.76-10.44ZM856.17,607c-.52-1.04-.65-3.12-.39-6.24.26-3.12.81-6.37,1.66-9.76.84-3.38,1.82-6.41,2.93-9.07,1.1-2.66,2.24-4,3.42-4,.65,0,1.92.29,3.81.88,1.88.59,3.8,1.27,5.76,2.05,1.95.78,3.67,1.59,5.17,2.44,1.49.85,2.24,1.59,2.24,2.24l-4.49,24.59c-.13.78-.16,1.63-.1,2.54.06.91-.42,1.63-1.46,2.15-.65.39-1.4.29-2.24-.29-.85-.59-1.66-1.01-2.44-1.27-2.47-.65-5.04-1.23-7.71-1.76-2.67-.52-4.72-2.02-6.15-4.49Z"/>
  <path class="cls-2" d="M899.49,573.44c.91-1.82,2.83-2.8,5.76-2.93,2.93-.13,5.95.36,9.07,1.46,3.12,1.11,5.88,2.6,8.29,4.49,2.41,1.89,3.54,3.87,3.42,5.95-.52,11.06-1.07,21.43-1.66,31.12-.59,9.69-.98,19.22-1.17,28.59-.19,9.37,0,18.8.59,28.29.59,9.5,1.79,19.64,3.61,30.44,0,.26-.33.78-.98,1.56-.65.78-.98,1.3-.98,1.56,1.56-1.04,3.25-2.18,5.07-3.42,1.82-1.23,3.71-2.44,5.66-3.61,1.95-1.17,3.97-2.18,6.05-3.02,2.08-.84,4.16-1.46,6.24-1.85,2.08-.39,4.1.26,6.05,1.95,1.95,1.69,3.64,3.74,5.07,6.15,1.43,2.41,2.6,4.85,3.51,7.32.91,2.47,1.37,4.36,1.37,5.66-9.37,2.6-18.86,6.08-28.49,10.44-9.63,4.36-18.54,9.27-26.73,14.73-1.17.65-2.8.19-4.88-1.37-2.08-1.56-4.03-3.55-5.85-5.95-1.82-2.41-3.16-4.95-4-7.61-.85-2.67-.62-4.78.68-6.34,1.04-1.04,2.21-1.92,3.51-2.63,1.3-.71,2.47-1.59,3.51-2.63-1.95-8.59-3.38-17.92-4.29-28-.91-10.08-1.5-20.23-1.76-30.44-.26-10.21-.23-20.06.1-29.56.32-9.49.68-17.95,1.07-25.37.39-7.42.81-13.37,1.27-17.85.45-4.49.75-6.86.88-7.12Z"/>
  <g>
    <path class="cls-2" d="M984.99,613.7c3.18-4.47,6.66-8.63,10.45-12.48,3.78-3.84,7.91-7.13,12.39-9.85,4.47-2.72,9.26-4.84,14.35-6.35,5.09-1.52,10.53-2.19,16.32-2.01,2.23.1,4.81,1.3,7.74,3.6,2.93,2.3,5.66,5.28,8.17,8.93,2.51,3.66,4.63,7.82,6.35,12.49,1.72,4.67,2.47,9.36,2.26,14.07-.3,7.7-1.87,15.32-4.7,22.85-2.83,7.53-6.18,15.01-10.05,22.41-3.87,7.41-7.85,14.65-11.95,21.7-4.1,7.06-7.57,13.89-10.42,20.5,6.18-2.96,12.22-5.07,18.13-6.32,5.91-1.25,11.38-2.06,16.42-2.44,2.37-.18,4.24.49,5.6,2.03,1.36,1.55,2.4,3.48,3.11,5.82.71,2.34,1.13,4.93,1.26,7.78.12,2.85.02,5.45-.3,7.81-.33,2.36-.78,4.36-1.34,6.01-.56,1.65-1.14,2.48-1.73,2.49-6.67.12-12.68.2-18.02.22-5.34.03-10.56.23-15.67.61-5.11.38-10.37,1.01-15.76,1.89-5.4.88-11.57,2.17-18.51,3.87-2.95.77-6.15.36-9.59-1.21-3.44-1.57-6.48-3.51-9.12-5.82-2.64-2.3-4.61-4.58-5.91-6.84-1.3-2.25-1.44-3.82-.42-4.69.29-.15,1.17-1.12,2.62-2.93,1.45-1.81,3.05-3.8,4.79-5.97,1.74-2.17,3.33-4.23,4.78-6.18,1.45-1.95,2.31-3.14,2.6-3.57,2.46-3.47,5.57-7.65,9.34-12.57,3.77-4.91,7.75-10.19,11.95-15.82,4.2-5.64,8.28-11.44,12.25-17.43,3.97-5.98,7.42-11.86,10.36-17.61,2.93-5.75,5.02-11.21,6.26-16.36,1.24-5.15,1.23-9.71-.03-13.68-.32-1.13-1.25-1.47-2.8-1.02s-3.39,1.42-5.51,2.88c-2.13,1.47-4.43,3.29-6.91,5.47-2.48,2.18-4.85,4.36-7.11,6.54-2.26,2.18-4.3,4.21-6.12,6.1-1.82,1.89-3.09,3.34-3.81,4.34-.29.29-.51.58-.65.87-.14.29-.44.43-.88.44-1.33.02-3.09-.8-5.27-2.47-2.18-1.67-4.37-3.66-6.56-5.97-2.19-2.31-4.13-4.59-5.8-6.84-1.68-2.25-2.52-4.02-2.54-5.3Z"/>
    <path class="cls-2" d="M1069.51,672.86c.68-3.29,1.5-7.36,2.45-12.23.95-4.86,2.11-10.09,3.5-15.67,1.38-5.58,2.91-11.27,4.58-17.08,1.67-5.8,3.54-11.36,5.59-16.67,2.05-5.31,4.23-10.12,6.52-14.44,2.29-4.32,4.75-7.71,7.38-10.18.88-.73,1.94-1.24,3.2-1.56,1.25-.31,2.4-.47,3.44-.49,2.07-.04,4.04.32,5.92,1.07,1.87.75,3.66,1.68,5.39,2.79,1.72,1.11,3.38,2.33,4.96,3.65,1.58,1.33,3.05,2.55,4.41,3.66,5.42,4.32,10.31,8.5,14.69,12.56,4.38,4.05,8.12,8.37,11.25,12.94,3.12,4.57,5.59,9.62,7.4,15.15,1.81,5.52,2.78,11.85,2.91,18.97.08,4.27-.5,9.17-1.73,14.67-1.23,5.51-3.02,11.21-5.36,17.09-2.34,5.89-5.2,11.67-8.58,17.36-3.38,5.69-7.18,10.79-11.4,15.28-4.22,4.5-8.75,8.14-13.59,10.94-4.84,2.8-10.01,4.24-15.49,4.35-5.07-1.62-9.94-3.91-14.59-6.89-4.65-2.98-8.72-6.47-12.21-10.46-3.49-4-6.27-8.43-8.37-13.31-2.09-4.88-3.19-10.09-3.29-15.65-.04-2.42-.02-5.02.08-7.8.09-2.78.42-5.46.97-8.03ZM1106.09,653.8c-2.51,8.6-4.1,17.28-4.75,26.06-.66,8.78-.9,17.65-.74,26.63l.05,2.56c.15,0,.37-.15.66-.44.15,0,.29-.08.44-.22,3.62-4.48,7.25-9.25,10.86-14.31,3.61-5.05,6.86-10.31,9.72-15.78,2.87-5.47,5.17-11.1,6.92-16.91,1.75-5.8,2.57-11.7,2.46-17.68-.07-3.7-.62-7.43-1.65-11.19-1.04-3.76-2.4-7.33-4.09-10.72-.31-.71-.73-1.55-1.27-2.54-.54-.98-1.12-2.04-1.73-3.17-.62-1.27-1.24-2.54-1.85-3.81l-.66.65c-.15.15-.47.86-.96,2.15-.5,1.29-1.03,2.73-1.59,4.3-.57,1.58-1.13,3.12-1.69,4.63-.57,1.51-.99,2.69-1.27,3.55-.28,1-.84,2.72-1.69,5.16-.84,2.44-1.76,5.06-2.75,7.85-.99,2.8-1.9,5.45-2.75,7.96-.84,2.51-1.41,4.27-1.68,5.27Z"/>
    <path class="cls-2" d="M1163.37,610.43c3.18-4.47,6.66-8.63,10.45-12.48,3.78-3.84,7.91-7.13,12.39-9.85,4.47-2.72,9.26-4.84,14.35-6.35,5.09-1.52,10.53-2.19,16.32-2.01,2.23.1,4.81,1.3,7.74,3.6,2.93,2.3,5.66,5.28,8.17,8.93,2.51,3.66,4.63,7.82,6.35,12.49,1.72,4.67,2.47,9.36,2.26,14.07-.3,7.7-1.87,15.32-4.7,22.85-2.83,7.53-6.18,15.01-10.05,22.41-3.87,7.41-7.85,14.65-11.95,21.7-4.1,7.06-7.57,13.89-10.42,20.5,6.18-2.96,12.22-5.07,18.13-6.32,5.91-1.25,11.38-2.06,16.42-2.44,2.37-.18,4.24.49,5.6,2.03,1.36,1.55,2.4,3.48,3.11,5.82.71,2.34,1.13,4.93,1.26,7.78.12,2.85.02,5.45-.3,7.81-.33,2.36-.78,4.36-1.34,6.01-.56,1.65-1.14,2.48-1.73,2.49-6.67.12-12.68.2-18.02.22-5.34.03-10.56.23-15.67.61-5.11.38-10.37,1.01-15.76,1.89-5.4.88-11.57,2.17-18.51,3.87-2.96.77-6.15.36-9.59-1.21-3.44-1.57-6.48-3.51-9.12-5.82-2.64-2.3-4.61-4.58-5.91-6.84-1.3-2.25-1.44-3.82-.42-4.69.29-.15,1.16-1.12,2.62-2.93,1.45-1.81,3.05-3.8,4.79-5.97,1.74-2.17,3.33-4.23,4.78-6.18,1.44-1.95,2.31-3.14,2.6-3.57,2.46-3.47,5.57-7.65,9.34-12.57,3.76-4.91,7.75-10.19,11.95-15.82,4.2-5.64,8.28-11.44,12.25-17.43,3.97-5.98,7.42-11.86,10.36-17.61,2.93-5.75,5.02-11.21,6.26-16.36,1.24-5.15,1.23-9.71-.03-13.68-.32-1.13-1.25-1.47-2.8-1.02-1.55.46-3.39,1.42-5.51,2.88-2.13,1.47-4.43,3.29-6.91,5.47-2.48,2.18-4.85,4.36-7.11,6.54-2.26,2.18-4.3,4.21-6.12,6.1-1.82,1.89-3.09,3.34-3.81,4.34-.29.29-.51.58-.65.87-.14.29-.44.43-.88.44-1.33.02-3.09-.8-5.27-2.47-2.18-1.67-4.37-3.66-6.56-5.97-2.19-2.31-4.13-4.59-5.8-6.84-1.67-2.25-2.52-4.02-2.54-5.3Z"/>
    <path class="cls-2" d="M1343.5,581.48c2.37-.04,4.17,1.07,5.4,3.32,1.23,2.26,2.09,4.77,2.59,7.54.5,2.77.73,5.3.7,7.58-.03,2.28-.12,3.42-.27,3.42-4.15.08-7.89.32-11.22.74-3.33.42-6.62.94-9.87,1.57-3.25.63-6.65,1.37-10.19,2.22-3.54.85-7.61,1.74-12.19,2.68-1.04.16-1.98,1.07-2.84,2.72-.86,1.66-1.6,3.52-2.23,5.6-.63,2.08-1.11,4.12-1.45,6.12-.33,2-.49,3.43-.48,4.28,5.59-2.24,11.29-3.41,17.07-3.52,3.85-.07,7.61.47,11.27,1.61,3.65,1.15,6.91,2.83,9.77,5.06,2.86,2.23,5.21,4.93,7.05,8.1,1.84,3.17,2.79,6.76,2.87,10.74.09,4.84-.59,10.2-2.04,16.07-1.45,5.87-3.53,11.75-6.24,17.64-2.71,5.89-5.94,11.62-9.7,17.17-3.76,5.56-7.93,10.51-12.52,14.87-4.59,4.36-9.53,7.87-14.83,10.53-5.29,2.66-10.76,4.04-16.39,4.15-7.42.14-13.33-1.07-17.75-3.63-4.42-2.55-7.71-5.77-9.86-9.65-2.15-3.88-3.45-8.17-3.91-12.86-.46-4.69-.43-9.18.09-13.47.51-4.28,1.3-8,2.35-11.16,1.05-3.15,1.94-5.09,2.67-5.82,1.6-1.74,3.88-2.46,6.86-2.16,2.97.3,5.84,1.18,8.61,2.62,2.77,1.45,5.07,3.26,6.89,5.43,1.82,2.18,2.38,4.2,1.67,6.06-.28,1-1.02,2.87-2.23,5.6-1.21,2.73-2.35,5.57-3.4,8.51-1.06,2.94-1.9,5.63-2.52,8.06-.62,2.44-.49,3.79.41,4.05,1.35.55,3.59-.21,6.74-2.26,3.15-2.05,6.66-4.97,10.52-8.74,3.86-3.77,7.86-8.23,11.99-13.37,4.13-5.13,7.89-10.47,11.28-16.02,3.38-5.55,6.14-11.12,8.26-16.72,2.12-5.6,3.14-10.81,3.05-15.66-2.52.19-5.33.74-8.42,1.65-3.1.91-6.23,2.04-9.39,3.38-3.17,1.34-6.22,2.75-9.16,4.23-2.94,1.48-5.51,2.81-7.71,3.99-1.33.02-3.12-.55-5.37-1.72-2.25-1.17-4.5-2.59-6.75-4.26-2.26-1.67-4.18-3.41-5.77-5.24-1.59-1.82-2.4-3.45-2.43-4.87-.05-2.56.24-5.31.85-8.24.61-2.93,1.34-5.69,2.18-8.27.84-2.58,1.69-4.95,2.54-7.1.85-2.15,1.41-3.73,1.69-4.73-1.08-1.97-1.64-4.46-1.69-7.45-.05-2.85.68-5.14,2.21-6.88,1.53-1.74,3.62-3.06,6.27-3.96.72-1.3,1.54-2.59,2.49-3.89.94-1.3,2.3-1.97,4.08-2,1.63-.03,3.04.3,4.25.99,1.2.69,2.39,1.02,3.58,1,3.41-.06,6.81-.37,10.22-.94,3.4-.56,6.76-1.19,10.09-1.9,3.32-.7,6.65-1.33,9.98-1.89,3.33-.56,6.77-.87,10.33-.94Z"/>
  </g>
  <path class="cls-1" d="M685.11,307.84c5.72,0,10.2,2.24,13.44,6.72,3.24,4.48,5.67,9.87,7.29,16.16,1.62,6.29,2.67,12.73,3.15,19.3.47,6.58.72,11.97.72,16.16,0,8.39-.67,17.92-2,28.6-1.34,10.68-3.39,21.64-6.15,32.89-2.77,11.25-6.34,22.26-10.72,33.03-4.39,10.77-9.68,20.35-15.87,28.74-6.2,8.39-13.35,15.16-21.45,20.31-8.11,5.15-17.3,7.72-27.6,7.72-12.97,0-22.69-3.33-29.17-10.01-1.14,2.29-2,4.63-2.57,7.01-.57,2.38-1.24,4.81-2,7.29-.57,1.72-1.91,2.57-4,2.57s-4.63-.76-7.58-2.29c-2.96-1.53-5.77-3.39-8.44-5.58-2.67-2.19-4.86-4.58-6.58-7.15-1.72-2.57-2.29-4.91-1.72-7.01,3.62-10.87,8.62-21.26,15.01-31.17,6.39-9.91,14.06-18.49,23.02-25.74.95-.57,1.9-.86,2.86-.86,2.1,0,4.43,1,7.01,3,2.57,2,5.01,4.39,7.29,7.15,2.29,2.77,4.19,5.53,5.72,8.29,1.52,2.77,2.29,4.91,2.29,6.43,0,.96-.86,2.43-2.57,4.43-1.72,2-3.72,4.15-6.01,6.44-2.29,2.29-4.53,4.53-6.72,6.72-2.19,2.19-3.67,4.05-4.43,5.58,5.72,0,11.2-1.81,16.44-5.43,5.24-3.62,10.15-8.34,14.73-14.16,4.58-5.81,8.77-12.34,12.58-19.59,3.81-7.24,7.24-14.54,10.3-21.88,3.05-7.34,5.62-14.34,7.72-21.02,2.1-6.67,3.62-12.3,4.58-16.87.19-.95.57-2.57,1.14-4.86.57-2.29,1.09-4.67,1.57-7.15.47-2.48.9-4.81,1.29-7.01.38-2.19.57-3.58.57-4.15-1.53,3.24-3.62,7.2-6.29,11.87-2.67,4.67-5.68,9.54-9.01,14.59-3.34,5.05-6.96,10.15-10.87,15.3-3.91,5.15-7.91,9.72-12.01,13.73-4.1,4-8.25,7.25-12.44,9.72-4.2,2.48-8.29,3.72-12.3,3.72-5.72,0-11.15-1.33-16.3-4-5.15-2.67-9.72-6.19-13.73-10.58-4-4.38-7.2-9.29-9.58-14.73-2.39-5.43-3.57-10.91-3.57-16.44,0-6.48.62-12.77,1.86-18.88,1.24-6.1,2.81-12.15,4.72-18.16,1.9-6.01,4-11.91,6.29-17.73,2.29-5.81,4.48-11.68,6.58-17.59.38-.95.62-1.62.71-2,.09-.38.62-.76,1.57-1.14,3.24,0,6.15.67,8.72,2,2.57,1.34,4.81,3.15,6.72,5.43,1.9,2.29,3.38,4.86,4.43,7.72,1.05,2.86,1.57,5.82,1.57,8.87,0,5.15-.57,10.35-1.72,15.59-1.14,5.25-2.43,10.58-3.86,16.02-1.43,5.43-2.72,10.87-3.86,16.3-1.14,5.43-1.72,10.92-1.72,16.44,3.62-1.33,7.48-3.81,11.58-7.44,4.1-3.62,8.29-8.01,12.58-13.16,4.29-5.15,8.53-10.77,12.73-16.87,4.19-6.1,8.15-12.2,11.87-18.3,3.72-6.1,7.1-11.87,10.15-17.3,3.05-5.43,5.62-10.05,7.72-13.87,1.52-3.05,3.33-5.76,5.43-8.15,2.1-2.38,5.05-3.58,8.87-3.58Z"/>
</svg>