<?xml version="1.0" encoding="UTF-8"?>
<svg id="Camada_1" data-name="Camada 1" xmlns="http://www.w3.org/2000/svg" viewBox="0 0 1920 1080">
  <defs>
    <style>
      .cls-1 {
        fill: #e2001a;
      }

      .cls-2 {
        fill: #fff;
      }
    </style>
  </defs>
  <path d="M632.76,354.83l-22.26,19.76,1.88,61.16,43.54,33.08,167.84,17.55,141.09,26.6,171.21-37.05,228.28,15.1s39.96,6.05,54.08-5.85c21.69-18.29,36.65-47.72,36.65-47.72l-22.37-51.79-802.63-63.77"/>
  <g>
    <path d="M483.51,290.97c-1.11-1.4-.24-4.22,2.61-8.45,2.85-4.23,7.26-9.19,13.25-14.9,5.99-5.7,13.27-11.76,21.84-18.19,8.57-6.42,17.98-12.52,28.21-18.29,10.24-5.77,21.08-10.85,32.53-15.23,11.45-4.38,22.87-7.42,34.28-9.11,8.99-1.33,18-1.76,27.03-1.31,9.03.46,17.78,2.02,26.24,4.69,8.46,2.67,16.41,6.43,23.85,11.26,7.44,4.84,13.95,10.99,19.53,18.45,3.63,4.84,6.8,10.03,9.53,15.56,2.72,5.54,4.52,11.26,5.4,17.18,1.36,9.21.7,17.6-1.99,25.16-2.69,7.57-6.78,14.34-12.29,20.3-5.5,5.97-12.01,11.24-19.5,15.82-7.5,4.59-15.44,8.5-23.8,11.76-8.37,3.26-16.77,5.9-25.21,7.93-8.44,2.04-16.27,3.58-23.51,4.66l7.17,89.34c.23,1.53-.69,2.9-2.75,4.1-2.07,1.2-4.66,2.25-7.77,3.17-3.12.91-6.5,1.52-10.15,1.84-3.65.31-7.13.32-10.41.03-3.29-.3-6.09-1.01-8.38-2.12-2.3-1.12-3.6-2.78-3.93-4.96-.81-5.48-1.63-13.31-2.47-23.5-.83-10.18-1.67-21.54-2.52-34.07-.85-12.53-1.66-25.58-2.43-39.13-.78-13.55-1.49-26.33-2.14-38.33-.66-12-1.16-22.62-1.52-31.87-.36-9.24-.62-15.87-.76-19.88-5.19,2.78-10.75,6.08-16.69,9.86-5.94,3.79-11.16,7.48-15.67,11.06-4.51,3.58-7.95,6.84-10.32,9.76-2.37,2.93-2.8,4.95-1.29,6.07,7.27,5.2,13.13,10.38,17.59,15.55,4.46,5.17,7.94,10.92,10.45,17.27,2.5,6.35,4.1,13.73,4.79,22.14.68,8.42.99,18.45.93,30.11-.03,1.35-2.2,2.57-6.52,3.65-4.32,1.09-9.11,1.68-14.35,1.79-5.25.11-10.16-.51-14.73-1.85-4.57-1.34-6.99-3.67-7.25-6.99-1-11.28-2.2-20.56-3.62-27.86-1.42-7.3-3.42-14-6-20.12-2.58-6.11-6.03-12.38-10.34-18.8-4.31-6.42-9.96-14.26-16.93-23.54ZM595.08,252.29c4.11.52,7.84,1.53,11.21,3.05,3.36,1.52,5.88,4.17,7.56,7.96.63,1.25,1.21,4.75,1.72,10.5.51,5.75.99,12.01,1.43,18.78.44,6.77.89,13.2,1.34,19.29.45,6.1.81,10.02,1.07,11.77,15.57-2.3,29.77-8.1,42.63-17.4,12.85-9.29,22.96-20.87,30.32-34.73.84-1.91,1.86-4.08,3.07-6.5,1.21-2.42,1.76-4.74,1.66-6.97-5.13-4.39-12.1-7.56-20.9-9.51-8.8-1.94-18.08-2.92-27.83-2.94-9.75-.01-19.4.63-28.95,1.93-9.55,1.3-17.67,2.9-24.33,4.78Z"/>
    <path d="M602.5,492.26c-2.74,0-5.42-.12-8.04-.35-7.6-.69-14.53-2.55-20.66-5.53-12.85-6.27-21.37-17.76-23.41-31.54-.93-6.3-1.83-14.73-2.73-25.78-.1-1.24-.2-2.5-.31-3.78-1.41.08-2.83.14-4.27.16-8.82.17-17.36-.92-25.37-3.28-18.53-5.44-30.96-19.93-32.47-37.84-.88-9.97-1.93-18.1-3.1-24.16-.94-4.85-2.24-9.26-3.86-13.09-1.7-4.02-4.1-8.35-7.14-12.87-3.9-5.81-9.23-13.21-15.84-22.01h0c-4.51-6.05-15.09-24.64,1.55-49.37,4.32-6.41,10.27-13.2,18.19-20.75,6.96-6.63,15.38-13.65,25.02-20.87,9.76-7.31,20.53-14.3,32.04-20.79,11.72-6.61,24.25-12.48,37.25-17.45,13.8-5.28,27.84-9,41.73-11.06,11.23-1.66,22.65-2.21,33.97-1.65,12.01.61,23.8,2.72,35.07,6.27,11.47,3.62,22.39,8.78,32.47,15.33,10.89,7.09,20.49,16.13,28.55,26.88,4.92,6.57,9.27,13.68,12.94,21.13,4.34,8.84,7.25,18.12,8.65,27.61,2.21,14.94.98,29.12-3.65,42.15-4.29,12.06-10.88,22.96-19.6,32.42-7.68,8.34-16.79,15.75-27.05,22.02-9.22,5.64-19.12,10.53-29.41,14.53-7.87,3.06-15.87,5.69-23.84,7.84l4.64,57.77c1.58,15.34-6,29.78-20.09,38.01-4.67,2.71-9.75,4.83-15.64,6.56-5.36,1.56-11.06,2.61-16.99,3.13-2.91.25-5.78.38-8.6.38Z"/>
  </g>
  <g>
    <path d="M811.39,221.62c5.99,0,10.68,2.35,14.08,7.04,3.39,4.69,5.94,10.34,7.64,16.93,1.69,6.59,2.79,13.33,3.3,20.22.5,6.89.75,12.54.75,16.93,0,8.79-.7,18.78-2.1,29.96-1.4,11.19-3.55,22.67-6.44,34.45-2.9,11.79-6.64,23.32-11.23,34.6-4.6,11.29-10.14,21.32-16.63,30.11-6.49,8.79-13.98,15.88-22.47,21.27-8.49,5.39-18.13,8.09-28.91,8.09-13.58,0-23.77-3.49-30.56-10.49-1.2,2.4-2.1,4.85-2.7,7.34-.6,2.5-1.3,5.04-2.1,7.64-.6,1.8-2,2.7-4.19,2.7s-4.84-.8-7.94-2.4c-3.1-1.6-6.04-3.55-8.84-5.84-2.8-2.29-5.09-4.79-6.89-7.49-1.8-2.7-2.4-5.14-1.8-7.34,3.79-11.38,9.03-22.27,15.73-32.65,6.69-10.38,14.73-19.37,24.12-26.96,1-.6,1.99-.9,3-.9,2.2,0,4.64,1.05,7.34,3.15,2.7,2.1,5.24,4.6,7.64,7.49,2.4,2.9,4.39,5.8,5.99,8.69,1.6,2.9,2.4,5.14,2.4,6.74,0,1-.9,2.55-2.7,4.64-1.8,2.1-3.9,4.34-6.29,6.74-2.4,2.4-4.75,4.75-7.04,7.04-2.3,2.3-3.85,4.25-4.64,5.84,5.99,0,11.73-1.9,17.23-5.69,5.49-3.79,10.64-8.73,15.43-14.83,4.79-6.09,9.18-12.93,13.18-20.52,3.99-7.59,7.59-15.23,10.78-22.92,3.19-7.69,5.89-15.03,8.09-22.02,2.19-6.99,3.79-12.88,4.79-17.68.2-1,.6-2.7,1.2-5.09.6-2.4,1.15-4.89,1.65-7.49.5-2.59.95-5.04,1.35-7.34.4-2.29.6-3.75.6-4.34-1.6,3.4-3.8,7.54-6.59,12.43-2.8,4.9-5.95,9.99-9.44,15.28-3.5,5.29-7.29,10.64-11.38,16.03-4.1,5.39-8.29,10.19-12.58,14.38-4.3,4.19-8.64,7.59-13.03,10.19-4.4,2.6-8.69,3.89-12.88,3.89-5.99,0-11.68-1.39-17.08-4.19-5.39-2.8-10.19-6.49-14.38-11.09-4.19-4.59-7.54-9.74-10.04-15.43-2.5-5.69-3.74-11.43-3.74-17.23,0-6.79.65-13.38,1.95-19.77,1.3-6.39,2.94-12.73,4.94-19.02,1.99-6.29,4.19-12.48,6.59-18.57,2.4-6.09,4.69-12.23,6.89-18.43.4-1,.65-1.69.75-2.1.1-.4.65-.8,1.65-1.2,3.39,0,6.44.7,9.14,2.1,2.7,1.4,5.04,3.29,7.04,5.69,1.99,2.4,3.54,5.09,4.64,8.09,1.1,3,1.65,6.1,1.65,9.29,0,5.39-.6,10.84-1.8,16.33-1.2,5.5-2.55,11.08-4.04,16.78-1.5,5.69-2.85,11.38-4.04,17.08-1.2,5.69-1.8,11.44-1.8,17.23,3.79-1.4,7.84-3.99,12.13-7.79,4.29-3.79,8.69-8.39,13.18-13.78,4.49-5.39,8.94-11.28,13.33-17.68,4.39-6.39,8.54-12.78,12.43-19.17,3.89-6.39,7.44-12.43,10.64-18.13,3.19-5.69,5.89-10.53,8.09-14.53,1.6-3.19,3.49-6.04,5.69-8.54,2.2-2.5,5.29-3.75,9.29-3.75Z"/>
    <path d="M709.83,483.71c-7.87,0-15.99-2.13-24.12-6.32-5.29-2.73-10.35-6.07-15.05-9.93-5.45-4.47-10.13-9.59-13.86-15.19-7.48-11.22-9.79-24.08-6.49-36.19.17-.63.36-1.26.57-1.88,4.71-14.13,11.28-27.8,19.55-40.62,2.15-3.34,4.42-6.58,6.81-9.72-5.17-6.37-9.45-13.4-12.76-20.96-4.45-10.14-6.71-20.71-6.71-31.39,0-9.13.89-18.15,2.66-26.81,1.54-7.58,3.52-15.21,5.89-22.67,2.21-6.96,4.69-13.96,7.38-20.81,2.21-5.61,4.39-11.43,6.48-17.32.13-.36.26-.72.4-1.07,3.34-10.45,11.27-18.8,22.09-23.15,4.19-1.68,8.66-2.55,13.17-2.55,9.07,0,17.6,2.03,25.36,6.04,6.9,3.58,12.92,8.43,17.93,14.44,1.23,1.47,2.38,3,3.46,4.57.95-1.7,1.82-3.29,2.64-4.76,2.88-5.62,6.38-10.78,10.4-15.35,8.92-10.14,21.63-15.72,35.78-15.72,17.41,0,32.56,7.68,42.66,21.63,5.99,8.29,10.44,17.98,13.24,28.82,2.22,8.63,3.67,17.53,4.32,26.48.57,7.87.84,14.24.84,19.49,0,10.18-.8,21.73-2.37,34.33-1.56,12.48-3.98,25.43-7.19,38.5-3.29,13.4-7.61,26.68-12.82,39.49-5.69,13.96-12.73,26.66-20.93,37.77-9.05,12.25-19.79,22.38-31.93,30.09-14.21,9.02-30.3,13.6-47.84,13.6-5.36,0-10.31-.39-14.9-1.08-6.78,5.27-15.34,8.27-24.65,8.27ZM748.45,242.04c-.03.12-.06.24-.09.35-.03.11-.06.22-.09.33.06-.22.12-.45.17-.68ZM796.41,233.9h.02-.02Z"/>
  </g>
  <g>
    <path d="M816.47,275.58c0-4.39,2.94-8.73,8.84-13.03,5.89-4.29,13.38-8.39,22.47-12.28,9.09-3.9,19.12-7.49,30.11-10.79,10.98-3.3,21.62-6.14,31.91-8.54,10.28-2.4,19.57-4.24,27.86-5.54,8.29-1.3,14.23-1.95,17.83-1.95,8.58,0,15.88,1.85,21.87,5.54,5.99,3.7,10.93,8.54,14.83,14.53,3.9,5.99,6.74,12.73,8.54,20.22,1.8,7.49,2.7,15.03,2.7,22.62,0,1.6-.55,2.55-1.65,2.85-1.1.3-2.35.45-3.74.45-3.6,0-6.84-.7-9.74-2.1-2.9-1.4-5.44-3.29-7.64-5.69-2.2-2.4-4.1-5.09-5.69-8.09-1.6-3-3-5.99-4.19-8.99-7.99,0-15.98.8-23.97,2.4-7.99,1.6-15.78,3.3-23.37,5.09,0,24.17.1,47.44.3,69.81.2,22.37.9,45.74,2.1,70.1.2,2.6.7,5.59,1.5,8.99.8,3.4,1.65,6.69,2.55,9.89.9,3.2,1.69,6.04,2.4,8.54.7,2.5,1.05,4.14,1.05,4.94,0,1.6-.5,2.5-1.5,2.7-1,.2-2.2.3-3.59.3-4.79,0-9.49-.2-14.08-.6-4.6-.4-8.69-1.45-12.28-3.15-3.6-1.7-6.59-4.24-8.99-7.64-2.4-3.39-3.89-8.09-4.49-14.08-1.2-12.58-1.95-24.82-2.25-36.7-.3-11.88-.45-23.71-.45-35.5s.1-23.62.3-35.5c.2-11.88.3-24.21.3-37-7.59,2.4-15.18,4.9-22.77,7.49-7.59,2.6-14.88,5.89-21.87,9.89v2.4c1.6,3.2,2.85,6.44,3.75,9.74.9,3.29,1.35,6.64,1.35,10.04,0,1-.05,2.5-.15,4.49-.1,2-.95,3-2.55,3-3.8,0-7.34-1.95-10.64-5.84-3.3-3.89-6.19-8.54-8.69-13.93-2.5-5.39-4.49-10.83-5.99-16.33-1.5-5.49-2.25-9.74-2.25-12.73Z"/>
    <path d="M928.22,482.84c-5.77,0-11.54-.25-17.13-.73-8.76-.77-16.92-2.91-24.28-6.38-9.19-4.34-16.85-10.8-22.78-19.22-5.93-8.4-9.56-18.81-10.77-30.92l-.02-.17c-1.27-13.34-2.08-26.52-2.39-39.16-.23-9.01-.37-18.08-.43-27.08-2.07.34-4.2.52-6.38.52-14.23,0-27.58-6.51-37.58-18.34-5.33-6.29-9.96-13.67-13.78-21.91-3.3-7.12-6-14.48-8.01-21.86-2.38-8.72-3.49-15.72-3.49-22.02,0-11.19,4.05-27.49,23.34-41.55,8.12-5.92,17.73-11.22,29.36-16.21,10.26-4.4,21.66-8.49,33.87-12.15,11.62-3.49,23.07-6.55,34.04-9.11,11.01-2.57,21.23-4.6,30.39-6.04,10.5-1.64,17.68-2.37,23.3-2.37,15.18,0,28.77,3.63,40.39,10.79,10.46,6.45,19.17,14.98,25.9,25.34,6.07,9.34,10.54,19.84,13.27,31.22,2.44,10.15,3.67,20.53,3.67,30.86,0,17.54-11.1,32.36-27.61,36.89-4.17,1.14-8.55,1.7-13.08,1.7-8.96,0-17.4-1.89-25.11-5.62-5.12-2.47-9.86-5.65-14.11-9.47.05,10.9.12,21.56.21,31.91.19,21.51.87,44.38,2.02,68,.05.45.21,1.51.63,3.31.67,2.86,1.39,5.67,2.17,8.42l2.4,8.54c1.24,4.44,2.37,9.21,2.37,14.51,0,18.41-12.26,33.75-29.81,37.3l-.2.04c-3.29.64-6.68.96-10.38.96Z"/>
  </g>
  <g>
    <path d="M1110.9,204.58c1.6-2.4,3.89-3.69,6.89-3.89,3-.2,6.39.2,10.19,1.2,3.79,1,7.64,2.4,11.53,4.19,3.89,1.8,7.34,3.5,10.34,5.09-4.6,13.78-7.74,27.71-9.44,41.79-1.7,14.08-3.55,28.31-5.54,42.69v2.4h8.99c7.79,0,12.93,2.15,15.43,6.44,2.49,4.3,3.75,10.04,3.75,17.23v2.4c0,1.2-.1,2.4-.3,3.6-.2,1.2-.4,2.3-.6,3.29-.2,1-.6,1.5-1.2,1.5l-28.16.3c-.2,10.78-.35,20.87-.45,30.26-.1,9.39.05,18.53.45,27.41.4,8.89,1.15,17.78,2.25,26.66,1.1,8.89,2.64,18.13,4.64,27.71.6,2.8.1,4.79-1.5,5.99-1.6,1.2-3.65,1.95-6.14,2.25-2.5.3-5.09.4-7.79.3-2.7-.1-4.84-.15-6.44-.15-4.4.2-8.09-2-11.08-6.59-3-4.6-5.5-10.59-7.49-17.98-2-7.39-3.55-15.63-4.64-24.72-1.1-9.09-1.9-17.98-2.4-26.66-.5-8.69-.8-16.67-.9-23.97-.1-7.29-.05-12.73.15-16.33-6.39.2-11.98.55-16.78,1.05-4.79.5-9.09,1.15-12.88,1.95-3.8.8-7.29,1.65-10.49,2.55-3.2.9-6.59,1.85-10.19,2.85l-4.49,56.32c-.2,1.8-2.4,2.9-6.59,3.3-4.19.4-8.79.2-13.78-.6-4.99-.8-9.59-2.14-13.78-4.04-4.19-1.9-6.39-4.24-6.59-7.04,0-2.2.15-4.74.45-7.64.3-2.89.7-5.89,1.2-8.99.5-3.09,1-6.24,1.5-9.44.5-3.19.95-6.09,1.35-8.69-1.6,0-3.55.5-5.84,1.5-2.3,1-3.95,2-4.94,3-2.4-1.6-4.99-3.99-7.79-7.19-2.8-3.19-5.14-6.44-7.04-9.74-1.9-3.3-3.05-6.44-3.45-9.44-.4-3,.6-5.09,3-6.29,3-1.6,5.64-2.94,7.94-4.04,2.29-1.1,4.49-2.1,6.59-3,2.1-.9,4.24-1.8,6.44-2.7,2.2-.9,4.59-1.95,7.19-3.15l3.3-82.99c0-1.99,2.05-3.24,6.14-3.75,4.09-.5,8.54-.4,13.33.3,4.79.7,9.18,2.05,13.18,4.04,3.99,2,5.99,4.6,5.99,7.79l-1.2,61.42c3.39-.8,7.54-1.6,12.43-2.4,4.89-.8,9.93-1.5,15.13-2.1,5.19-.6,10.23-1.1,15.13-1.5,4.89-.4,8.94-.5,12.13-.3,0-1,.15-3.75.45-8.24.3-4.49.7-9.89,1.2-16.18.5-6.29,1.15-13.13,1.95-20.52.8-7.39,1.65-14.43,2.55-21.12.9-6.69,1.95-12.53,3.15-17.53,1.2-4.99,2.4-8.29,3.6-9.89Z"/>
    <path d="M1126.2,488.73c-1.08,0-2.16-.02-3.25-.06-2.38-.09-3.87-.12-4.71-.12-16.47.34-31.47-7.84-41.1-22.61-5.09-7.81-9.01-16.98-12-28.06-.99-3.66-1.89-7.49-2.7-11.47-6.16,6.99-15.6,12.46-29.09,13.75-7.12.68-14.78.39-22.71-.89-8.03-1.28-15.7-3.55-22.75-6.74-22.98-10.39-26.7-29.13-27.24-36.71l-.09-1.24v-1.24c0-2.57.12-5.28.35-8.22-1.91-1.82-3.81-3.82-5.72-6-4.27-4.87-8.01-10.06-11.06-15.37-4.19-7.26-6.83-14.8-7.84-22.39-2.37-17.64,6.1-34.16,21.63-42.21,3.41-1.81,6.38-3.32,9.06-4.61.36-.17.71-.34,1.06-.5l2.42-60.88c.64-16.16,12.32-34.35,37.13-37.38,7.21-.88,14.84-.74,22.7.41,8.51,1.25,16.52,3.73,23.85,7.39,6.78,3.39,12.39,7.99,16.62,13.42.67-3.82,1.41-7.39,2.22-10.75,2.34-9.73,5.07-16.39,9.07-21.99,7.68-11.03,19.79-17.85,33.37-18.77,6.84-.45,14.06.32,21.52,2.27,5.84,1.54,11.66,3.65,17.37,6.29,4.46,2.06,8.55,4.07,12.14,5.99l26.32,14.03-9.44,28.29c-3.82,11.46-6.47,23.18-7.88,34.84-.53,4.38-1.08,8.81-1.64,13.26,8.24,5.03,13.2,11.52,15.97,16.29,5.67,9.77,8.54,21.53,8.54,34.98v2.4c0,3.07-.26,6.2-.76,9.29-.28,1.71-.55,3.15-.81,4.46-3.08,15.37-14.64,26.66-29.16,29.33-.02,7.4.13,14.67.44,21.68.36,7.95,1.03,15.99,2.01,23.92.97,7.87,2.37,16.2,4.15,24.77,3.42,16.16-2.26,32.06-14.85,41.5-6.64,4.97-14.41,8.01-23.11,9.06-3.27.39-6.63.59-10.04.59ZM1105.13,452.21v.04s0-.04,0-.04Z"/>
  </g>
  <g>
    <path d="M1344.24,262.79c3.01,4.78,5.42,9.27,7.23,13.46,1.81,4.19,3.07,8.38,3.78,12.57.71,4.19.92,8.54.64,13.03-.29,4.49-1.02,9.54-2.2,15.14-1.77,8.39-4.85,17.19-9.21,26.39-4.37,9.2-9.79,18.3-16.25,27.31-6.47,9.01-13.69,17.57-21.65,25.68-7.97,8.11-16.34,15.28-25.11,21.49-8.77,6.22-17.85,11.19-27.22,14.91-9.38,3.72-18.56,5.59-27.55,5.62-9.99.03-19.58-1.84-28.78-5.61-9.2-3.77-17.36-8.94-24.46-15.51-7.11-6.57-12.82-14.29-17.14-23.17-4.32-8.87-6.6-18.41-6.82-28.59-.24-12.38,2.03-24.87,6.79-37.47,4.76-12.6,10.87-24.6,18.32-36,7.46-11.4,15.71-21.96,24.78-31.68,9.06-9.71,17.78-17.88,26.15-24.49,1.2-1,2.89-1.06,5.09-.16,2.2.89,4.6,2.14,7.2,3.72,2.6,1.59,5.15,3.38,7.65,5.37,2.5,1.99,4.75,3.68,6.76,5.07h.3s-7.21-8.67-7.21-8.67c.59-3.39,3.92-6.25,10.01-8.57,6.08-2.31,13.62-3.48,22.61-3.51,5.59-.02,11.43.57,17.53,1.75,6.09,1.18,12.09,3.07,17.99,5.64,5.9,2.58,11.5,6.01,16.81,10.29,5.3,4.28,9.96,9.61,13.98,15.99ZM1192.76,408.22c2.4,1.19,5.2,1.78,8.39,1.77,6.19-.02,13.27-2.08,21.25-6.2,7.97-4.11,16.25-9.68,24.82-16.7,8.57-7.01,17.03-15.13,25.4-24.34,8.36-9.21,15.98-18.87,22.84-28.97,6.86-10.1,12.57-20.41,17.14-30.91,4.56-10.5,7.23-20.44,8.01-29.83.39-4.39-.52-7.44-2.72-9.13-2.2-1.69-5-2.53-8.4-2.52-3,0-6.24.47-9.73,1.38-3.49.91-6.94,2.02-10.33,3.32-3.39,1.31-6.48,2.67-9.28,4.07-2.8,1.41-4.99,2.51-6.58,3.31-1.2.6-2.5.46-3.9-.44-1.4-.89-2.7-2.19-3.91-3.88-1.2-1.69-2.41-3.49-3.61-5.38-1.2-1.89-2.31-3.54-3.31-4.93-4.19,2.81-8.12,6.07-11.81,9.77-3.69,3.71-7.22,7.36-10.6,10.97-2.39,2.6-5.77,7.21-10.15,13.81-4.38,6.6-9.05,14.26-14.02,22.96-4.97,8.7-9.69,17.9-14.15,27.6-4.47,9.7-7.94,18.85-10.41,27.44-2.48,8.6-3.5,16.24-3.08,22.93.42,6.69,3.13,11.33,8.13,13.91Z"/>
    <path d="M1226.79,473.68c-14.6.04-28.82-2.73-42.27-8.25-13.06-5.34-24.85-12.83-35.03-22.25-10.31-9.52-18.69-20.85-24.92-33.65-6.54-13.42-10.03-27.98-10.37-43.25-.32-16.93,2.72-33.95,9.05-50.72,5.65-14.94,12.98-29.36,21.81-42.85,8.52-13.04,18.12-25.3,28.51-36.44,10.16-10.89,20.21-20.29,29.87-27.94,9.92-7.99,22.8-10.5,35.4-7.05,1.26-.57,2.57-1.11,3.94-1.64,10.21-3.88,21.67-5.78,35.06-5.81,7.84-.02,16.03.78,24.34,2.39,8.6,1.67,17.15,4.34,25.41,7.95,8.77,3.84,17.11,8.93,24.83,15.15,8.34,6.74,15.63,15.03,21.69,24.67h0c3.96,6.3,7.24,12.45,9.76,18.27,2.91,6.74,4.99,13.68,6.17,20.64,1.17,6.91,1.52,14.03,1.06,21.21-.39,6.16-1.37,12.95-2.9,20.18-2.34,11.05-6.33,22.56-11.86,34.22-5.25,11.06-11.8,22.08-19.46,32.76-7.48,10.42-15.94,20.46-25.14,29.82-9.41,9.58-19.47,18.18-29.89,25.57-11.02,7.81-22.67,14.17-34.61,18.91-13.45,5.34-27.07,8.07-40.47,8.11ZM1309.83,296.67h0,0Z"/>
  </g>
  <g>
    <path d="M1469.05,255.67c1.22-3.22,3.96-4.53,8.22-3.92,4.25.61,8.73,1.93,13.43,3.94,4.69,2.02,8.89,4.29,12.57,6.82,3.68,2.53,5.35,4.18,5.01,4.92-10.63,30.1-19.11,59.59-25.44,88.47-6.33,28.89-11.25,58.35-14.75,88.38-.29,2.59-2.57,4.69-6.85,6.32-4.28,1.62-9.03,2.55-14.25,2.77-5.23.22-10.18-.21-14.85-1.31-4.67-1.09-7.66-2.99-8.98-5.68l-39.83-80.51c-2.06,6.52-3.72,12.81-4.98,18.87-1.26,6.06-2.34,11.96-3.23,17.68-.89,5.73-1.76,11.36-2.62,16.89-.86,5.53-2.1,10.99-3.74,16.37-.53,1.73-1.95,3.03-4.26,3.91-2.3.89-5.1,1.42-8.39,1.6-3.29.19-6.73.09-10.31-.29-3.59-.38-6.88-.96-9.89-1.74-3.01-.78-5.35-1.79-7.05-3.02-1.7-1.24-2.31-2.52-1.85-3.86,4.04-12.65,7.86-26.25,11.46-40.82,3.59-14.56,6.77-29.31,9.52-44.24,2.75-14.93,5.16-29.67,7.23-44.22,2.06-14.55,3.61-28.23,4.64-41.05.14-1.8,2.13-3.15,5.96-4.05,3.83-.89,8.1-1.15,12.8-.76,4.7.39,9.17,1.5,13.4,3.32,4.23,1.83,6.82,4.46,7.79,7.89l34.52,119.45c2.11-13.22,4.27-25.31,6.47-36.28,2.19-10.97,4.67-21.53,7.42-31.67,2.75-10.15,5.83-20.39,9.22-30.72,3.39-10.33,7.26-21.49,11.58-33.47Z"/>
    <path d="M1444.67,488.73c-7.09.02-14-.75-20.6-2.3-19.15-4.48-28.13-16.06-32-23.34-4.16,4.06-9.22,7.3-14.95,9.49-5.66,2.17-12.08,3.48-19.02,3.87-5.13.29-10.52.15-15.99-.43-5.28-.56-10.31-1.45-14.98-2.66-7.48-1.94-13.7-4.78-19.06-8.7-14.14-10.32-19.84-27.26-14.6-43.28,3.76-11.79,7.38-24.69,10.76-38.36,3.41-13.83,6.46-28.03,9.07-42.17,2.65-14.42,5.01-28.82,6.99-42.79,1.95-13.75,3.43-26.84,4.4-38.9,1.06-13.66,10.32-30.25,33.09-35.59,7.44-1.73,15.42-2.26,23.77-1.57,8.52.71,16.75,2.76,24.46,6.09,12.38,5.35,21.5,14.46,26.15,25.95,1.19-3.38,2.42-6.83,3.68-10.33.07-.19.14-.37.21-.56,7.1-18.69,25.69-29.26,46.22-26.32,7.31,1.05,14.81,3.21,22.32,6.43,6.85,2.94,13.12,6.36,18.68,10.19,24.56,16.89,21.43,36.79,18.28,45.76h0c-10.11,28.62-18.26,56.97-24.24,84.28-6.06,27.64-10.83,56.2-14.17,84.91-.85,7.5-5.45,26.14-29.38,35.23-7.8,2.96-16.31,4.65-25.29,5.03-1.28.05-2.55.08-3.81.09ZM1360.44,443.7s0,.03-.01.04c0-.01,0-.03.01-.04ZM1433.05,440.13c0,.06-.01.11-.02.17,0-.06.01-.11.02-.17ZM1454.86,430.85s0,.02.01.03c0,0,0-.02-.01-.03ZM1395.07,264.7c0,.05,0,.11-.01.16,0-.06,0-.11.01-.16ZM1476.16,252.82c-.52,1.15-.97,2.3-1.36,3.44.07-.19.14-.38.2-.58.34-.97.73-1.93,1.15-2.86ZM1476.18,252.77s-.01.02-.02.03c0-.01.01-.02.02-.03Z"/>
  </g>
  <path class="cls-1" d="M476.45,285.18c-1.09-1.38-.23-4.15,2.57-8.31,2.8-4.15,7.14-9.03,13.02-14.64,5.88-5.6,13.04-11.56,21.46-17.87,8.42-6.31,17.66-12.3,27.72-17.97,10.06-5.67,20.71-10.66,31.96-14.97,11.25-4.31,22.48-7.29,33.68-8.95,8.83-1.31,17.68-1.73,26.56-1.29,8.87.45,17.47,1.99,25.78,4.61,8.31,2.62,16.12,6.31,23.43,11.06,7.31,4.75,13.7,10.8,19.19,18.13,3.56,4.76,6.68,9.86,9.36,15.29,2.67,5.44,4.44,11.07,5.3,16.88,1.34,9.05.69,17.29-1.96,24.73-2.65,7.44-6.67,14.09-12.07,19.95-5.41,5.87-11.8,11.05-19.16,15.55-7.37,4.51-15.17,8.35-23.39,11.55-8.23,3.2-16.48,5.8-24.77,7.79-8.29,2-15.99,3.52-23.1,4.57l7.04,87.78c.22,1.5-.68,2.85-2.71,4.03-2.03,1.18-4.57,2.21-7.63,3.11-3.06.89-6.38,1.49-9.97,1.81-3.59.31-7,.32-10.23.03-3.24-.29-5.98-.99-8.23-2.08-2.26-1.1-3.54-2.73-3.86-4.88-.8-5.38-1.61-13.08-2.43-23.09-.82-10-1.65-21.16-2.48-33.48-.83-12.31-1.63-25.13-2.39-38.45-.76-13.31-1.46-25.87-2.11-37.66-.65-11.79-1.14-22.23-1.5-31.31-.35-9.08-.61-15.6-.74-19.54-5.1,2.74-10.57,5.97-16.4,9.69-5.84,3.73-10.97,7.35-15.4,10.86-4.43,3.52-7.81,6.72-10.14,9.59-2.33,2.88-2.75,4.86-1.26,5.97,7.14,5.11,12.9,10.2,17.28,15.27,4.38,5.08,7.81,10.73,10.27,16.97,2.46,6.24,4.03,13.49,4.71,21.76.67,8.27.98,18.13.91,29.58-.03,1.32-2.16,2.52-6.4,3.59-4.25,1.07-8.95,1.65-14.1,1.76-5.16.1-9.98-.5-14.47-1.82-4.49-1.32-6.86-3.61-7.13-6.87-.98-11.08-2.16-20.21-3.56-27.38-1.39-7.17-3.36-13.75-5.9-19.77-2.54-6.01-5.93-12.17-10.16-18.47-4.24-6.31-9.78-14.02-16.63-23.13ZM586.07,247.16c4.04.51,7.7,1.5,11.01,2.99,3.3,1.49,5.78,4.1,7.43,7.82.62,1.23,1.19,4.67,1.69,10.32.51,5.65.97,11.8,1.41,18.45.43,6.65.87,12.97,1.32,18.96.44,5.99.8,9.85,1.05,11.57,15.29-2.26,29.25-7.96,41.88-17.09,12.63-9.13,22.56-20.51,29.79-34.13.82-1.88,1.83-4.01,3.02-6.39,1.19-2.37,1.73-4.66,1.63-6.85-5.04-4.32-11.89-7.43-20.54-9.34-8.65-1.91-17.76-2.87-27.34-2.89-9.58-.01-19.06.62-28.45,1.9-9.39,1.28-17.36,2.85-23.91,4.69Z"/>
  <path class="cls-1" d="M837.57,271.17c0-4.19,2.81-8.34,8.44-12.44,5.62-4.1,12.77-8.01,21.45-11.73,8.67-3.72,18.25-7.15,28.74-10.3,10.48-3.15,20.64-5.86,30.46-8.15,9.82-2.29,18.68-4.05,26.6-5.29,7.91-1.24,13.58-1.86,17.02-1.86,8.2,0,15.16,1.76,20.88,5.29,5.72,3.53,10.44,8.15,14.16,13.87,3.72,5.72,6.44,12.15,8.15,19.3,1.72,7.15,2.57,14.35,2.57,21.59,0,1.53-.53,2.43-1.57,2.72-1.05.29-2.24.43-3.57.43-3.43,0-6.53-.67-9.3-2-2.77-1.33-5.2-3.15-7.29-5.43-2.1-2.29-3.91-4.86-5.43-7.72-1.53-2.86-2.86-5.72-4-8.58-7.63,0-15.26.76-22.88,2.29-7.63,1.53-15.06,3.15-22.31,4.86,0,23.07.09,45.29.29,66.64.19,21.36.86,43.66,2,66.92.19,2.48.67,5.34,1.43,8.58.76,3.24,1.57,6.39,2.43,9.44.86,3.05,1.62,5.77,2.29,8.15.67,2.38,1,3.95,1,4.72,0,1.52-.48,2.38-1.43,2.57-.96.19-2.1.29-3.43.29-4.58,0-9.06-.19-13.44-.57-4.39-.38-8.29-1.39-11.73-3-3.43-1.62-6.29-4.05-8.58-7.29-2.29-3.24-3.72-7.72-4.29-13.44-1.14-12.01-1.86-23.69-2.14-35.04-.29-11.34-.43-22.64-.43-33.89s.09-22.55.29-33.89c.19-11.34.29-23.12.29-35.32-7.25,2.29-14.49,4.67-21.74,7.15-7.25,2.48-14.21,5.63-20.88,9.44v2.29c1.52,3.05,2.72,6.15,3.58,9.3.86,3.15,1.29,6.34,1.29,9.58,0,.96-.05,2.39-.14,4.29-.1,1.91-.91,2.86-2.43,2.86-3.62,0-7.01-1.86-10.15-5.58-3.15-3.72-5.91-8.15-8.29-13.3-2.39-5.15-4.29-10.34-5.72-15.59-1.43-5.24-2.15-9.3-2.15-12.15Z"/>
  <path class="cls-1" d="M1121.25,199.63c1.52-2.29,3.72-3.53,6.58-3.72,2.86-.19,6.1.19,9.72,1.14,3.62.96,7.29,2.29,11.01,4,3.72,1.72,7.01,3.34,9.87,4.86-4.39,13.16-7.39,26.45-9.01,39.9-1.62,13.44-3.39,27.03-5.29,40.75v2.29h8.58c7.44,0,12.34,2.05,14.73,6.15,2.38,4.1,3.58,9.58,3.58,16.45v2.29c0,1.14-.1,2.29-.29,3.43-.19,1.14-.38,2.19-.57,3.15-.19.96-.57,1.43-1.14,1.43l-26.88.29c-.19,10.3-.34,19.93-.43,28.89-.1,8.96.04,17.69.43,26.17.38,8.49,1.09,16.97,2.15,25.45,1.05,8.48,2.52,17.3,4.43,26.45.57,2.67.09,4.58-1.43,5.72-1.53,1.14-3.48,1.86-5.86,2.15-2.39.29-4.86.38-7.44.29-2.57-.1-4.63-.14-6.15-.14-4.2.19-7.72-1.91-10.58-6.29-2.86-4.39-5.25-10.11-7.15-17.16-1.91-7.05-3.39-14.92-4.43-23.59-1.05-8.67-1.81-17.16-2.29-25.45-.48-8.29-.76-15.92-.86-22.88-.1-6.96-.05-12.15.14-15.59-6.1.19-11.44.53-16.02,1-4.58.48-8.68,1.1-12.3,1.86-3.62.76-6.96,1.57-10.01,2.43-3.05.86-6.29,1.76-9.72,2.72l-4.29,53.77c-.19,1.72-2.29,2.77-6.29,3.15-4,.38-8.39.19-13.16-.57-4.77-.76-9.15-2.05-13.16-3.86-4-1.81-6.1-4.05-6.29-6.72,0-2.1.14-4.53.43-7.29.29-2.76.67-5.62,1.14-8.58.47-2.95.95-5.96,1.43-9.01.47-3.05.9-5.81,1.29-8.29-1.53,0-3.39.48-5.58,1.43-2.19.96-3.77,1.91-4.72,2.86-2.29-1.52-4.77-3.81-7.44-6.86-2.67-3.05-4.91-6.15-6.72-9.3-1.81-3.15-2.91-6.15-3.29-9.01-.38-2.86.57-4.86,2.86-6.01,2.86-1.52,5.38-2.81,7.58-3.86,2.19-1.05,4.29-2,6.29-2.86,2-.86,4.05-1.72,6.15-2.57,2.1-.86,4.38-1.86,6.86-3l3.15-79.22c0-1.9,1.95-3.1,5.86-3.58,3.91-.47,8.15-.38,12.73.29,4.58.67,8.77,1.96,12.58,3.86,3.81,1.91,5.72,4.39,5.72,7.44l-1.14,58.63c3.24-.76,7.19-1.52,11.87-2.29,4.67-.76,9.48-1.43,14.44-2,4.96-.57,9.77-1.05,14.44-1.43,4.67-.38,8.53-.47,11.58-.29,0-.95.14-3.58.43-7.86.29-4.29.67-9.44,1.14-15.44.47-6.01,1.09-12.54,1.86-19.59.76-7.05,1.57-13.77,2.43-20.16.86-6.39,1.86-11.96,3-16.73,1.14-4.76,2.29-7.91,3.43-9.44Z"/>
  <path class="cls-1" d="M1353.19,258.81c2.87,4.57,5.17,8.85,6.9,12.85,1.73,4,2.93,8,3.61,12,.68,4,.88,8.15.61,12.44-.27,4.29-.97,9.11-2.1,14.45-1.69,8.01-4.63,16.41-8.8,25.19-4.17,8.78-9.34,17.47-15.51,26.07-6.17,8.6-13.06,16.77-20.67,24.51-7.61,7.74-15.6,14.58-23.97,20.52-8.38,5.94-17.04,10.68-25.99,14.23-8.95,3.56-17.72,5.34-26.3,5.36-9.54.03-18.69-1.76-27.47-5.36-8.78-3.6-16.57-8.53-23.35-14.81-6.79-6.27-12.24-13.64-16.36-22.12-4.13-8.47-6.3-17.57-6.51-27.29-.23-11.82,1.94-23.74,6.48-35.77,4.54-12.03,10.37-23.48,17.49-34.37,7.12-10.89,15-20.96,23.65-30.24,8.65-9.27,16.97-17.06,24.96-23.38,1.14-.95,2.76-1.01,4.86-.16,2.1.85,4.39,2.04,6.87,3.56,2.48,1.52,4.92,3.23,7.31,5.13,2.39,1.9,4.54,3.52,6.45,4.84h.29s-6.89-8.28-6.89-8.28c.56-3.24,3.75-5.97,9.56-8.18,5.81-2.21,13-3.33,21.58-3.35,5.34-.02,10.91.54,16.74,1.67,5.82,1.13,11.54,2.93,17.17,5.39,5.63,2.46,10.98,5.74,16.04,9.82,5.06,4.09,9.51,9.17,13.34,15.26ZM1208.58,397.64c2.29,1.14,4.96,1.7,8.01,1.69,5.91-.02,12.67-1.99,20.29-5.92,7.61-3.93,15.51-9.24,23.69-15.94,8.18-6.7,16.26-14.44,24.24-23.23,7.98-8.79,15.25-18.01,21.8-27.66,6.55-9.64,12-19.48,16.36-29.5,4.36-10.02,6.9-19.51,7.64-28.48.37-4.19-.5-7.1-2.6-8.72-2.1-1.61-4.77-2.42-8.01-2.41-2.86,0-5.96.45-9.29,1.31-3.34.87-6.62,1.93-9.86,3.17-3.24,1.25-6.19,2.55-8.86,3.89-2.67,1.34-4.76,2.4-6.28,3.16-1.14.57-2.38.44-3.72-.42-1.34-.85-2.58-2.09-3.73-3.71-1.15-1.61-2.3-3.33-3.45-5.14-1.15-1.81-2.2-3.38-3.16-4.71-4,2.68-7.75,5.79-11.27,9.33-3.52,3.54-6.89,7.03-10.12,10.47-2.28,2.49-5.51,6.88-9.69,13.18-4.18,6.3-8.64,13.61-13.38,21.92-4.74,8.31-9.25,17.09-13.51,26.35-4.26,9.26-7.58,17.99-9.94,26.2-2.36,8.21-3.34,15.5-2.94,21.89.4,6.39,2.98,10.81,7.76,13.28Z"/>
  <path class="cls-1" d="M1482.98,256.06c1.17-3.08,3.78-4.32,7.85-3.74,4.06.58,8.33,1.84,12.82,3.76,4.48,1.93,8.48,4.1,12,6.51,3.51,2.42,5.11,3.99,4.78,4.7-10.15,28.73-18.25,56.89-24.29,84.46-6.05,27.58-10.74,55.7-14.08,84.37-.28,2.47-2.46,4.48-6.54,6.03-4.08,1.55-8.62,2.43-13.61,2.64s-9.72-.2-14.17-1.25c-4.46-1.04-7.32-2.85-8.57-5.42l-38.02-76.85c-1.97,6.23-3.55,12.23-4.75,18.02-1.21,5.79-2.23,11.42-3.08,16.88-.85,5.47-1.68,10.84-2.5,16.12-.82,5.28-2,10.49-3.57,15.62-.51,1.65-1.86,2.9-4.06,3.74-2.2.85-4.87,1.35-8.01,1.53-3.14.18-6.42.08-9.85-.28-3.43-.36-6.57-.92-9.44-1.66-2.87-.74-5.11-1.7-6.73-2.89-1.62-1.18-2.21-2.41-1.77-3.69,3.86-12.07,7.5-25.06,10.94-38.96,3.43-13.9,6.46-27.98,9.09-42.23,2.62-14.25,4.92-28.32,6.9-42.21,1.97-13.89,3.45-26.95,4.43-39.19.13-1.72,2.03-3.01,5.69-3.86,3.66-.85,7.73-1.09,12.22-.72,4.49.37,8.75,1.43,12.79,3.17,4.03,1.74,6.51,4.26,7.44,7.54l32.96,114.03c2.02-12.62,4.08-24.16,6.18-34.63,2.1-10.47,4.46-20.55,7.09-30.24,2.62-9.69,5.56-19.47,8.81-29.33,3.24-9.86,6.93-20.51,11.05-31.95Z"/>
  <g>
    <g>
      <path d="M688.37,452.71c2.41,1.9,4.17,4.05,5.29,6.45,1.12,2.41,2.71,4.56,4.78,6.45,1.2,1.03,2.36,2.15,3.49,3.36,1.12,1.21,2.28,2.41,3.48,3.61,5.51,6.03,12.22,11.23,20.13,15.62,7.91,4.39,16.26,8.22,25.04,11.49,8.78,3.27,17.64,6.11,26.59,8.52,8.95,2.41,17.21,4.65,24.78,6.71,7.23,2.06,11.62,5.55,13.17,10.45,1.55,4.9,1.89,10.54,1.03,16.91-.17,1.55-1.03,2.97-2.58,4.26-1.55,1.29-3.36,2.41-5.42,3.36-2.07.95-4.13,1.72-6.2,2.32-2.07.6-3.79,1.08-5.16,1.42,4.82,1.55,9.81,3.87,14.97,6.97,5.16,3.1,9.81,6.76,13.94,10.97,4.13,4.22,7.4,8.95,9.81,14.2,2.41,5.25,3.18,10.71,2.32,16.39-1.03,7.74-3.7,15.02-8,21.81-4.3,6.8-9.64,13.08-16,18.84-6.37,5.77-13.55,10.84-21.55,15.23-8,4.39-16.22,8-24.65,10.84-8.43,2.84-16.78,4.82-25.04,5.94-8.26,1.12-15.92,1.16-22.97.13-6.54-.86-11.7-2.15-15.49-3.87-3.79-1.72-6.67-4.05-8.65-6.97-1.98-2.92-3.4-6.58-4.26-10.97-.86-4.39-1.55-9.59-2.07-15.62l17.55,2.32c-.52-1.03-.99-3.57-1.42-7.62-.43-4.04-.82-8.47-1.16-13.29-.35-4.82-.69-9.42-1.03-13.81-.35-4.39-.52-7.36-.52-8.91-2.41.86-4.35,1.21-5.81,1.03-1.46-.17-3.4-.43-5.81-.77-1.38-.17-2.84-1.25-4.39-3.23-1.55-1.98-2.97-4.26-4.26-6.84-1.29-2.58-2.32-5.16-3.1-7.74s-1.08-4.47-.9-5.68l25.04-12.13,7.49-56.27c-3.27-3.1-6.41-6.67-9.42-10.71-3.01-4.04-5.55-8.34-7.61-12.91-2.07-4.56-3.61-9.25-4.65-14.07-1.03-4.82-1.29-9.55-.77-14.2ZM738.45,638.31c6.54-1.03,13.72-2.97,21.55-5.81,7.83-2.84,15.49-6.32,22.97-10.45,7.49-4.13,14.46-8.73,20.91-13.81,6.45-5.07,11.57-10.45,15.36-16.13-10.5-5.33-21.17-8.78-32.01-10.33-8.26-1.2-16.48-1.5-24.65-.9-8.18.6-16.39,1.33-24.65,2.19-1.21,9.64-1.42,18.89-.65,27.75.77,8.87,1.16,18.03,1.16,27.49ZM739.22,544.09l21.43-13.17-18.84-6.45-2.58,19.62Z"/>
      <path d="M730.17,710.97c-5.3,0-10.45-.36-15.42-1.07-9.98-1.33-18.23-3.52-25.21-6.69-9.8-4.46-17.63-10.96-23.29-19.34-4.63-6.83-7.88-14.9-9.65-23.94-1.11-5.64-1.96-12-2.59-19.38-.72-8.43,1.61-16.75,6.45-23.52-.56-.65-1.12-1.33-1.68-2.04-2.96-3.78-5.67-8.09-8.01-12.78-2.2-4.39-3.99-8.9-5.34-13.4-1.46-4.86-3.26-12.31-2.03-20.83,1.67-11.6,8.99-21.61,19.53-26.72l7.96-3.86,2.88-21.61c-.22-.29-.43-.58-.65-.87-4.49-6.03-8.35-12.57-11.45-19.42-3.09-6.81-5.44-13.95-7-21.21-1.82-8.51-2.28-17.08-1.34-25.49,1.42-12.73,9.62-23.69,21.43-28.63,11.81-4.94,25.38-3.1,35.44,4.82,5.87,4.62,10.55,10.1,13.95,16.32,1.21,1.15,2.4,2.35,3.56,3.59.9.97,1.74,1.84,2.61,2.71.39.39.77.78,1.14,1.19,2.89,3.17,6.66,6.05,11.19,8.56,6.35,3.52,13.16,6.65,20.25,9.28,7.73,2.88,15.62,5.41,23.45,7.51,9,2.43,17.29,4.67,24.9,6.74.14.04.28.07.41.11,25.29,7.23,34.1,24.24,37.1,33.74,3.1,9.81,3.9,20.58,2.39,32.02-.01.11-.03.22-.04.33,6.87,7.07,12.41,15.12,16.47,23.95,5.27,11.5,7.02,23.62,5.2,36.07-1.73,12.68-6.15,24.7-13.12,35.72-5.99,9.46-13.44,18.25-22.14,26.13-8.38,7.59-17.89,14.32-28.27,20.01-9.77,5.36-19.98,9.85-30.35,13.34-10.5,3.53-21.11,6.04-31.56,7.46-5.85.79-11.58,1.19-17.15,1.19ZM695.42,561.51h0,0ZM695.35,561.5h.03s-.02,0-.03,0ZM695.26,561.49s.06,0,.08.01c-.03,0-.05,0-.08-.01ZM725.6,444.2s.02.05.03.07c-.01-.02-.02-.05-.03-.07Z"/>
    </g>
    <g>
      <path d="M883.78,471.81c5.33,6.2,11.27,12.69,17.81,19.49,6.54,6.8,13.42,13.42,20.65,19.88,7.23,6.45,14.58,12.39,22.07,17.81,7.49,5.42,14.75,9.94,21.81,13.55,1.72.86,3.01,1.94,3.87,3.23.86,1.29,1.42,2.58,1.68,3.87.26,1.29.21,2.54-.13,3.74-.35,1.21-.77,2.06-1.29,2.58-4.82,4.65-9.94,8.48-15.36,11.49-5.42,3.01-11.14,6.15-17.17,9.42,2.23,1.21,4.52,2.28,6.84,3.23,2.32.95,4.52,2.11,6.58,3.49,9.12,5.68,15.96,12.95,20.52,21.81,4.56,8.87,6.84,18.63,6.84,29.3,0,5.34-.48,11.06-1.42,17.17-.95,6.11-2.28,12.18-4,18.2-1.72,6.02-3.83,11.83-6.32,17.42-2.5,5.59-5.29,10.54-8.39,14.84-1.38,1.89-3.87,2.71-7.49,2.45-3.61-.26-7.23-1.08-10.84-2.45-3.61-1.38-6.67-3.06-9.16-5.03-2.5-1.98-3.4-3.66-2.71-5.03,6.02-12.22,11.4-24.78,16.13-37.69,4.73-12.91,7.1-26.16,7.1-39.75v-4.78c0-2.15-.17-3.65-.52-4.52-.86-2.23-3.61-3.78-8.26-4.65-4.65-.86-9.98-1.2-16-1.03-6.03.17-12.18.77-18.46,1.81-6.28,1.03-11.49,2.32-15.62,3.87-.69,2.24-1.21,6.37-1.55,12.39-.35,6.03-.69,12.39-1.03,19.1-.35,6.71-.69,13.04-1.03,18.97-.35,5.94-.77,10.02-1.29,12.26-.35,1.38-2.5,2.45-6.45,3.23-3.96.77-8.26,1.12-12.91,1.03-4.65-.09-8.82-.65-12.52-1.68-3.7-1.03-5.38-2.76-5.03-5.16.69-4.65,1.2-8.73,1.55-12.26.34-3.53.64-7.06.9-10.58.26-3.53.52-7.27.77-11.23.26-3.96.47-8.78.65-14.46-1.21.69-2.97,1.29-5.29,1.81-2.32.52-4,1.21-5.03,2.07-2.24,1.9-4.65,1.64-7.23-.77-2.58-2.41-4.69-5.59-6.32-9.55-1.64-3.96-2.5-7.96-2.58-12-.09-4.04,1.16-6.67,3.74-7.87,2.23-1.03,4.21-1.89,5.94-2.58,1.72-.69,3.49-1.38,5.29-2.07,1.81-.69,3.78-1.42,5.94-2.19,2.15-.77,4.69-1.76,7.62-2.97.69-12.91.47-25.85-.65-38.85-1.12-12.99-2.37-25.94-3.74-38.85,0-1.72,1.98-2.97,5.94-3.74,3.96-.77,8.69.22,14.2,2.97-2.24-2.41-4.17-4.86-5.81-7.36-1.64-2.49-3.57-5.46-5.81-8.91-.86-1.37-.35-3.1,1.55-5.16,1.89-2.06,4.26-4,7.1-5.81,2.84-1.81,5.68-3.14,8.52-4,2.84-.86,4.78-.69,5.81.52ZM894.11,565.51c5.51-2.92,11.31-5.94,17.42-9.04,6.11-3.1,11.66-6.62,16.65-10.58-6.71-3.44-13-7.36-18.84-11.75-5.85-4.39-11.7-8.91-17.55-13.55.69,7.57,1.25,15.06,1.68,22.46.43,7.4.65,14.89.65,22.46Z"/>
      <path d="M952.07,740.09c-1.22,0-2.45-.04-3.7-.13-7.01-.5-14.04-2.07-20.87-4.67-7-2.67-13.22-6.15-18.53-10.36-7.66-6.07-12.29-13.21-14.55-20.48-2.01.64-4.16,1.19-6.47,1.65-6.37,1.24-13.23,1.8-20.31,1.68-7.67-.15-14.84-1.15-21.38-2.97-20.83-5.82-33.36-23.97-30.45-44.16.62-4.19,1.07-7.75,1.36-10.68.02-.15.03-.3.04-.45-1.47-1.06-2.89-2.23-4.25-3.51-6.28-5.85-11.29-13.23-14.85-21.88-3.29-7.95-5.06-16.28-5.24-24.71-.4-18.16,8.6-33.33,24.08-40.56,1.64-.76,3.18-1.45,4.64-2.07-.15-3.87-.39-7.75-.72-11.61-1.1-12.79-2.34-25.62-3.67-38.14-.13-1.24-.2-2.49-.2-3.74,0-7.62,2.46-16.39,8.44-23.73,1.14-7.92,4.82-15.66,10.92-22.31,3.93-4.3,8.7-8.25,14.14-11.71,5.51-3.51,11.3-6.2,17.2-7.99,16.46-4.99,32.45-.77,42.8,11.25h0c4.9,5.69,10.45,11.76,16.49,18.03,5.88,6.11,12.18,12.17,18.73,18.03,6.3,5.63,12.79,10.86,19.27,15.55,5.97,4.32,11.73,7.92,17.12,10.69,7.15,3.63,12.94,8.69,17.19,15.05,3.47,5.21,5.79,10.76,6.95,16.57,1.35,6.76,1.07,13.79-.8,20.34-1.78,6.2-4.65,11.56-8.56,16.01,2.26,3.24,4.3,6.63,6.13,10.18,7.14,13.88,10.75,29.16,10.75,45.44,0,7.09-.62,14.67-1.83,22.55-1.17,7.54-2.83,15.1-4.94,22.5-2.17,7.58-4.87,15.01-8.02,22.09-3.49,7.8-7.51,14.88-11.98,21.1-8.07,11.07-20.62,17.16-34.93,17.16ZM959.81,707.85c-.04.07-.07.15-.11.23.04-.08.07-.15.11-.23ZM853.14,661.06h0ZM926.73,614.09h0Z"/>
    </g>
    <g>
      <path d="M1000.2,531.44c1.89-1.55,5.38-3.7,10.45-6.45,5.07-2.75,10.93-5.85,17.55-9.29,6.62-3.44,13.64-6.93,21.04-10.46,7.4-3.52,14.54-6.75,21.43-9.68,6.88-2.92,13.08-5.42,18.59-7.49,5.51-2.06,9.55-3.27,12.13-3.61,2.41-.34,4.6,1.25,6.58,4.78,1.98,3.53,3.57,7.58,4.78,12.13,1.2,4.56,1.89,8.95,2.07,13.17.17,4.22-.52,6.84-2.07,7.87-.17.17-1.34.86-3.48,2.07-2.15,1.21-4.43,2.5-6.84,3.87-2.41,1.38-4.65,2.71-6.71,4-2.07,1.29-3.1,2.02-3.1,2.19l58.86,136.81c.69,1.55-.26,3.44-2.84,5.68-2.58,2.23-5.72,4.3-9.42,6.2-3.7,1.89-7.32,3.4-10.84,4.52-3.53,1.12-5.9,1.25-7.1.39-.69-.52-1.85-2.32-3.48-5.42-1.64-3.1-3.53-6.93-5.68-11.49-2.15-4.56-4.39-9.42-6.71-14.59-2.32-5.16-4.56-10.11-6.71-14.84-2.15-4.73-4-8.91-5.55-12.52-1.55-3.61-2.67-6.02-3.36-7.23-4.48,1.03-9.9,2.76-16.26,5.16-6.37,2.41-12.74,4.9-19.1,7.49-6.37,2.58-12.18,4.86-17.42,6.84-5.25,1.98-8.99,2.97-11.23,2.97-1.21,0-1.81-.34-1.81-1.03l-1.29-7.74-21.68,27.62c-.69,1.03-1.9,1.55-3.61,1.55-2.07,0-4.52-.99-7.36-2.97-2.84-1.98-5.38-4.34-7.62-7.1-2.24-2.75-3.92-5.63-5.03-8.65-1.12-3.01-.99-5.46.39-7.36l54.98-77.96c-2.41,1.38-4.56,2.5-6.45,3.36-1.72.86-3.23,1.68-4.52,2.45-1.29.77-2.02,1.16-2.19,1.16-1.72.86-4.09-.21-7.1-3.23-3.01-3.01-5.77-6.71-8.26-11.1-2.5-4.39-4.3-8.78-5.42-13.17-1.12-4.39-.65-7.36,1.42-8.91ZM1065.77,567.06l-19.62,29.94c2.07-.69,4.39-1.59,6.97-2.71,2.58-1.12,5.25-2.28,8-3.48,2.75-1.2,5.46-2.32,8.13-3.36,2.67-1.03,5.03-1.81,7.1-2.32l-10.58-18.07Z"/>
      <path d="M1123.39,723.93c-10.11,0-17.6-3.51-22.64-7.12-.2-.14-.39-.28-.59-.43-6.84-5.11-10.6-11.58-13.58-17.24-1.85-3.51-3.95-7.74-6.37-12.88-2.24-4.74-4.56-9.79-6.98-15.16-.77-1.71-1.53-3.39-2.28-5.06-1.1.44-2.2.88-3.29,1.33-6.7,2.72-12.84,5.13-18.25,7.16-6.19,2.34-11.32,3.82-15.99,4.59l-4.29,5.47c-7.39,9.92-18.85,15.57-31.77,15.57-9.41,0-18.67-3.13-27.53-9.31-5.52-3.84-10.52-8.5-14.83-13.81-4.64-5.71-8.26-11.98-10.71-18.61-5.21-13.96-3.49-28.56,4.73-40.06l28.72-40.72c-1.47-2.15-2.87-4.4-4.2-6.74-4.03-7.08-7.04-14.45-8.93-21.88-4.61-18.06.52-34.93,13.75-45.28,3.68-2.94,8.5-5.98,15.49-9.77,5.26-2.85,11.35-6.07,18.11-9.59,6.95-3.61,14.39-7.31,22.12-11,7.81-3.72,15.48-7.19,22.8-10.3,7.37-3.13,14.09-5.84,20.01-8.06,8.23-3.09,14.32-4.8,19.72-5.53,13.28-1.82,31.26,3.12,42.11,22.44,3.44,6.14,6.16,12.98,8.12,20.39,1.86,7.05,2.93,14.01,3.21,20.74.73,18.26-6.62,29.11-13.18,35.09l46.98,109.21c5.46,12.64,5.12,31.34-12.1,46.28-4.75,4.11-10.27,7.78-16.46,10.95-5.41,2.77-10.87,5.03-16.23,6.74-5.79,1.83-11,2.58-15.67,2.58ZM971.68,643.72s-.01.02-.02.03c0-.01.01-.02.02-.03ZM971.7,643.69s0,0,0,0c0,0,0,0,0,0ZM1059.22,643.41h0s0,0,0,0ZM1058.82,638.93h0ZM1000.2,531.44h.02-.02ZM1106.32,519.38h0,0Z"/>
    </g>
    <g>
      <path d="M1212.39,480.07c1.72,0,4.04.99,6.97,2.97,2.92,1.98,5.85,4.3,8.78,6.97,2.92,2.67,5.46,5.38,7.61,8.13,2.15,2.75,3.23,4.99,3.23,6.71,0,5.68-.13,11.4-.39,17.17-.26,5.77-.82,11.4-1.68,16.91-.35,1.72-.77,3.74-1.29,6.07-.52,2.32-1.98,3.48-4.39,3.48-1.72,0-3.79-.17-6.2-.52-2.41-.34-4.69-.94-6.84-1.81-2.15-.86-4-2.02-5.55-3.49-1.55-1.46-2.32-3.31-2.32-5.55,0-3.27.26-6.32.77-9.16.52-2.84.94-6.15,1.29-9.94l-55.24,60.92c9.81-3.96,19.79-7.18,29.94-9.68,10.15-2.49,20.48-3.74,30.98-3.74,3.1,0,6.8.69,11.1,2.06,4.3,1.38,8.47,3.32,12.52,5.81,4.04,2.5,7.44,5.38,10.2,8.65,2.75,3.27,4.13,6.71,4.13,10.33,0,9.81-2.58,19.92-7.74,30.33-5.16,10.41-11.83,19.97-20.01,28.65-8.18,8.69-17.34,15.92-27.49,21.68-10.16,5.76-20.31,8.82-30.46,9.16-3.96.17-7.23-1.12-9.81-3.87-2.58-2.76-4.43-5.81-5.55-9.16-1.12-3.36-1.68-6.49-1.68-9.42s.6-4.47,1.81-4.65c5.85-.86,12.17-3.18,18.97-6.97,6.8-3.78,13.51-8.39,20.13-13.81,6.62-5.42,12.86-11.49,18.72-18.2,5.85-6.71,10.67-13.42,14.46-20.13,2.23-3.96,3.57-6.62,4-8,.43-1.38-.04-2.07-1.42-2.07-.86,0-2.11.22-3.74.65-1.64.43-3.74,1.08-6.32,1.94-1.9.52-5.51,1.59-10.84,3.23-5.34,1.64-11.32,3.36-17.94,5.16-6.63,1.81-13.34,3.4-20.13,4.78-6.8,1.38-12.69,2.07-17.68,2.07-2.41,0-5.38-.77-8.91-2.32-3.53-1.55-6.89-3.57-10.07-6.07-3.19-2.49-5.9-5.2-8.13-8.13-2.24-2.92-3.36-5.68-3.36-8.26,0-3.61,1.81-8.52,5.42-14.71,3.61-6.2,8.26-12.95,13.94-20.26,5.68-7.31,12-14.75,18.97-22.33,6.97-7.57,13.77-14.46,20.39-20.65,6.62-6.2,12.69-11.23,18.2-15.1,5.51-3.87,9.72-5.81,12.65-5.81Z"/>
      <path d="M1169.62,717.47c-13.39,0-25.69-5.28-34.83-15.02-6.1-6.51-10.57-13.96-13.3-22.16-2.31-6.92-3.48-13.85-3.48-20.56,0-11.58,3.87-20.67,9.6-27.24-5.29-2.55-10.35-5.71-15.08-9.42-5.49-4.3-10.35-9.18-14.4-14.48-8.74-11.42-10.59-22.44-10.59-29.66,0-10.2,3.25-20.52,10.22-32.48,4.37-7.49,9.94-15.61,16.54-24.12,6.26-8.06,13.28-16.33,20.88-24.59,7.57-8.22,15.06-15.8,22.26-22.54,7.88-7.37,15.08-13.33,22-18.19,7.46-5.25,19-12.22,32.93-12.22,8.98,0,17.72,2.95,26.69,9,4.34,2.94,8.63,6.34,12.8,10.13,4.38,4,8.28,8.18,11.63,12.46,7.13,9.14,10.73,18.7,10.73,28.46,0,6.2-.14,12.5-.42,18.75-.31,7-1.01,13.99-2.06,20.76-.08.52-.17,1.04-.28,1.55-.29,1.45-.64,3.09-1.04,4.93,3.06,2.63,5.86,5.45,8.4,8.46,8.15,9.69,12.44,21.11,12.44,33.06,0,15.25-3.84,30.72-11.42,46-6.68,13.47-15.4,25.97-25.91,37.15-10.54,11.21-22.57,20.69-35.76,28.18-15.08,8.56-30.73,13.18-46.55,13.74-.68.03-1.36.04-2.03.04ZM1160.47,689.94c-.09.01-.17.03-.26.04.09-.01.17-.03.26-.04ZM1168.82,646.96s-.02,0-.03,0c.01,0,.02,0,.03,0Z"/>
    </g>
    <g>
      <path d="M1272.28,531.96c.34-1.03.86-1.63,1.55-1.81.69-.17,1.55-.26,2.58-.26,1.55,0,3.91.26,7.1.78,3.18.52,6.33,1.21,9.42,2.06,3.1.86,5.85,1.9,8.26,3.1,2.41,1.21,3.61,2.58,3.61,4.13l-7.49,87.51c4.99-1.03,9.38-1.98,13.17-2.84,3.78-.86,8.17-1.29,13.17-1.29.52,0,1.03.99,1.55,2.97.52,1.98.94,4.22,1.29,6.71.34,2.5.64,4.95.9,7.36.26,2.41.39,4.13.39,5.16,0,3.1-.9,5.42-2.71,6.97s-4.26,2.67-7.36,3.36c-10.84,2.07-21.55,4.65-32.14,7.74-10.58,3.1-21.55,7.31-32.91,12.65-.52.17-1.72-.86-3.61-3.1-1.9-2.24-3.7-4.82-5.42-7.74-1.72-2.92-3.01-5.89-3.87-8.91-.86-3.01-.52-5.2,1.03-6.58,1.9-1.55,4.13-3.1,6.71-4.65,2.58-1.55,5.25-2.97,8-4.26,2.75-1.29,5.46-2.41,8.13-3.36,2.67-.94,5.03-1.68,7.1-2.19l-5.94-6.2c.17-12.22.52-24.18,1.03-35.88.34-4.99.69-10.24,1.03-15.75.34-5.51.77-10.93,1.29-16.26.52-5.33,1.12-10.54,1.81-15.62.69-5.07,1.46-9.68,2.32-13.81ZM1274.35,517.5c-.69-1.38-.86-4.13-.52-8.26.34-4.13,1.07-8.43,2.19-12.91,1.12-4.47,2.41-8.47,3.87-12,1.46-3.52,2.97-5.29,4.52-5.29.86,0,2.54.39,5.03,1.16,2.49.77,5.03,1.68,7.61,2.71s4.86,2.11,6.84,3.23c1.98,1.12,2.97,2.11,2.97,2.97l-5.94,32.53c-.17,1.03-.22,2.15-.13,3.36.08,1.21-.56,2.15-1.94,2.84-.86.52-1.85.39-2.97-.39-1.12-.77-2.19-1.33-3.23-1.68-3.27-.86-6.67-1.63-10.2-2.32-3.53-.69-6.24-2.67-8.13-5.94Z"/>
      <path d="M1252.31,711.61c-8.75,0-19.72-3.31-30.18-15.66-3.16-3.73-6.15-7.98-8.89-12.63-3.23-5.5-5.71-11.24-7.39-17.09-4.62-16.2-.32-32.12,11.48-42.64.37-.33.75-.66,1.14-.97,3.2-2.62,6.86-5.17,10.87-7.57.15-.09.3-.18.46-.27.19-7.72.46-15.4.79-22.93.01-.29.03-.58.05-.87.34-4.92.68-10.1,1.02-15.54.36-5.84.83-11.71,1.38-17.45.56-5.79,1.22-11.5,1.96-16.96.8-5.88,1.72-11.37,2.75-16.29.27-1.31.62-2.6,1.04-3.86.03-.1.07-.19.1-.29-.75-5.21-.56-10.12-.21-14.29.5-5.99,1.55-12.24,3.13-18.53,1.53-6.12,3.38-11.83,5.51-16.94,10.4-25.09,31.02-27.04,37.09-27.04s11.1,1.39,15.48,2.74c3.43,1.07,6.87,2.29,10.27,3.65,4,1.6,7.72,3.37,11.07,5.25,18.88,10.71,20.91,27.12,20.91,33.68,0,2.12-.19,4.24-.57,6.33l-5.14,28.18c2.38,5.03,3.65,10.55,3.65,16.34,0,1-.04,2.01-.13,3.01l-4.05,47.32c9.85,3.6,19.46,11.92,23.43,27.13.86,3.28,1.54,6.8,2.09,10.73.4,2.93.74,5.72,1.04,8.46.41,3.8.59,6.55.59,8.93,0,13.46-5.34,25.45-15.03,33.75-6.25,5.36-13.88,9.06-22.68,11.01-.34.08-.68.14-1.02.21-9.69,1.85-19.39,4.18-28.84,6.95-8.8,2.57-18.16,6.18-27.82,10.72-1.32.62-2.67,1.16-4.05,1.61-2.94.96-6.83,1.82-11.3,1.82ZM1335.98,522.38c0,.1.01.2.02.3,0-.1-.01-.2-.02-.3ZM1285.36,495.29c1.19.16,2.45.35,3.8.56,4.42.72,8.87,1.69,13.21,2.9.76.21,1.51.43,2.25.66-1.53-2.5-3.64-4.72-6.08-6.49-4.47-.12-8.96.69-13.17,2.38ZM1315.85,498.36s.07.05.11.08c-.04-.02-.07-.05-.11-.08Z"/>
    </g>
    <g>
      <path d="M1331.65,473.1c1.2-2.41,3.74-3.7,7.62-3.87,3.87-.17,7.87.48,12,1.94,4.13,1.46,7.78,3.44,10.97,5.94,3.18,2.5,4.69,5.12,4.52,7.87-.69,14.63-1.42,28.36-2.19,41.17-.77,12.82-1.29,25.43-1.55,37.82-.26,12.39,0,24.87.78,37.43.77,12.56,2.36,25.99,4.78,40.27,0,.35-.43,1.03-1.29,2.07-.86,1.03-1.29,1.72-1.29,2.07,2.06-1.38,4.3-2.88,6.71-4.52,2.41-1.63,4.9-3.23,7.49-4.78,2.58-1.55,5.25-2.88,8-4,2.75-1.12,5.5-1.94,8.26-2.45,2.75-.52,5.42.35,8,2.58,2.58,2.24,4.82,4.95,6.71,8.13,1.89,3.19,3.44,6.41,4.65,9.68,1.2,3.27,1.81,5.77,1.81,7.49-12.39,3.44-24.95,8.04-37.69,13.81-12.74,5.76-24.52,12.26-35.37,19.49-1.55.86-3.7.26-6.45-1.81-2.75-2.07-5.34-4.69-7.74-7.87-2.41-3.19-4.17-6.54-5.29-10.07-1.12-3.53-.82-6.32.9-8.39,1.38-1.38,2.92-2.54,4.65-3.49,1.72-.94,3.27-2.11,4.65-3.48-2.58-11.36-4.48-23.7-5.68-37.04-1.21-13.33-1.98-26.76-2.32-40.27-.35-13.51-.3-26.54.13-39.11.43-12.56.9-23.75,1.42-33.56.52-9.81,1.07-17.68,1.68-23.62.6-5.94.99-9.07,1.16-9.42Z"/>
      <path d="M1343.15,726.89c-8.93,0-18.03-3.12-26.21-9.26-5.38-4.04-10.33-9.02-14.71-14.82-4.82-6.36-8.45-13.32-10.78-20.68-4.44-13.97-2.42-28.06,5.5-39.13-1.02-6.71-1.85-13.65-2.49-20.77-1.27-14.02-2.09-28.33-2.45-42.54-.36-14.12-.32-28,.14-41.22.43-12.54.91-24.05,1.45-34.2.55-10.53,1.15-18.82,1.81-25.34,1.06-10.49,1.55-15.29,4.68-21.58,0-.01.01-.02.02-.04,6.93-13.87,20.98-22.59,37.58-23.34,8.42-.37,16.94.95,25.33,3.92,7.73,2.74,14.77,6.57,20.95,11.41,12.22,9.59,18.76,23.2,18.01,37.44-.69,14.73-1.44,28.7-2.21,41.51-.74,12.33-1.25,24.59-1.49,36.42-.21,9.87-.05,19.92.46,29.93,10.38.15,20.38,4.04,28.81,11.35,5.41,4.69,10.08,10.31,13.91,16.72,3,5.06,5.5,10.26,7.44,15.52,2.73,7.46,3.99,13.69,3.99,19.71,0,15.84-10.56,29.74-25.82,33.98-10.63,2.95-21.58,6.98-32.58,11.96-10.93,4.94-21.14,10.56-30.36,16.71-.79.53-1.61,1.02-2.44,1.49-5.83,3.24-12.13,4.84-18.52,4.84Z"/>
    </g>
  </g>
  <g>
    <g>
      <path d="M822.03,739.95c3.76-5.29,7.88-10.22,12.37-14.77,4.48-4.55,9.36-8.43,14.66-11.65,5.29-3.21,10.95-5.72,16.98-7.52,6.02-1.79,12.46-2.59,19.31-2.38,2.63.12,5.69,1.54,9.16,4.26,3.47,2.72,6.7,6.24,9.67,10.57,2.98,4.33,5.48,9.26,7.51,14.78,2.03,5.53,2.92,11.08,2.67,16.64-.36,9.11-2.21,18.12-5.56,27.04-3.35,8.91-7.31,17.76-11.89,26.52-4.58,8.77-9.29,17.33-14.14,25.68-4.85,8.35-8.96,16.44-12.32,24.25,7.31-3.51,14.46-6,21.45-7.48,6.99-1.48,13.47-2.44,19.43-2.89,2.8-.22,5.01.58,6.63,2.41,1.61,1.83,2.84,4.12,3.68,6.89.84,2.77,1.33,5.84,1.48,9.2.15,3.37.03,6.45-.36,9.24-.39,2.79-.92,5.16-1.58,7.11-.67,1.95-1.35,2.93-2.05,2.95-7.9.15-15,.24-21.32.27-6.32.03-12.5.27-18.55.72-6.05.45-12.27,1.2-18.65,2.24-6.39,1.05-13.69,2.57-21.9,4.57-3.5.91-7.28.43-11.35-1.44-4.07-1.86-7.67-4.16-10.79-6.88-3.12-2.72-5.46-5.42-6.99-8.09-1.54-2.67-1.71-4.52-.5-5.55.35-.17,1.38-1.33,3.1-3.47,1.71-2.14,3.6-4.49,5.66-7.06,2.06-2.57,3.94-5,5.66-7.31,1.71-2.31,2.74-3.72,3.08-4.23,2.91-4.1,6.59-9.06,11.05-14.87,4.46-5.81,9.17-12.06,14.14-18.72,4.97-6.67,9.8-13.54,14.5-20.63,4.7-7.08,8.78-14.03,12.25-20.84,3.47-6.81,5.94-13.26,7.41-19.36,1.47-6.1,1.46-11.49-.03-16.19-.38-1.34-1.48-1.74-3.31-1.2-1.83.54-4.01,1.68-6.52,3.41-2.51,1.73-5.24,3.89-8.17,6.47-2.94,2.58-5.74,5.16-8.41,7.74-2.68,2.58-5.09,4.99-7.24,7.22-2.16,2.23-3.66,3.95-4.51,5.14-.35.35-.6.69-.77,1.03-.17.34-.52.52-1.04.53-1.58.03-3.66-.95-6.24-2.92-2.58-1.98-5.17-4.33-7.77-7.07-2.6-2.73-4.88-5.43-6.86-8.09-1.98-2.66-2.98-4.75-3.01-6.27Z"/>
      <path d="M835.22,919.36c-6.82,0-13.75-1.55-20.46-4.62-6.71-3.07-12.81-6.98-18.13-11.63-5.69-4.97-10.05-10.13-13.3-15.77-9.84-17.01-4.88-33.27,4.69-42.48.16-.19.33-.4.51-.64l5.67-7.06c1.81-2.25,3.48-4.41,4.97-6.42,1.19-1.6,1.99-2.69,2.38-3.25.1-.15.2-.29.3-.43,3.14-4.43,6.98-9.6,11.72-15.79,4.24-5.53,8.91-11.72,13.89-18.4.59-.79,1.18-1.58,1.76-2.38-2.7-1.36-5.37-3.04-8-5.06-3.83-2.93-7.64-6.39-11.32-10.27-3.42-3.6-6.52-7.27-9.2-10.88-5.89-7.89-8.83-15.7-8.98-23.8-.11-6.47,1.85-12.81,5.6-18.08,4.68-6.58,9.88-12.8,15.47-18.48,6.22-6.31,13.12-11.79,20.51-16.28,7.49-4.55,15.58-8.13,24.05-10.66,9.13-2.72,18.84-3.95,28.91-3.63.16,0,.32.01.48.02,9.04.42,17.93,4.01,26.43,10.67,5.88,4.6,11.25,10.41,15.96,17.26,4.4,6.4,8.08,13.63,10.98,21.49,3.42,9.31,4.94,18.88,4.51,28.46-.48,12.14-2.99,24.42-7.46,36.33-3.44,9.16-7.49,18.33-12.06,27.3,5.93,2.09,11.27,5.65,15.53,10.47,4.53,5.13,7.87,11.23,9.98,18.16,1.57,5.15,2.5,10.75,2.76,16.64.23,5.22.02,10.16-.61,14.74-.67,4.8-1.62,8.94-2.92,12.74-5.82,17.03-19.42,23.29-30.21,23.48-8.06.15-15.38.24-21.71.27-5.57.03-11.11.24-16.45.64-5.12.38-10.51,1.03-16,1.92-5.59.91-12.14,2.28-19.45,4.07-3.55.9-7.17,1.34-10.83,1.34ZM913.66,873.23s-.04,0-.06,0c.02,0,.04,0,.06,0ZM831.15,859.27s-.02,0-.03,0c.01,0,.02,0,.03,0ZM918.57,850.52s-.04,0-.06,0c.02,0,.04,0,.06,0ZM795.49,839.57h-.03s.02,0,.03,0ZM795.55,839.54l-.04.02.04-.02ZM795.6,839.51l-.04.02.04-.02Z"/>
    </g>
    <g>
      <path d="M922.05,809.95c.81-3.89,1.77-8.71,2.89-14.47,1.12-5.75,2.5-11.93,4.14-18.54,1.63-6.61,3.44-13.34,5.42-20.21,1.98-6.86,4.18-13.44,6.62-19.72,2.43-6.28,5-11.98,7.72-17.09,2.71-5.11,5.62-9.12,8.73-12.05,1.04-.86,2.3-1.47,3.78-1.84,1.48-.36,2.84-.56,4.07-.58,2.45-.05,4.79.38,7,1.26,2.21.89,4.34,1.99,6.38,3.3,2.04,1.31,4,2.75,5.87,4.32,1.87,1.57,3.61,3.01,5.21,4.33,6.41,5.11,12.2,10.06,17.38,14.86,5.18,4.8,9.61,9.9,13.31,15.31,3.7,5.41,6.61,11.39,8.75,17.92,2.14,6.54,3.29,14.02,3.44,22.45.09,5.06-.59,10.85-2.05,17.36-1.46,6.52-3.57,13.26-6.34,20.22-2.77,6.97-6.16,13.81-10.15,20.55-4,6.74-8.5,12.76-13.49,18.08-5,5.32-10.35,9.63-16.09,12.94-5.73,3.31-11.85,5.02-18.33,5.14-6-1.91-11.76-4.63-17.26-8.16-5.51-3.52-10.32-7.65-14.44-12.38-4.13-4.73-7.42-9.98-9.9-15.75-2.48-5.77-3.77-11.94-3.89-18.52-.05-2.87-.02-5.94.09-9.23.11-3.29.49-6.46,1.14-9.51ZM965.34,787.4c-2.97,10.17-4.85,20.45-5.62,30.83-.78,10.38-1.07,20.88-.87,31.5l.06,3.03c.17,0,.43-.17.78-.52.17,0,.35-.09.52-.26,4.29-5.3,8.57-10.95,12.85-16.93,4.28-5.98,8.11-12.2,11.51-18.67,3.39-6.47,6.12-13.14,8.19-20,2.07-6.87,3.04-13.84,2.91-20.92-.08-4.38-.73-8.8-1.95-13.24-1.23-4.44-2.84-8.67-4.84-12.68-.37-.83-.87-1.84-1.5-3.01-.64-1.17-1.32-2.42-2.04-3.76-.73-1.5-1.46-3.01-2.19-4.51l-.78.77c-.17.17-.55,1.02-1.14,2.55-.59,1.53-1.22,3.23-1.88,5.09-.67,1.87-1.34,3.69-2.01,5.47-.67,1.78-1.17,3.18-1.5,4.2-.33,1.19-.99,3.22-1.99,6.11-1,2.89-2.09,5.98-3.25,9.29-1.17,3.31-2.25,6.45-3.25,9.42-1,2.97-1.66,5.05-1.99,6.23Z"/>
      <path d="M966.31,913.8c-3.12,0-6.22-.48-9.2-1.43-8.51-2.71-16.73-6.59-24.43-11.52-7.88-5.04-14.94-11.1-20.93-17.99-6.17-7.07-11.19-15.06-14.9-23.71-4.01-9.36-6.15-19.42-6.34-29.9-.06-3.4-.03-7.06.11-10.86.17-4.96.76-9.9,1.76-14.64.79-3.79,1.72-8.48,2.82-14.08,1.21-6.2,2.71-12.94,4.46-20.02,1.69-6.85,3.62-14.03,5.72-21.32,2.22-7.7,4.74-15.19,7.47-22.26,2.84-7.37,5.95-14.23,9.22-20.38,4.31-8.11,9.12-14.61,14.71-19.88.46-.44.94-.86,1.43-1.26,4.57-3.79,9.91-6.46,15.86-7.94,3.73-.91,7.34-1.4,10.79-1.46,6.49-.11,12.82,1.03,18.8,3.42,4.01,1.61,7.86,3.6,11.49,5.93,3.16,2.04,6.15,4.24,8.95,6.58,1.76,1.47,3.36,2.8,4.84,4.02,6.89,5.5,13.25,10.94,18.9,16.17,6.82,6.32,12.79,13.19,17.74,20.45,5.31,7.77,9.52,16.38,12.54,25.6,3.07,9.39,4.73,19.92,4.94,31.31.14,7.56-.77,15.58-2.78,24.54-1.8,8.04-4.41,16.38-7.75,24.79-3.34,8.39-7.46,16.74-12.26,24.83-5.11,8.6-10.98,16.45-17.46,23.35-7.01,7.47-14.76,13.67-23.03,18.44-10.2,5.89-21.28,8.98-32.93,9.2-.18,0-.37,0-.55,0ZM922.05,809.95h.02-.02Z"/>
    </g>
    <g>
      <path d="M1033.11,736.08c3.76-5.29,7.88-10.22,12.37-14.77,4.48-4.55,9.36-8.43,14.66-11.65,5.29-3.21,10.95-5.72,16.97-7.52,6.02-1.79,12.46-2.59,19.31-2.38,2.63.12,5.69,1.54,9.16,4.26,3.47,2.72,6.7,6.24,9.67,10.57,2.98,4.33,5.48,9.26,7.51,14.78,2.03,5.53,2.92,11.08,2.68,16.64-.36,9.11-2.21,18.12-5.56,27.04-3.35,8.91-7.31,17.76-11.89,26.52-4.58,8.77-9.29,17.33-14.14,25.68-4.85,8.35-8.96,16.44-12.32,24.25,7.31-3.51,14.46-6,21.45-7.48,6.99-1.48,13.47-2.44,19.43-2.89,2.8-.22,5.01.58,6.62,2.41,1.61,1.83,2.84,4.12,3.68,6.89.84,2.77,1.33,5.84,1.48,9.2.15,3.37.03,6.45-.36,9.24-.39,2.79-.92,5.16-1.58,7.11-.67,1.95-1.35,2.93-2.05,2.95-7.9.15-15,.24-21.32.27-6.32.03-12.5.27-18.55.72-6.05.45-12.27,1.2-18.65,2.24-6.39,1.05-13.69,2.57-21.9,4.57-3.5.91-7.28.43-11.35-1.44-4.07-1.86-7.67-4.16-10.79-6.88-3.12-2.72-5.46-5.42-6.99-8.09-1.54-2.67-1.71-4.52-.5-5.55.35-.17,1.38-1.33,3.1-3.47,1.71-2.14,3.6-4.49,5.66-7.06,2.06-2.57,3.94-5,5.66-7.31,1.71-2.31,2.74-3.72,3.08-4.23,2.91-4.1,6.59-9.06,11.05-14.87,4.46-5.81,9.17-12.06,14.14-18.72,4.97-6.67,9.8-13.54,14.5-20.63,4.7-7.08,8.78-14.03,12.26-20.84,3.47-6.81,5.94-13.26,7.41-19.36,1.47-6.1,1.46-11.49-.03-16.19-.38-1.34-1.48-1.74-3.31-1.2-1.83.54-4.01,1.68-6.52,3.41-2.51,1.73-5.24,3.89-8.17,6.47-2.94,2.58-5.74,5.16-8.41,7.74-2.68,2.58-5.09,4.99-7.24,7.22-2.16,2.23-3.66,3.95-4.51,5.14-.35.35-.6.69-.77,1.03-.17.34-.52.52-1.04.53-1.58.03-3.66-.95-6.24-2.92-2.58-1.98-5.17-4.33-7.76-7.07-2.6-2.73-4.88-5.43-6.86-8.09-1.98-2.66-2.98-4.75-3.01-6.27Z"/>
      <path d="M1046.29,915.49c-6.82,0-13.74-1.55-20.46-4.62-6.71-3.07-12.81-6.98-18.12-11.62-5.71-4.98-10.07-10.15-13.31-15.79-9.83-17-4.87-33.27,4.71-42.47.16-.19.32-.4.51-.63l5.67-7.06c1.79-2.23,3.46-4.39,4.97-6.42,1.19-1.6,1.99-2.69,2.39-3.25.1-.15.2-.29.31-.44,3.11-4.38,7.05-9.69,11.72-15.78,4.22-5.51,8.77-11.53,13.89-18.4.59-.79,1.17-1.58,1.76-2.38-2.69-1.35-5.36-3.04-7.99-5.05-3.84-2.94-7.66-6.4-11.34-10.28-3.4-3.58-6.5-7.25-9.19-10.86-5.89-7.91-8.84-15.71-8.98-23.81-.11-6.47,1.85-12.81,5.6-18.08,4.68-6.59-3.79-26.7,1.8-32.37,6.22-6.31,19.8-8.98,27.19-13.47,7.48-4.54,24.71-9.15,33.18-11.68,9.13-2.72,16.68,8.16,26.77,8.47.16,0,.31.01.47.02,9.04.42,17.94,4.01,26.45,10.67,5.88,4.61,11.25,10.42,15.96,17.26,4.4,6.4,8.09,13.63,10.98,21.49,3.42,9.29,4.93,18.86,4.51,28.45-.48,12.15-2.99,24.43-7.46,36.34-3.44,9.17-7.49,18.33-12.06,27.3,5.93,2.1,11.28,5.66,15.54,10.49,4.51,5.1,7.86,11.21,9.97,18.14,1.57,5.18,2.5,10.78,2.76,16.66.23,5.19.02,10.15-.61,14.75-.66,4.76-1.61,8.91-2.91,12.72-5.82,17.03-19.42,23.29-30.21,23.48-8.33.15-15.44.24-21.71.27-5.57.03-11.11.24-16.45.64-5.12.38-10.51,1.03-16.01,1.92-5.59.91-12.14,2.29-19.44,4.07-3.55.9-7.17,1.34-10.83,1.34ZM1124.75,869.36s-.05,0-.07,0c.02,0,.05,0,.07,0ZM1129.65,846.65s-.03,0-.04,0c.01,0,.03,0,.04,0ZM1006.5,835.73s-.02.01-.03.02c.01,0,.02-.01.03-.02ZM1006.56,835.7l-.04.02.04-.02ZM1006.61,835.68l-.05.02.05-.02Z"/>
    </g>
    <g>
      <path d="M1246.26,701.82c2.8-.05,4.94,1.26,6.39,3.93,1.45,2.67,2.47,5.65,3.06,8.92.59,3.28.86,6.27.82,8.96-.04,2.7-.15,4.05-.32,4.05-4.91.09-9.34.38-13.28.88-3.94.5-7.84,1.12-11.68,1.86-3.85.75-7.87,1.62-12.06,2.62-4.19,1.01-9,2.06-14.42,3.17-1.23.19-2.35,1.27-3.36,3.22-1.02,1.96-1.9,4.17-2.64,6.62-.75,2.46-1.32,4.87-1.71,7.24-.4,2.37-.58,4.06-.57,5.07,6.62-2.65,13.35-4.04,20.2-4.16,4.56-.08,9,.55,13.33,1.9,4.32,1.36,8.18,3.35,11.56,5.98,3.38,2.64,6.16,5.83,8.34,9.58,2.17,3.75,3.31,7.99,3.39,12.71.11,5.73-.7,12.07-2.42,19.01-1.72,6.95-4.18,13.9-7.38,20.87-3.21,6.97-7.03,13.75-11.47,20.32-4.45,6.57-9.38,12.44-14.82,17.6-5.44,5.16-11.28,9.31-17.54,12.46-6.26,3.15-12.73,4.79-19.39,4.91-8.78.16-15.78-1.27-21.01-4.29-5.23-3.02-9.12-6.83-11.66-11.42-2.54-4.59-4.08-9.66-4.62-15.22-.54-5.55-.51-10.87.1-15.94.61-5.07,1.54-9.47,2.79-13.2,1.25-3.73,2.3-6.03,3.16-6.89,1.89-2.06,4.6-2.91,8.12-2.55,3.52.36,6.91,1.39,10.19,3.1,3.28,1.71,6,3.85,8.15,6.43,2.15,2.58,2.81,4.97,1.97,7.17-.33,1.19-1.21,3.4-2.64,6.62-1.43,3.23-2.78,6.59-4.03,10.06-1.25,3.48-2.25,6.66-2.98,9.54-.74,2.88-.58,4.48.48,4.8,1.59.65,4.25-.24,7.98-2.67,3.73-2.43,7.88-5.88,12.45-10.35,4.57-4.47,9.3-9.74,14.19-15.81,4.89-6.07,9.34-12.4,13.34-18.96,4-6.56,7.26-13.16,9.77-19.78,2.51-6.62,3.72-12.8,3.61-18.53-2.98.22-6.3.87-9.97,1.95-3.67,1.08-7.37,2.41-11.11,4-3.75,1.59-7.36,3.26-10.84,5-3.48,1.75-6.52,3.32-9.13,4.72-1.58.03-3.7-.65-6.36-2.03-2.66-1.38-5.32-3.06-7.99-5.04-2.67-1.97-4.95-4.04-6.83-6.2-1.88-2.15-2.84-4.08-2.87-5.76-.06-3.03.28-6.29,1.01-9.76.73-3.47,1.59-6.73,2.58-9.78,1-3.05,2-5.85,3.01-8.4,1.01-2.55,1.67-4.41,2-5.6-1.27-2.34-1.94-5.28-2-8.82-.06-3.37.81-6.09,2.61-8.14,1.81-2.06,4.28-3.62,7.42-4.69.85-1.53,1.83-3.07,2.94-4.61,1.11-1.54,2.72-2.33,4.83-2.36,1.93-.04,3.6.36,5.02,1.17,1.42.82,2.83,1.21,4.23,1.19,4.03-.07,8.06-.44,12.09-1.11,4.02-.66,8-1.41,11.94-2.24,3.93-.83,7.87-1.57,11.81-2.24,3.94-.66,8.01-1.03,12.22-1.11Z"/>
      <path d="M1179,909.88c-13.56,0-25.3-2.82-34.91-8.38-10.02-5.79-17.77-13.52-23-22.98-4.54-8.19-7.33-17.27-8.27-26.96-.75-7.7-.69-15.27.18-22.48.86-7.17,2.21-13.45,4.14-19.2,2.08-6.22,4.73-12.71,9.96-18.18,3.11-3.28,6.73-5.94,10.72-7.91-2.7-5.73-3.49-10.95-3.57-14.89-.1-5.33.46-10.88,1.64-16.55.95-4.53,2.1-8.89,3.43-12.97.68-2.08,1.37-4.08,2.06-5.98-.32-2.23-.5-4.53-.54-6.89-.2-10.99,3.3-20.9,10.13-28.69,2.72-3.1,5.83-5.78,9.31-8.04,6.69-8.65,16.88-13.73,28.11-13.93,4.72-.09,9.38.62,13.73,2.09,1.07-.11,2.14-.26,3.2-.43,3.57-.59,7.13-1.26,10.63-2,4.28-.9,8.66-1.73,13.02-2.47,5.42-.91,11.03-1.42,16.71-1.53,14.04-.24,26.68,7.11,33.55,19.72,3.02,5.56,5.12,11.63,6.28,18.08.92,5.17,1.36,10.12,1.3,14.73-.23,15.37-6.5,23.78-13.26,28.38.9,1.32,1.75,2.67,2.56,4.06,4.78,8.25,7.29,17.45,7.47,27.36.15,8.33-.96,17.36-3.3,26.83-2.16,8.73-5.27,17.57-9.27,26.26-3.88,8.43-8.55,16.72-13.9,24.63-5.66,8.37-12.07,15.97-19.07,22.61-7.56,7.17-15.89,13.08-24.78,17.55-10.33,5.2-21.25,7.93-32.46,8.14-.61.01-1.22.02-1.83.02ZM1179.67,829.7s0,0,.01,0c0,0,0,0-.01,0ZM1149.12,816.06h0s0,0,0,0ZM1149.14,816.01s0,.02-.01.03c0-.01,0-.02.01-.03ZM1246.26,701.82h.02-.02ZM1208.83,680.93c.07.04.14.08.22.12-.07-.04-.15-.08-.22-.12Z"/>
    </g>
  </g>
  <path class="cls-2" d="M677.35,440.84c2.41,1.9,4.17,4.05,5.29,6.45,1.12,2.41,2.71,4.56,4.78,6.45,1.2,1.03,2.36,2.15,3.49,3.36,1.12,1.21,2.28,2.41,3.48,3.61,5.51,6.03,12.22,11.23,20.13,15.62,7.91,4.39,16.26,8.22,25.04,11.49,8.78,3.27,17.64,6.11,26.59,8.52,8.95,2.41,17.21,4.65,24.78,6.71,7.23,2.06,11.62,5.55,13.17,10.45,1.55,4.9,1.89,10.54,1.03,16.91-.17,1.55-1.03,2.97-2.58,4.26-1.55,1.29-3.36,2.41-5.42,3.36-2.07.95-4.13,1.72-6.2,2.32-2.07.6-3.79,1.08-5.16,1.42,4.82,1.55,9.81,3.87,14.97,6.97,5.16,3.1,9.81,6.76,13.94,10.97,4.13,4.22,7.4,8.95,9.81,14.2,2.41,5.25,3.18,10.71,2.32,16.39-1.03,7.74-3.7,15.02-8,21.81-4.3,6.8-9.64,13.08-16,18.84-6.37,5.77-13.55,10.84-21.55,15.23-8,4.39-16.22,8-24.65,10.84-8.43,2.84-16.78,4.82-25.04,5.94-8.26,1.12-15.92,1.16-22.97.13-6.54-.86-11.7-2.15-15.49-3.87-3.79-1.72-6.67-4.05-8.65-6.97-1.98-2.92-3.4-6.58-4.26-10.97-.86-4.39-1.55-9.59-2.07-15.62l17.55,2.32c-.52-1.03-.99-3.57-1.42-7.62-.43-4.04-.82-8.47-1.16-13.29-.35-4.82-.69-9.42-1.03-13.81-.35-4.39-.52-7.36-.52-8.91-2.41.86-4.35,1.21-5.81,1.03-1.46-.17-3.4-.43-5.81-.77-1.38-.17-2.84-1.25-4.39-3.23-1.55-1.98-2.97-4.26-4.26-6.84-1.29-2.58-2.32-5.16-3.1-7.74s-1.08-4.47-.9-5.68l25.04-12.13,7.49-56.27c-3.27-3.1-6.41-6.67-9.42-10.71-3.01-4.04-5.55-8.34-7.61-12.91-2.07-4.56-3.61-9.25-4.65-14.07-1.03-4.82-1.29-9.55-.77-14.2ZM727.43,626.44c6.54-1.03,13.72-2.97,21.55-5.81,7.83-2.84,15.49-6.32,22.97-10.45,7.49-4.13,14.46-8.73,20.91-13.81,6.45-5.07,11.57-10.45,15.36-16.13-10.5-5.33-21.17-8.78-32.01-10.33-8.26-1.2-16.48-1.5-24.65-.9-8.18.6-16.39,1.33-24.65,2.19-1.21,9.64-1.42,18.89-.65,27.75.77,8.87,1.16,18.03,1.16,27.49ZM728.2,532.22l21.43-13.17-18.84-6.45-2.58,19.62Z"/>
  <path class="cls-2" d="M872.76,459.94c5.33,6.2,11.27,12.69,17.81,19.49,6.54,6.8,13.42,13.42,20.65,19.88,7.23,6.45,14.58,12.39,22.07,17.81,7.49,5.42,14.75,9.94,21.81,13.55,1.72.86,3.01,1.94,3.87,3.23.86,1.29,1.42,2.58,1.68,3.87.26,1.29.21,2.54-.13,3.74-.35,1.21-.77,2.06-1.29,2.58-4.82,4.65-9.94,8.48-15.36,11.49-5.42,3.01-11.14,6.15-17.17,9.42,2.23,1.21,4.52,2.28,6.84,3.23,2.32.95,4.52,2.11,6.58,3.49,9.12,5.68,15.96,12.95,20.52,21.81,4.56,8.87,6.84,18.63,6.84,29.3,0,5.34-.48,11.06-1.42,17.17-.95,6.11-2.28,12.18-4,18.2-1.72,6.02-3.83,11.83-6.32,17.42-2.5,5.59-5.29,10.54-8.39,14.84-1.38,1.89-3.87,2.71-7.49,2.45-3.61-.26-7.23-1.08-10.84-2.45-3.61-1.38-6.67-3.06-9.16-5.03-2.5-1.98-3.4-3.66-2.71-5.03,6.02-12.22,11.4-24.78,16.13-37.69,4.73-12.91,7.1-26.16,7.1-39.75v-4.78c0-2.15-.17-3.65-.52-4.52-.86-2.23-3.61-3.78-8.26-4.65-4.65-.86-9.98-1.2-16-1.03-6.03.17-12.18.77-18.46,1.81-6.28,1.03-11.49,2.32-15.62,3.87-.69,2.24-1.21,6.37-1.55,12.39-.35,6.03-.69,12.39-1.03,19.1-.35,6.71-.69,13.04-1.03,18.97-.35,5.94-.77,10.02-1.29,12.26-.35,1.38-2.5,2.45-6.45,3.23-3.96.77-8.26,1.12-12.91,1.03-4.65-.09-8.82-.65-12.52-1.68-3.7-1.03-5.38-2.76-5.03-5.16.69-4.65,1.2-8.73,1.55-12.26.34-3.53.64-7.06.9-10.58.26-3.53.52-7.27.77-11.23.26-3.96.47-8.78.65-14.46-1.21.69-2.97,1.29-5.29,1.81-2.32.52-4,1.21-5.03,2.07-2.24,1.9-4.65,1.64-7.23-.77-2.58-2.41-4.69-5.59-6.32-9.55-1.64-3.96-2.5-7.96-2.58-12-.09-4.04,1.16-6.67,3.74-7.87,2.23-1.03,4.21-1.89,5.94-2.58,1.72-.69,3.49-1.38,5.29-2.07,1.81-.69,3.78-1.42,5.94-2.19,2.15-.77,4.69-1.76,7.62-2.97.69-12.91.47-25.85-.65-38.85-1.12-12.99-2.37-25.94-3.74-38.85,0-1.72,1.98-2.97,5.94-3.74,3.96-.77,8.69.22,14.2,2.97-2.24-2.41-4.17-4.86-5.81-7.36-1.64-2.49-3.57-5.46-5.81-8.91-.86-1.37-.35-3.1,1.55-5.16,1.89-2.06,4.26-4,7.1-5.81,2.84-1.81,5.68-3.14,8.52-4,2.84-.86,4.78-.69,5.81.52ZM883.09,553.65c5.51-2.92,11.31-5.94,17.42-9.04,6.11-3.1,11.66-6.62,16.65-10.58-6.71-3.44-13-7.36-18.84-11.75-5.85-4.39-11.7-8.91-17.55-13.55.69,7.57,1.25,15.06,1.68,22.46.43,7.4.65,14.89.65,22.46Z"/>
  <path class="cls-2" d="M989.18,519.57c1.89-1.55,5.38-3.7,10.45-6.45,5.07-2.75,10.93-5.85,17.55-9.29,6.62-3.44,13.64-6.93,21.04-10.46,7.4-3.52,14.54-6.75,21.43-9.68,6.88-2.92,13.08-5.42,18.59-7.49,5.51-2.06,9.55-3.27,12.13-3.61,2.41-.34,4.6,1.25,6.58,4.78,1.98,3.53,3.57,7.58,4.78,12.13,1.2,4.56,1.89,8.95,2.07,13.17.17,4.22-.52,6.84-2.07,7.87-.17.17-1.34.86-3.48,2.07-2.15,1.21-4.43,2.5-6.84,3.87-2.41,1.38-4.65,2.71-6.71,4-2.07,1.29-3.1,2.02-3.1,2.19l58.86,136.81c.69,1.55-.26,3.44-2.84,5.68-2.58,2.23-5.72,4.3-9.42,6.2-3.7,1.89-7.32,3.4-10.84,4.52-3.53,1.12-5.9,1.25-7.1.39-.69-.52-1.85-2.32-3.48-5.42-1.64-3.1-3.53-6.93-5.68-11.49-2.15-4.56-4.39-9.42-6.71-14.59-2.32-5.16-4.56-10.11-6.71-14.84-2.15-4.73-4-8.91-5.55-12.52-1.55-3.61-2.67-6.02-3.36-7.23-4.48,1.03-9.9,2.76-16.26,5.16-6.37,2.41-12.74,4.9-19.1,7.49-6.37,2.58-12.18,4.86-17.42,6.84-5.25,1.98-8.99,2.97-11.23,2.97-1.21,0-1.81-.34-1.81-1.03l-1.29-7.74-21.68,27.62c-.69,1.03-1.9,1.55-3.61,1.55-2.07,0-4.52-.99-7.36-2.97-2.84-1.98-5.38-4.34-7.62-7.1-2.24-2.75-3.92-5.63-5.03-8.65-1.12-3.01-.99-5.46.39-7.36l54.98-77.96c-2.41,1.38-4.56,2.5-6.45,3.36-1.72.86-3.23,1.68-4.52,2.45-1.29.77-2.02,1.16-2.19,1.16-1.72.86-4.09-.21-7.1-3.23-3.01-3.01-5.77-6.71-8.26-11.1-2.5-4.39-4.3-8.78-5.42-13.17-1.12-4.39-.65-7.36,1.42-8.91ZM1054.75,555.19l-19.62,29.94c2.07-.69,4.39-1.59,6.97-2.71,2.58-1.12,5.25-2.28,8-3.48,2.75-1.2,5.46-2.32,8.13-3.36,2.67-1.03,5.03-1.81,7.1-2.32l-10.58-18.07Z"/>
  <path class="cls-2" d="M1201.37,468.2c1.72,0,4.04.99,6.97,2.97,2.92,1.98,5.85,4.3,8.78,6.97,2.92,2.67,5.46,5.38,7.61,8.13,2.15,2.75,3.23,4.99,3.23,6.71,0,5.68-.13,11.4-.39,17.17-.26,5.77-.82,11.4-1.68,16.91-.35,1.72-.77,3.74-1.29,6.07-.52,2.32-1.98,3.48-4.39,3.48-1.72,0-3.79-.17-6.2-.52-2.41-.34-4.69-.94-6.84-1.81-2.15-.86-4-2.02-5.55-3.49-1.55-1.46-2.32-3.31-2.32-5.55,0-3.27.26-6.32.77-9.16.52-2.84.94-6.15,1.29-9.94l-55.24,60.92c9.81-3.96,19.79-7.18,29.94-9.68,10.15-2.49,20.48-3.74,30.98-3.74,3.1,0,6.8.69,11.1,2.06,4.3,1.38,8.47,3.32,12.52,5.81,4.04,2.5,7.44,5.38,10.2,8.65,2.75,3.27,4.13,6.71,4.13,10.33,0,9.81-2.58,19.92-7.74,30.33-5.16,10.41-11.83,19.97-20.01,28.65-8.18,8.69-17.34,15.92-27.49,21.68-10.16,5.76-20.31,8.82-30.46,9.16-3.96.17-7.23-1.12-9.81-3.87-2.58-2.76-4.43-5.81-5.55-9.16-1.12-3.36-1.68-6.49-1.68-9.42s.6-4.47,1.81-4.65c5.85-.86,12.17-3.18,18.97-6.97,6.8-3.78,13.51-8.39,20.13-13.81,6.62-5.42,12.86-11.49,18.72-18.2,5.85-6.71,10.67-13.42,14.46-20.13,2.23-3.96,3.57-6.62,4-8,.43-1.38-.04-2.07-1.42-2.07-.86,0-2.11.22-3.74.65-1.64.43-3.74,1.08-6.32,1.94-1.9.52-5.51,1.59-10.84,3.23-5.34,1.64-11.32,3.36-17.94,5.16-6.63,1.81-13.34,3.4-20.13,4.78-6.8,1.38-12.69,2.07-17.68,2.07-2.41,0-5.38-.77-8.91-2.32-3.53-1.55-6.89-3.57-10.07-6.07-3.19-2.49-5.9-5.2-8.13-8.13-2.24-2.92-3.36-5.68-3.36-8.26,0-3.61,1.81-8.52,5.42-14.71,3.61-6.2,8.26-12.95,13.94-20.26,5.68-7.31,12-14.75,18.97-22.33,6.97-7.57,13.77-14.46,20.39-20.65,6.62-6.2,12.69-11.23,18.2-15.1,5.51-3.87,9.72-5.81,12.65-5.81Z"/>
  <path class="cls-2" d="M1261.26,520.09c.34-1.03.86-1.63,1.55-1.81.69-.17,1.55-.26,2.58-.26,1.55,0,3.91.26,7.1.78,3.18.52,6.33,1.21,9.42,2.06,3.1.86,5.85,1.9,8.26,3.1,2.41,1.21,3.61,2.58,3.61,4.13l-7.49,87.51c4.99-1.03,9.38-1.98,13.17-2.84,3.78-.86,8.17-1.29,13.17-1.29.52,0,1.03.99,1.55,2.97.52,1.98.94,4.22,1.29,6.71.34,2.5.64,4.95.9,7.36.26,2.41.39,4.13.39,5.16,0,3.1-.9,5.42-2.71,6.97-1.81,1.55-4.26,2.67-7.36,3.36-10.84,2.07-21.55,4.65-32.14,7.74-10.58,3.1-21.55,7.31-32.91,12.65-.52.17-1.72-.86-3.61-3.1-1.9-2.24-3.7-4.82-5.42-7.74-1.72-2.92-3.01-5.89-3.87-8.91-.86-3.01-.52-5.2,1.03-6.58,1.9-1.55,4.13-3.1,6.71-4.65,2.58-1.55,5.25-2.97,8-4.26,2.75-1.29,5.46-2.41,8.13-3.36,2.67-.94,5.03-1.68,7.1-2.19l-5.94-6.2c.17-12.22.52-24.18,1.03-35.88.34-4.99.69-10.24,1.03-15.75.34-5.51.77-10.93,1.29-16.26.52-5.33,1.12-10.54,1.81-15.62.69-5.07,1.46-9.68,2.32-13.81ZM1263.33,505.63c-.69-1.38-.86-4.13-.52-8.26.34-4.13,1.07-8.43,2.19-12.91,1.12-4.47,2.41-8.47,3.87-12,1.46-3.52,2.97-5.29,4.52-5.29.86,0,2.54.39,5.03,1.16,2.49.77,5.03,1.68,7.61,2.71s4.86,2.11,6.84,3.23c1.98,1.12,2.97,2.11,2.97,2.97l-5.94,32.53c-.17,1.03-.22,2.15-.13,3.36.08,1.21-.56,2.15-1.94,2.84-.86.52-1.85.39-2.97-.39-1.12-.77-2.19-1.33-3.23-1.68-3.27-.86-6.67-1.63-10.2-2.32-3.53-.69-6.24-2.67-8.13-5.94Z"/>
  <path class="cls-2" d="M1320.63,461.23c1.2-2.41,3.74-3.7,7.62-3.87,3.87-.17,7.87.48,12,1.94,4.13,1.46,7.78,3.44,10.97,5.94,3.18,2.5,4.69,5.12,4.52,7.87-.69,14.63-1.42,28.36-2.19,41.17-.77,12.82-1.29,25.43-1.55,37.82-.26,12.39,0,24.87.78,37.43.77,12.56,2.36,25.99,4.78,40.27,0,.35-.43,1.03-1.29,2.07-.86,1.03-1.29,1.72-1.29,2.07,2.06-1.38,4.3-2.88,6.71-4.52,2.41-1.63,4.9-3.23,7.49-4.78,2.58-1.55,5.25-2.88,8-4,2.75-1.12,5.5-1.94,8.26-2.45,2.75-.52,5.42.35,8,2.58,2.58,2.24,4.82,4.95,6.71,8.13,1.89,3.19,3.44,6.41,4.65,9.68,1.2,3.27,1.81,5.77,1.81,7.49-12.39,3.44-24.95,8.04-37.69,13.81-12.74,5.76-24.52,12.26-35.37,19.49-1.55.86-3.7.26-6.45-1.81-2.75-2.07-5.34-4.69-7.74-7.87-2.41-3.19-4.17-6.54-5.29-10.07-1.12-3.53-.82-6.32.9-8.39,1.38-1.38,2.92-2.54,4.65-3.49,1.72-.94,3.27-2.11,4.65-3.48-2.58-11.36-4.48-23.7-5.68-37.04-1.21-13.33-1.98-26.76-2.32-40.27-.35-13.51-.3-26.54.13-39.11.43-12.56.9-23.75,1.42-33.56.52-9.81,1.07-17.68,1.68-23.62.6-5.94.99-9.07,1.16-9.42Z"/>
  <g>
    <path class="cls-2" d="M805.22,736.26c3.76-5.29,7.88-10.22,12.37-14.77,4.48-4.55,9.36-8.43,14.66-11.65,5.29-3.22,10.95-5.72,16.98-7.52,6.02-1.79,12.46-2.59,19.31-2.38,2.63.12,5.69,1.54,9.16,4.26,3.47,2.72,6.7,6.24,9.67,10.57,2.98,4.33,5.48,9.26,7.51,14.78,2.03,5.53,2.92,11.07,2.67,16.64-.36,9.11-2.21,18.12-5.56,27.04-3.35,8.91-7.31,17.76-11.89,26.52-4.58,8.77-9.29,17.33-14.14,25.68-4.85,8.35-8.96,16.44-12.32,24.25,7.31-3.5,14.46-5.99,21.45-7.47,6.99-1.48,13.47-2.44,19.43-2.89,2.8-.22,5.01.58,6.63,2.41,1.61,1.83,2.84,4.12,3.68,6.89.84,2.77,1.33,5.84,1.49,9.2.15,3.37.03,6.45-.36,9.24-.39,2.79-.92,5.16-1.58,7.11-.67,1.95-1.35,2.93-2.05,2.95-7.9.14-15,.24-21.32.26-6.32.03-12.5.27-18.55.72-6.05.45-12.27,1.2-18.65,2.24-6.39,1.05-13.69,2.57-21.9,4.57-3.5.91-7.28.43-11.35-1.44-4.07-1.86-7.67-4.16-10.79-6.88-3.12-2.73-5.46-5.42-6.99-8.09-1.54-2.67-1.71-4.52-.5-5.56.35-.17,1.38-1.33,3.1-3.47,1.71-2.14,3.6-4.49,5.66-7.06,2.06-2.57,3.94-5,5.66-7.31,1.71-2.31,2.74-3.72,3.08-4.23,2.91-4.1,6.59-9.06,11.05-14.87,4.46-5.81,9.17-12.06,14.14-18.72,4.97-6.67,9.8-13.54,14.5-20.63,4.7-7.08,8.78-14.03,12.25-20.84,3.47-6.81,5.94-13.26,7.41-19.36,1.47-6.1,1.45-11.49-.03-16.19-.38-1.34-1.48-1.74-3.31-1.2-1.83.54-4.01,1.68-6.52,3.41-2.51,1.73-5.24,3.89-8.17,6.47-2.94,2.58-5.74,5.16-8.41,7.74-2.68,2.58-5.09,4.99-7.24,7.21-2.16,2.23-3.66,3.95-4.51,5.14-.35.35-.6.69-.77,1.03-.17.34-.52.51-1.04.52-1.58.03-3.66-.94-6.24-2.92-2.58-1.98-5.17-4.33-7.77-7.07-2.6-2.73-4.88-5.43-6.86-8.09-1.98-2.66-2.98-4.75-3.01-6.27Z"/>
    <path class="cls-2" d="M905.23,806.25c.81-3.89,1.77-8.71,2.89-14.47,1.12-5.75,2.5-11.93,4.14-18.54,1.63-6.6,3.44-13.34,5.42-20.21,1.98-6.86,4.18-13.44,6.61-19.72,2.43-6.28,5-11.98,7.72-17.09,2.71-5.11,5.62-9.12,8.73-12.05,1.04-.86,2.3-1.47,3.78-1.84,1.48-.36,2.84-.56,4.07-.58,2.45-.04,4.79.38,7,1.26,2.21.89,4.34,1.99,6.38,3.3,2.04,1.31,4,2.75,5.87,4.32,1.87,1.57,3.61,3.01,5.21,4.33,6.41,5.11,12.2,10.06,17.38,14.86,5.18,4.8,9.61,9.9,13.31,15.31,3.69,5.41,6.61,11.39,8.75,17.92,2.14,6.54,3.29,14.02,3.44,22.45.09,5.06-.59,10.85-2.05,17.36-1.46,6.52-3.58,13.26-6.34,20.22-2.77,6.97-6.16,13.81-10.15,20.55-4,6.74-8.5,12.76-13.49,18.08-4.99,5.32-10.35,9.63-16.09,12.94-5.73,3.31-11.85,5.02-18.33,5.14-6-1.91-11.76-4.63-17.26-8.16-5.51-3.52-10.32-7.65-14.44-12.38-4.13-4.73-7.42-9.98-9.9-15.75-2.48-5.77-3.77-11.94-3.89-18.52-.05-2.87-.02-5.94.09-9.23.11-3.29.49-6.46,1.14-9.51ZM948.52,783.71c-2.97,10.17-4.85,20.45-5.62,30.83-.78,10.38-1.07,20.89-.87,31.51l.06,3.03c.17,0,.43-.17.78-.52.17,0,.35-.09.52-.26,4.29-5.3,8.57-10.95,12.85-16.93,4.28-5.98,8.11-12.2,11.51-18.67,3.39-6.47,6.12-13.14,8.19-20,2.07-6.87,3.04-13.84,2.91-20.92-.08-4.38-.73-8.8-1.95-13.24-1.23-4.44-2.84-8.67-4.84-12.68-.37-.84-.87-1.84-1.5-3.01-.64-1.17-1.32-2.42-2.04-3.76-.73-1.5-1.46-3.01-2.19-4.51l-.78.77c-.17.17-.55,1.02-1.14,2.55-.59,1.53-1.22,3.23-1.88,5.09-.67,1.87-1.34,3.69-2.01,5.48-.67,1.78-1.17,3.18-1.5,4.2-.33,1.19-.99,3.22-1.99,6.11-1,2.89-2.09,5.98-3.25,9.29-1.17,3.31-2.25,6.45-3.25,9.42-1,2.97-1.66,5.05-1.99,6.23Z"/>
    <path class="cls-2" d="M1016.29,732.39c3.76-5.29,7.88-10.22,12.37-14.77,4.48-4.55,9.36-8.43,14.66-11.65,5.29-3.22,10.95-5.72,16.98-7.52,6.02-1.79,12.46-2.59,19.31-2.38,2.64.12,5.69,1.54,9.16,4.26,3.47,2.72,6.7,6.24,9.67,10.57,2.98,4.33,5.48,9.26,7.51,14.78,2.03,5.53,2.92,11.07,2.67,16.64-.36,9.11-2.21,18.12-5.56,27.04-3.35,8.91-7.31,17.76-11.89,26.52-4.58,8.77-9.29,17.33-14.14,25.68-4.85,8.35-8.96,16.44-12.32,24.25,7.31-3.5,14.46-5.99,21.45-7.47,6.99-1.48,13.47-2.44,19.43-2.89,2.8-.22,5.01.58,6.63,2.41,1.61,1.83,2.84,4.12,3.68,6.89.84,2.77,1.33,5.84,1.49,9.2.15,3.37.03,6.45-.36,9.24-.39,2.79-.92,5.16-1.58,7.11-.67,1.95-1.35,2.93-2.05,2.95-7.9.14-15,.24-21.32.26-6.32.03-12.5.27-18.55.72-6.05.45-12.27,1.2-18.65,2.24-6.39,1.05-13.69,2.57-21.9,4.57-3.5.91-7.28.43-11.35-1.44-4.07-1.86-7.67-4.16-10.79-6.88-3.12-2.73-5.46-5.42-6.99-8.09-1.54-2.67-1.71-4.52-.5-5.56.35-.17,1.38-1.33,3.1-3.47,1.71-2.14,3.6-4.49,5.66-7.06,2.06-2.57,3.94-5,5.66-7.31,1.71-2.31,2.74-3.72,3.08-4.23,2.91-4.1,6.59-9.06,11.05-14.87,4.45-5.81,9.17-12.06,14.14-18.72,4.97-6.67,9.8-13.54,14.5-20.63,4.7-7.08,8.78-14.03,12.25-20.84,3.47-6.81,5.94-13.26,7.41-19.36,1.47-6.1,1.46-11.49-.03-16.19-.38-1.34-1.48-1.74-3.31-1.2-1.83.54-4.01,1.68-6.52,3.41-2.51,1.73-5.24,3.89-8.17,6.47-2.94,2.58-5.74,5.16-8.42,7.74-2.68,2.58-5.09,4.99-7.24,7.21-2.16,2.23-3.66,3.95-4.51,5.14-.35.35-.6.69-.77,1.03-.17.34-.52.51-1.04.52-1.58.03-3.66-.94-6.24-2.92-2.58-1.98-5.17-4.33-7.76-7.07-2.6-2.73-4.88-5.43-6.86-8.09-1.98-2.66-2.98-4.75-3.01-6.27Z"/>
    <path class="cls-2" d="M1229.44,698.13c2.8-.05,4.93,1.26,6.39,3.93,1.45,2.67,2.47,5.65,3.06,8.92.59,3.28.86,6.27.82,8.96-.04,2.7-.15,4.05-.32,4.05-4.91.09-9.34.38-13.28.88-3.94.5-7.84,1.12-11.68,1.86-3.85.75-7.87,1.62-12.06,2.62-4.19,1.01-9,2.06-14.42,3.17-1.23.19-2.35,1.27-3.36,3.22-1.02,1.96-1.9,4.17-2.64,6.62-.75,2.46-1.32,4.87-1.71,7.24-.4,2.37-.58,4.06-.57,5.07,6.62-2.65,13.35-4.04,20.2-4.16,4.56-.08,9,.55,13.33,1.9,4.32,1.36,8.18,3.35,11.56,5.99,3.38,2.64,6.16,5.83,8.34,9.58,2.18,3.75,3.31,7.99,3.39,12.71.11,5.73-.7,12.07-2.42,19.01-1.72,6.95-4.18,13.9-7.38,20.87-3.21,6.97-7.03,13.75-11.47,20.32-4.45,6.57-9.38,12.44-14.82,17.6-5.43,5.16-11.28,9.31-17.54,12.46-6.26,3.15-12.73,4.79-19.39,4.91-8.78.16-15.78-1.27-21.01-4.29-5.24-3.02-9.12-6.83-11.66-11.42-2.54-4.59-4.09-9.66-4.62-15.22-.54-5.55-.51-10.87.1-15.94.61-5.07,1.54-9.47,2.79-13.2,1.25-3.73,2.3-6.03,3.16-6.89,1.89-2.06,4.59-2.91,8.11-2.55,3.52.36,6.91,1.39,10.19,3.1,3.28,1.71,5.99,3.85,8.15,6.43,2.15,2.58,2.81,4.97,1.97,7.17-.33,1.19-1.21,3.4-2.64,6.62-1.43,3.23-2.78,6.59-4.03,10.06-1.25,3.48-2.25,6.66-2.98,9.54-.74,2.88-.58,4.48.48,4.8,1.59.65,4.25-.24,7.98-2.68,3.73-2.43,7.88-5.88,12.45-10.35,4.57-4.47,9.3-9.74,14.19-15.81,4.89-6.07,9.34-12.39,13.34-18.96,4-6.56,7.26-13.16,9.77-19.78,2.51-6.62,3.72-12.8,3.61-18.53-2.98.22-6.3.88-9.97,1.95-3.67,1.08-7.37,2.41-11.12,4-3.75,1.59-7.36,3.26-10.83,5-3.48,1.75-6.52,3.32-9.13,4.72-1.58.03-3.7-.65-6.36-2.03-2.66-1.38-5.32-3.06-7.99-5.04-2.67-1.97-4.94-4.04-6.83-6.2-1.88-2.15-2.84-4.08-2.87-5.76-.06-3.03.28-6.28,1.01-9.76.73-3.47,1.59-6.73,2.59-9.78,1-3.05,2-5.85,3.01-8.4,1.01-2.55,1.67-4.41,2-5.6-1.27-2.33-1.94-5.28-2-8.82-.06-3.37.81-6.09,2.61-8.14,1.81-2.06,4.28-3.62,7.42-4.69.85-1.53,1.83-3.07,2.94-4.61,1.11-1.54,2.72-2.33,4.83-2.36,1.93-.04,3.6.36,5.02,1.17,1.42.82,2.83,1.21,4.23,1.19,4.03-.07,8.06-.44,12.09-1.11,4.02-.66,8-1.41,11.94-2.24,3.93-.83,7.87-1.57,11.81-2.24,3.94-.66,8.01-1.03,12.22-1.11Z"/>
  </g>
  <path class="cls-1" d="M813.58,228.3c5.72,0,10.2,2.24,13.44,6.72,3.24,4.48,5.67,9.87,7.29,16.16,1.62,6.29,2.67,12.73,3.15,19.3.47,6.58.72,11.97.72,16.16,0,8.39-.67,17.92-2,28.6-1.34,10.68-3.39,21.64-6.15,32.89-2.77,11.25-6.34,22.26-10.72,33.03-4.39,10.77-9.68,20.35-15.87,28.74-6.2,8.39-13.35,15.16-21.45,20.31-8.11,5.15-17.3,7.72-27.6,7.72-12.97,0-22.69-3.33-29.17-10.01-1.14,2.29-2,4.63-2.57,7.01-.57,2.38-1.24,4.81-2,7.29-.57,1.72-1.91,2.57-4,2.57s-4.63-.76-7.58-2.29c-2.96-1.53-5.77-3.39-8.44-5.58-2.67-2.19-4.86-4.58-6.58-7.15-1.72-2.57-2.29-4.91-1.72-7.01,3.62-10.87,8.62-21.26,15.01-31.17,6.39-9.91,14.06-18.49,23.02-25.74.95-.57,1.9-.86,2.86-.86,2.1,0,4.43,1,7.01,3,2.57,2,5.01,4.39,7.29,7.15,2.29,2.77,4.19,5.53,5.72,8.29,1.52,2.77,2.29,4.91,2.29,6.43,0,.96-.86,2.43-2.57,4.43-1.72,2-3.72,4.15-6.01,6.44-2.29,2.29-4.53,4.53-6.72,6.72-2.19,2.19-3.67,4.05-4.43,5.58,5.72,0,11.2-1.81,16.44-5.43,5.24-3.62,10.15-8.34,14.73-14.16,4.58-5.81,8.77-12.34,12.58-19.59,3.81-7.24,7.24-14.54,10.3-21.88,3.05-7.34,5.62-14.34,7.72-21.02,2.1-6.67,3.62-12.3,4.58-16.87.19-.95.57-2.57,1.14-4.86.57-2.29,1.09-4.67,1.57-7.15.47-2.48.9-4.81,1.29-7.01.38-2.19.57-3.58.57-4.15-1.53,3.24-3.62,7.2-6.29,11.87-2.67,4.67-5.68,9.54-9.01,14.59-3.34,5.05-6.96,10.15-10.87,15.3-3.91,5.15-7.91,9.72-12.01,13.73-4.1,4-8.25,7.25-12.44,9.72-4.2,2.48-8.29,3.72-12.3,3.72-5.72,0-11.15-1.33-16.3-4-5.15-2.67-9.72-6.19-13.73-10.58-4-4.38-7.2-9.29-9.58-14.73-2.39-5.43-3.57-10.91-3.57-16.44,0-6.48.62-12.77,1.86-18.88,1.24-6.1,2.81-12.15,4.72-18.16,1.9-6.01,4-11.91,6.29-17.73,2.29-5.81,4.48-11.68,6.58-17.59.38-.95.62-1.62.71-2,.09-.38.62-.76,1.57-1.14,3.24,0,6.15.67,8.72,2,2.57,1.34,4.81,3.15,6.72,5.43,1.9,2.29,3.38,4.86,4.43,7.72,1.05,2.86,1.57,5.82,1.57,8.87,0,5.15-.57,10.35-1.72,15.59-1.14,5.25-2.43,10.58-3.86,16.02-1.43,5.43-2.72,10.87-3.86,16.3-1.14,5.43-1.72,10.92-1.72,16.44,3.62-1.33,7.48-3.81,11.58-7.44,4.1-3.62,8.29-8.01,12.58-13.16,4.29-5.15,8.53-10.77,12.73-16.87,4.19-6.1,8.15-12.2,11.87-18.3,3.72-6.1,7.1-11.87,10.15-17.3,3.05-5.43,5.62-10.05,7.72-13.87,1.52-3.05,3.33-5.76,5.43-8.15,2.1-2.38,5.05-3.58,8.87-3.58Z"/>
</svg>